solid AssimpScene
 facet normal 0.482815683 0.870928288 -0.0915029794
  outer loop
  vertex -0.00160199997 0.00644000014 0
  vertex 0.0193889998 -0.00519500021 -0
  vertex 0.0193240009 -0.00531300018 -0.00146299996
  endloop
 endfacet

 facet normal 0.482815683 0.870928288 -0.0915029794
  outer loop
  vertex -0.00160199997 0.00644000014 0
  vertex 0.0193240009 -0.00531300018 -0.00146299996
  vertex -0.001667 0.00632200018 -0.00146299996
  endloop
 endfacet

 facet normal 0.466512531 0.841522574 -0.272407293
  outer loop
  vertex -0.001667 0.00632200018 -0.00146299996
  vertex 0.0193240009 -0.00531300018 -0.00146299996
  vertex 0.0191309992 -0.00566100003 -0.00286999997
  endloop
 endfacet

 facet normal 0.466512531 0.841522574 -0.272407293
  outer loop
  vertex -0.001667 0.00632200018 -0.00146299996
  vertex 0.0191309992 -0.00566100003 -0.00286999997
  vertex -0.00185999996 0.00597399985 -0.00286999997
  endloop
 endfacet

 facet normal 0.433817774 0.782631993 -0.446418256
  outer loop
  vertex -0.00185999996 0.00597399985 -0.00286999997
  vertex 0.0191309992 -0.00566100003 -0.00286999997
  vertex 0.0188170001 -0.00622700015 -0.00416699983
  endloop
 endfacet

 facet normal 0.433817774 0.782631993 -0.446418256
  outer loop
  vertex -0.00185999996 0.00597399985 -0.00286999997
  vertex 0.0188170001 -0.00622700015 -0.00416699983
  vertex -0.00217400002 0.0054080002 -0.00416699983
  endloop
 endfacet

 facet normal 0.384902686 0.694304824 -0.608104229
  outer loop
  vertex -0.00217400002 0.0054080002 -0.00416699983
  vertex 0.0188170001 -0.00622700015 -0.00416699983
  vertex 0.0183949992 -0.0069889999 -0.0053030001
  endloop
 endfacet

 facet normal 0.384902686 0.694304824 -0.608104229
  outer loop
  vertex -0.00217400002 0.0054080002 -0.00416699983
  vertex 0.0183949992 -0.0069889999 -0.0053030001
  vertex -0.00259599998 0.00464700023 -0.0053030001
  endloop
 endfacet

 facet normal 0.320104629 0.57750833 -0.751010835
  outer loop
  vertex -0.00259599998 0.00464700023 -0.0053030001
  vertex 0.0183949992 -0.0069889999 -0.0053030001
  vertex 0.0178810004 -0.00791599974 -0.00623599999
  endloop
 endfacet

 facet normal 0.320104629 0.57750833 -0.751010835
  outer loop
  vertex -0.00259599998 0.00464700023 -0.0053030001
  vertex 0.0178810004 -0.00791599974 -0.00623599999
  vertex -0.00310999993 0.00371899991 -0.00623599999
  endloop
 endfacet

 facet normal 0.240891114 0.434683979 -0.86776799
  outer loop
  vertex -0.00310999993 0.00371899991 -0.00623599999
  vertex 0.0178810004 -0.00791599974 -0.00623599999
  vertex 0.0172940008 -0.00897500012 -0.00692899991
  endloop
 endfacet

 facet normal 0.240891114 0.434683979 -0.86776799
  outer loop
  vertex -0.00310999993 0.00371899991 -0.00623599999
  vertex 0.0172940008 -0.00897500012 -0.00692899991
  vertex -0.00369699998 0.00266100001 -0.00692899991
  endloop
 endfacet

 facet normal 0.149905011 0.270309031 -0.951031804
  outer loop
  vertex -0.00369699998 0.00266100001 -0.00692899991
  vertex 0.0172940008 -0.00897500012 -0.00692899991
  vertex 0.0166580006 -0.0101229995 -0.00735600013
  endloop
 endfacet

 facet normal 0.149905011 0.270309031 -0.951031804
  outer loop
  vertex -0.00369699998 0.00266100001 -0.00692899991
  vertex 0.0166580006 -0.0101229995 -0.00735600013
  vertex -0.00433300016 0.00151199999 -0.00735600013
  endloop
 endfacet

 facet normal 0.0508987755 0.091797784 -0.99447602
  outer loop
  vertex -0.00433300016 0.00151199999 -0.00735600013
  vertex 0.0166580006 -0.0101229995 -0.00735600013
  vertex 0.0159949996 -0.011318 -0.00749999983
  endloop
 endfacet

 facet normal 0.0508987755 0.091797784 -0.99447602
  outer loop
  vertex -0.00433300016 0.00151199999 -0.00735600013
  vertex 0.0159949996 -0.011318 -0.00749999983
  vertex -0.00499500008 0.000318000006 -0.00749999983
  endloop
 endfacet

 facet normal -0.0508987755 -0.091797784 -0.99447602
  outer loop
  vertex -0.00499500008 0.000318000006 -0.00749999983
  vertex 0.0159949996 -0.011318 -0.00749999983
  vertex 0.0153329996 -0.0125120003 -0.00735600013
  endloop
 endfacet

 facet normal -0.0508987755 -0.091797784 -0.99447602
  outer loop
  vertex -0.00499500008 0.000318000006 -0.00749999983
  vertex 0.0153329996 -0.0125120003 -0.00735600013
  vertex -0.00565799978 -0.000876999984 -0.00735600013
  endloop
 endfacet

 facet normal -0.149905011 -0.270309031 -0.951031804
  outer loop
  vertex -0.00565799978 -0.000876999984 -0.00735600013
  vertex 0.0153329996 -0.0125120003 -0.00735600013
  vertex 0.0146970004 -0.0136609999 -0.00692899991
  endloop
 endfacet

 facet normal -0.149905011 -0.270309031 -0.951031804
  outer loop
  vertex -0.00565799978 -0.000876999984 -0.00735600013
  vertex 0.0146970004 -0.0136609999 -0.00692899991
  vertex -0.00629399996 -0.00202500005 -0.00692899991
  endloop
 endfacet

 facet normal -0.240891114 -0.434683979 -0.86776799
  outer loop
  vertex -0.00629399996 -0.00202500005 -0.00692899991
  vertex 0.0146970004 -0.0136609999 -0.00692899991
  vertex 0.0141099999 -0.0147190001 -0.00623599999
  endloop
 endfacet

 facet normal -0.240891114 -0.434683979 -0.86776799
  outer loop
  vertex -0.00629399996 -0.00202500005 -0.00692899991
  vertex 0.0141099999 -0.0147190001 -0.00623599999
  vertex -0.00688100001 -0.00308399997 -0.00623599999
  endloop
 endfacet

 facet normal -0.320104629 -0.57750833 -0.751010835
  outer loop
  vertex -0.00688100001 -0.00308399997 -0.00623599999
  vertex 0.0141099999 -0.0147190001 -0.00623599999
  vertex 0.0135960001 -0.0156469997 -0.0053030001
  endloop
 endfacet

 facet normal -0.320104629 -0.57750833 -0.751010835
  outer loop
  vertex -0.00688100001 -0.00308399997 -0.00623599999
  vertex 0.0135960001 -0.0156469997 -0.0053030001
  vertex -0.0073950002 -0.00401100004 -0.0053030001
  endloop
 endfacet

 facet normal -0.384902686 -0.694304824 -0.608104229
  outer loop
  vertex -0.0073950002 -0.00401100004 -0.0053030001
  vertex 0.0135960001 -0.0156469997 -0.0053030001
  vertex 0.0131740002 -0.0164080001 -0.00416699983
  endloop
 endfacet

 facet normal -0.384902686 -0.694304824 -0.608104229
  outer loop
  vertex -0.0073950002 -0.00401100004 -0.0053030001
  vertex 0.0131740002 -0.0164080001 -0.00416699983
  vertex -0.00781700015 -0.00477299979 -0.00416699983
  endloop
 endfacet

 facet normal -0.433817774 -0.782631993 -0.446418256
  outer loop
  vertex -0.00781700015 -0.00477299979 -0.00416699983
  vertex 0.0131740002 -0.0164080001 -0.00416699983
  vertex 0.0128600001 -0.0169740003 -0.00286999997
  endloop
 endfacet

 facet normal -0.433817774 -0.782631993 -0.446418256
  outer loop
  vertex -0.00781700015 -0.00477299979 -0.00416699983
  vertex 0.0128600001 -0.0169740003 -0.00286999997
  vertex -0.00813100021 -0.00533899991 -0.00286999997
  endloop
 endfacet

 facet normal -0.466512531 -0.841522574 -0.272407293
  outer loop
  vertex -0.00813100021 -0.00533899991 -0.00286999997
  vertex 0.0128600001 -0.0169740003 -0.00286999997
  vertex 0.0126670003 -0.0173220001 -0.00146299996
  endloop
 endfacet

 facet normal -0.466512531 -0.841522574 -0.272407293
  outer loop
  vertex -0.00813100021 -0.00533899991 -0.00286999997
  vertex 0.0126670003 -0.0173220001 -0.00146299996
  vertex -0.00832400005 -0.00568700023 -0.00146299996
  endloop
 endfacet

 facet normal -0.482815683 -0.870928288 -0.0915029794
  outer loop
  vertex -0.00832400005 -0.00568700023 -0.00146299996
  vertex 0.0126670003 -0.0173220001 -0.00146299996
  vertex 0.0126019996 -0.0174400005 -0
  endloop
 endfacet

 facet normal -0.482815683 -0.870928288 -0.0915029794
  outer loop
  vertex -0.00832400005 -0.00568700023 -0.00146299996
  vertex 0.0126019996 -0.0174400005 -0
  vertex -0.00838899985 -0.0058050002 0
  endloop
 endfacet

 facet normal -0.482815683 -0.870928288 0.0915029794
  outer loop
  vertex -0.00838899985 -0.0058050002 0
  vertex 0.0126019996 -0.0174400005 -0
  vertex 0.0126670003 -0.0173220001 0.00146299996
  endloop
 endfacet

 facet normal -0.482815683 -0.870928288 0.0915029794
  outer loop
  vertex -0.00838899985 -0.0058050002 0
  vertex 0.0126670003 -0.0173220001 0.00146299996
  vertex -0.00832400005 -0.00568700023 0.00146299996
  endloop
 endfacet

 facet normal -0.466512531 -0.841522574 0.272407293
  outer loop
  vertex -0.00832400005 -0.00568700023 0.00146299996
  vertex 0.0126670003 -0.0173220001 0.00146299996
  vertex 0.0128600001 -0.0169740003 0.00286999997
  endloop
 endfacet

 facet normal -0.466512531 -0.841522574 0.272407293
  outer loop
  vertex -0.00832400005 -0.00568700023 0.00146299996
  vertex 0.0128600001 -0.0169740003 0.00286999997
  vertex -0.00813100021 -0.00533899991 0.00286999997
  endloop
 endfacet

 facet normal -0.433817774 -0.782631993 0.446418256
  outer loop
  vertex -0.00813100021 -0.00533899991 0.00286999997
  vertex 0.0128600001 -0.0169740003 0.00286999997
  vertex 0.0131740002 -0.0164080001 0.00416699983
  endloop
 endfacet

 facet normal -0.433817774 -0.782631993 0.446418256
  outer loop
  vertex -0.00813100021 -0.00533899991 0.00286999997
  vertex 0.0131740002 -0.0164080001 0.00416699983
  vertex -0.00781700015 -0.00477299979 0.00416699983
  endloop
 endfacet

 facet normal -0.384902686 -0.694304824 0.608104229
  outer loop
  vertex -0.00781700015 -0.00477299979 0.00416699983
  vertex 0.0131740002 -0.0164080001 0.00416699983
  vertex 0.0135960001 -0.0156469997 0.0053030001
  endloop
 endfacet

 facet normal -0.384902686 -0.694304824 0.608104229
  outer loop
  vertex -0.00781700015 -0.00477299979 0.00416699983
  vertex 0.0135960001 -0.0156469997 0.0053030001
  vertex -0.0073950002 -0.00401100004 0.0053030001
  endloop
 endfacet

 facet normal -0.320104629 -0.57750833 0.751010835
  outer loop
  vertex -0.0073950002 -0.00401100004 0.0053030001
  vertex 0.0135960001 -0.0156469997 0.0053030001
  vertex 0.0141099999 -0.0147190001 0.00623599999
  endloop
 endfacet

 facet normal -0.320104629 -0.57750833 0.751010835
  outer loop
  vertex -0.0073950002 -0.00401100004 0.0053030001
  vertex 0.0141099999 -0.0147190001 0.00623599999
  vertex -0.00688100001 -0.00308399997 0.00623599999
  endloop
 endfacet

 facet normal -0.240891114 -0.434683979 0.86776799
  outer loop
  vertex -0.00688100001 -0.00308399997 0.00623599999
  vertex 0.0141099999 -0.0147190001 0.00623599999
  vertex 0.0146970004 -0.0136609999 0.00692899991
  endloop
 endfacet

 facet normal -0.240891114 -0.434683979 0.86776799
  outer loop
  vertex -0.00688100001 -0.00308399997 0.00623599999
  vertex 0.0146970004 -0.0136609999 0.00692899991
  vertex -0.00629399996 -0.00202500005 0.00692899991
  endloop
 endfacet

 facet normal -0.149905011 -0.270309031 0.951031804
  outer loop
  vertex -0.00629399996 -0.00202500005 0.00692899991
  vertex 0.0146970004 -0.0136609999 0.00692899991
  vertex 0.0153329996 -0.0125120003 0.00735600013
  endloop
 endfacet

 facet normal -0.149905011 -0.270309031 0.951031804
  outer loop
  vertex -0.00629399996 -0.00202500005 0.00692899991
  vertex 0.0153329996 -0.0125120003 0.00735600013
  vertex -0.00565799978 -0.000876999984 0.00735600013
  endloop
 endfacet

 facet normal -0.0508987755 -0.091797784 0.99447602
  outer loop
  vertex -0.00565799978 -0.000876999984 0.00735600013
  vertex 0.0153329996 -0.0125120003 0.00735600013
  vertex 0.0159949996 -0.011318 0.00749999983
  endloop
 endfacet

 facet normal -0.0508987755 -0.091797784 0.99447602
  outer loop
  vertex -0.00565799978 -0.000876999984 0.00735600013
  vertex 0.0159949996 -0.011318 0.00749999983
  vertex -0.00499500008 0.000318000006 0.00749999983
  endloop
 endfacet

 facet normal 0.0508987755 0.091797784 0.99447602
  outer loop
  vertex -0.00499500008 0.000318000006 0.00749999983
  vertex 0.0159949996 -0.011318 0.00749999983
  vertex 0.0166580006 -0.0101229995 0.00735600013
  endloop
 endfacet

 facet normal 0.0508987755 0.091797784 0.99447602
  outer loop
  vertex -0.00499500008 0.000318000006 0.00749999983
  vertex 0.0166580006 -0.0101229995 0.00735600013
  vertex -0.00433300016 0.00151199999 0.00735600013
  endloop
 endfacet

 facet normal 0.149905011 0.270309031 0.951031804
  outer loop
  vertex -0.00433300016 0.00151199999 0.00735600013
  vertex 0.0166580006 -0.0101229995 0.00735600013
  vertex 0.0172940008 -0.00897500012 0.00692899991
  endloop
 endfacet

 facet normal 0.149905011 0.270309031 0.951031804
  outer loop
  vertex -0.00433300016 0.00151199999 0.00735600013
  vertex 0.0172940008 -0.00897500012 0.00692899991
  vertex -0.00369699998 0.00266100001 0.00692899991
  endloop
 endfacet

 facet normal 0.240891114 0.434683979 0.86776799
  outer loop
  vertex -0.00369699998 0.00266100001 0.00692899991
  vertex 0.0172940008 -0.00897500012 0.00692899991
  vertex 0.0178810004 -0.00791599974 0.00623599999
  endloop
 endfacet

 facet normal 0.240891114 0.434683979 0.86776799
  outer loop
  vertex -0.00369699998 0.00266100001 0.00692899991
  vertex 0.0178810004 -0.00791599974 0.00623599999
  vertex -0.00310999993 0.00371899991 0.00623599999
  endloop
 endfacet

 facet normal 0.320104629 0.57750833 0.751010835
  outer loop
  vertex -0.00310999993 0.00371899991 0.00623599999
  vertex 0.0178810004 -0.00791599974 0.00623599999
  vertex 0.0183949992 -0.0069889999 0.0053030001
  endloop
 endfacet

 facet normal 0.320104629 0.57750833 0.751010835
  outer loop
  vertex -0.00310999993 0.00371899991 0.00623599999
  vertex 0.0183949992 -0.0069889999 0.0053030001
  vertex -0.00259599998 0.00464700023 0.0053030001
  endloop
 endfacet

 facet normal 0.384902686 0.694304824 0.608104229
  outer loop
  vertex -0.00259599998 0.00464700023 0.0053030001
  vertex 0.0183949992 -0.0069889999 0.0053030001
  vertex 0.0188170001 -0.00622700015 0.00416699983
  endloop
 endfacet

 facet normal 0.384902686 0.694304824 0.608104229
  outer loop
  vertex -0.00259599998 0.00464700023 0.0053030001
  vertex 0.0188170001 -0.00622700015 0.00416699983
  vertex -0.00217400002 0.0054080002 0.00416699983
  endloop
 endfacet

 facet normal 0.433817774 0.782631993 0.446418256
  outer loop
  vertex -0.00217400002 0.0054080002 0.00416699983
  vertex 0.0188170001 -0.00622700015 0.00416699983
  vertex 0.0191309992 -0.00566100003 0.00286999997
  endloop
 endfacet

 facet normal 0.433817774 0.782631993 0.446418256
  outer loop
  vertex -0.00217400002 0.0054080002 0.00416699983
  vertex 0.0191309992 -0.00566100003 0.00286999997
  vertex -0.00185999996 0.00597399985 0.00286999997
  endloop
 endfacet

 facet normal 0.874619126 -0.484810621 0
  outer loop
  vertex 0.0191309992 -0.00566100003 -0.00286999997
  vertex 0.0193240009 -0.00531300018 -0.00146299996
  vertex 0.0193889998 -0.00519500021 -0
  endloop
 endfacet

 facet normal 0.874619126 -0.484810621 0
  outer loop
  vertex 0.0193240009 -0.00531300018 0.00146299996
  vertex 0.0191309992 -0.00566100003 -0.00286999997
  vertex 0.0193889998 -0.00519500021 -0
  endloop
 endfacet

 facet normal 0.874619126 -0.484810621 0
  outer loop
  vertex 0.0191309992 -0.00566100003 -0.00286999997
  vertex 0.0193240009 -0.00531300018 0.00146299996
  vertex 0.0191309992 -0.00566100003 0.00286999997
  endloop
 endfacet

 facet normal 0.874619126 -0.484810621 0
  outer loop
  vertex 0.0188170001 -0.00622700015 0.00416699983
  vertex 0.0191309992 -0.00566100003 -0.00286999997
  vertex 0.0191309992 -0.00566100003 0.00286999997
  endloop
 endfacet

 facet normal 0.874619126 -0.484810621 0
  outer loop
  vertex 0.0191309992 -0.00566100003 -0.00286999997
  vertex 0.0188170001 -0.00622700015 0.00416699983
  vertex 0.0183949992 -0.0069889999 0.0053030001
  endloop
 endfacet

 facet normal 0.874619126 -0.484810621 0
  outer loop
  vertex 0.0178810004 -0.00791599974 0.00623599999
  vertex 0.0191309992 -0.00566100003 -0.00286999997
  vertex 0.0183949992 -0.0069889999 0.0053030001
  endloop
 endfacet

 facet normal 0.874619126 -0.484810621 0
  outer loop
  vertex 0.0191309992 -0.00566100003 -0.00286999997
  vertex 0.0178810004 -0.00791599974 0.00623599999
  vertex 0.0172940008 -0.00897500012 0.00692899991
  endloop
 endfacet

 facet normal 0.874619126 -0.484810621 0
  outer loop
  vertex 0.0166580006 -0.0101229995 0.00735600013
  vertex 0.0191309992 -0.00566100003 -0.00286999997
  vertex 0.0172940008 -0.00897500012 0.00692899991
  endloop
 endfacet

 facet normal 0.874619126 -0.484810621 0
  outer loop
  vertex 0.0191309992 -0.00566100003 -0.00286999997
  vertex 0.0166580006 -0.0101229995 0.00735600013
  vertex 0.0159949996 -0.011318 0.00749999983
  endloop
 endfacet

 facet normal 0.874619126 -0.484810621 0
  outer loop
  vertex 0.0153329996 -0.0125120003 0.00735600013
  vertex 0.0191309992 -0.00566100003 -0.00286999997
  vertex 0.0159949996 -0.011318 0.00749999983
  endloop
 endfacet

 facet normal 0.874619126 -0.484810621 0
  outer loop
  vertex 0.0191309992 -0.00566100003 -0.00286999997
  vertex 0.0153329996 -0.0125120003 0.00735600013
  vertex 0.0146970004 -0.0136609999 0.00692899991
  endloop
 endfacet

 facet normal 0.874619126 -0.484810621 0
  outer loop
  vertex 0.0141099999 -0.0147190001 0.00623599999
  vertex 0.0191309992 -0.00566100003 -0.00286999997
  vertex 0.0146970004 -0.0136609999 0.00692899991
  endloop
 endfacet

 facet normal 0.874619126 -0.484810621 0
  outer loop
  vertex 0.0191309992 -0.00566100003 -0.00286999997
  vertex 0.0141099999 -0.0147190001 0.00623599999
  vertex 0.0135960001 -0.0156469997 0.0053030001
  endloop
 endfacet

 facet normal 0.874619126 -0.484810621 0
  outer loop
  vertex 0.0131740002 -0.0164080001 0.00416699983
  vertex 0.0191309992 -0.00566100003 -0.00286999997
  vertex 0.0135960001 -0.0156469997 0.0053030001
  endloop
 endfacet

 facet normal 0.874619126 -0.484810621 0
  outer loop
  vertex 0.0191309992 -0.00566100003 -0.00286999997
  vertex 0.0131740002 -0.0164080001 0.00416699983
  vertex 0.0128600001 -0.0169740003 0.00286999997
  endloop
 endfacet

 facet normal 0.874619126 -0.484810621 0
  outer loop
  vertex 0.0126670003 -0.0173220001 0.00146299996
  vertex 0.0191309992 -0.00566100003 -0.00286999997
  vertex 0.0128600001 -0.0169740003 0.00286999997
  endloop
 endfacet

 facet normal 0.874619126 -0.484810621 0
  outer loop
  vertex 0.0191309992 -0.00566100003 -0.00286999997
  vertex 0.0126670003 -0.0173220001 0.00146299996
  vertex 0.0126019996 -0.0174400005 -0
  endloop
 endfacet

 facet normal 0.874619126 -0.484810621 0
  outer loop
  vertex 0.0126670003 -0.0173220001 -0.00146299996
  vertex 0.0191309992 -0.00566100003 -0.00286999997
  vertex 0.0126019996 -0.0174400005 -0
  endloop
 endfacet

 facet normal 0.874619126 -0.484810621 0
  outer loop
  vertex 0.0191309992 -0.00566100003 -0.00286999997
  vertex 0.0126670003 -0.0173220001 -0.00146299996
  vertex 0.0128600001 -0.0169740003 -0.00286999997
  endloop
 endfacet

 facet normal 0.874619126 -0.484810621 0
  outer loop
  vertex 0.0131740002 -0.0164080001 -0.00416699983
  vertex 0.0191309992 -0.00566100003 -0.00286999997
  vertex 0.0128600001 -0.0169740003 -0.00286999997
  endloop
 endfacet

 facet normal 0.874619126 -0.484810621 0
  outer loop
  vertex 0.0191309992 -0.00566100003 -0.00286999997
  vertex 0.0131740002 -0.0164080001 -0.00416699983
  vertex 0.0135960001 -0.0156469997 -0.0053030001
  endloop
 endfacet

 facet normal 0.874619126 -0.484810621 0
  outer loop
  vertex 0.0141099999 -0.0147190001 -0.00623599999
  vertex 0.0191309992 -0.00566100003 -0.00286999997
  vertex 0.0135960001 -0.0156469997 -0.0053030001
  endloop
 endfacet

 facet normal 0.874619126 -0.484810621 0
  outer loop
  vertex 0.0191309992 -0.00566100003 -0.00286999997
  vertex 0.0141099999 -0.0147190001 -0.00623599999
  vertex 0.0146970004 -0.0136609999 -0.00692899991
  endloop
 endfacet

 facet normal 0.874619126 -0.484810621 0
  outer loop
  vertex 0.0153329996 -0.0125120003 -0.00735600013
  vertex 0.0191309992 -0.00566100003 -0.00286999997
  vertex 0.0146970004 -0.0136609999 -0.00692899991
  endloop
 endfacet

 facet normal 0.874619126 -0.484810621 0
  outer loop
  vertex 0.0191309992 -0.00566100003 -0.00286999997
  vertex 0.0153329996 -0.0125120003 -0.00735600013
  vertex 0.0159949996 -0.011318 -0.00749999983
  endloop
 endfacet

 facet normal 0.874619126 -0.484810621 0
  outer loop
  vertex 0.0166580006 -0.0101229995 -0.00735600013
  vertex 0.0191309992 -0.00566100003 -0.00286999997
  vertex 0.0159949996 -0.011318 -0.00749999983
  endloop
 endfacet

 facet normal 0.874619126 -0.484810621 0
  outer loop
  vertex 0.0191309992 -0.00566100003 -0.00286999997
  vertex 0.0166580006 -0.0101229995 -0.00735600013
  vertex 0.0172940008 -0.00897500012 -0.00692899991
  endloop
 endfacet

 facet normal 0.874619126 -0.484810621 0
  outer loop
  vertex 0.0178810004 -0.00791599974 -0.00623599999
  vertex 0.0191309992 -0.00566100003 -0.00286999997
  vertex 0.0172940008 -0.00897500012 -0.00692899991
  endloop
 endfacet

 facet normal 0.874619126 -0.484810621 0
  outer loop
  vertex 0.0191309992 -0.00566100003 -0.00286999997
  vertex 0.0178810004 -0.00791599974 -0.00623599999
  vertex 0.0183949992 -0.0069889999 -0.0053030001
  endloop
 endfacet

 facet normal 0.874619126 -0.484810621 0
  outer loop
  vertex 0.0183949992 -0.0069889999 -0.0053030001
  vertex 0.0188170001 -0.00622700015 -0.00416699983
  vertex 0.0191309992 -0.00566100003 -0.00286999997
  endloop
 endfacet

 facet normal 0.466512531 0.841522574 0.272407293
  outer loop
  vertex -0.00185999996 0.00597399985 0.00286999997
  vertex 0.0191309992 -0.00566100003 0.00286999997
  vertex 0.0193240009 -0.00531300018 0.00146299996
  endloop
 endfacet

 facet normal 0.466512531 0.841522574 0.272407293
  outer loop
  vertex -0.00185999996 0.00597399985 0.00286999997
  vertex 0.0193240009 -0.00531300018 0.00146299996
  vertex -0.001667 0.00632200018 0.00146299996
  endloop
 endfacet

 facet normal 0.482815683 0.870928288 0.0915029794
  outer loop
  vertex -0.001667 0.00632200018 0.00146299996
  vertex 0.0193240009 -0.00531300018 0.00146299996
  vertex 0.0193889998 -0.00519500021 -0
  endloop
 endfacet

 facet normal 0.482815683 0.870928288 0.0915029794
  outer loop
  vertex -0.001667 0.00632200018 0.00146299996
  vertex 0.0193889998 -0.00519500021 -0
  vertex -0.00160199997 0.00644000014 0
  endloop
 endfacet

 facet normal -0.874619126 0.484810621 0
  outer loop
  vertex -0.001667 0.00632200018 0.00146299996
  vertex -0.00160199997 0.00644000014 0
  vertex -0.001667 0.00632200018 -0.00146299996
  endloop
 endfacet

 facet normal -0.874619126 0.484810621 0
  outer loop
  vertex -0.00185999996 0.00597399985 -0.00286999997
  vertex -0.001667 0.00632200018 0.00146299996
  vertex -0.001667 0.00632200018 -0.00146299996
  endloop
 endfacet

 facet normal -0.874619126 0.484810621 0
  outer loop
  vertex -0.001667 0.00632200018 0.00146299996
  vertex -0.00185999996 0.00597399985 -0.00286999997
  vertex -0.00217400002 0.0054080002 -0.00416699983
  endloop
 endfacet

 facet normal -0.874619126 0.484810621 0
  outer loop
  vertex -0.00259599998 0.00464700023 -0.0053030001
  vertex -0.001667 0.00632200018 0.00146299996
  vertex -0.00217400002 0.0054080002 -0.00416699983
  endloop
 endfacet

 facet normal -0.874619126 0.484810621 0
  outer loop
  vertex -0.001667 0.00632200018 0.00146299996
  vertex -0.00259599998 0.00464700023 -0.0053030001
  vertex -0.00310999993 0.00371899991 -0.00623599999
  endloop
 endfacet

 facet normal -0.874619126 0.484810621 0
  outer loop
  vertex -0.00369699998 0.00266100001 -0.00692899991
  vertex -0.001667 0.00632200018 0.00146299996
  vertex -0.00310999993 0.00371899991 -0.00623599999
  endloop
 endfacet

 facet normal -0.874619126 0.484810621 0
  outer loop
  vertex -0.001667 0.00632200018 0.00146299996
  vertex -0.00369699998 0.00266100001 -0.00692899991
  vertex -0.00433300016 0.00151199999 -0.00735600013
  endloop
 endfacet

 facet normal -0.874619126 0.484810621 0
  outer loop
  vertex -0.00499500008 0.000318000006 -0.00749999983
  vertex -0.001667 0.00632200018 0.00146299996
  vertex -0.00433300016 0.00151199999 -0.00735600013
  endloop
 endfacet

 facet normal -0.874619126 0.484810621 0
  outer loop
  vertex -0.001667 0.00632200018 0.00146299996
  vertex -0.00499500008 0.000318000006 -0.00749999983
  vertex -0.00565799978 -0.000876999984 -0.00735600013
  endloop
 endfacet

 facet normal -0.874619126 0.484810621 0
  outer loop
  vertex -0.00629399996 -0.00202500005 -0.00692899991
  vertex -0.001667 0.00632200018 0.00146299996
  vertex -0.00565799978 -0.000876999984 -0.00735600013
  endloop
 endfacet

 facet normal -0.874619126 0.484810621 0
  outer loop
  vertex -0.001667 0.00632200018 0.00146299996
  vertex -0.00629399996 -0.00202500005 -0.00692899991
  vertex -0.00688100001 -0.00308399997 -0.00623599999
  endloop
 endfacet

 facet normal -0.874619126 0.484810621 0
  outer loop
  vertex -0.0073950002 -0.00401100004 -0.0053030001
  vertex -0.001667 0.00632200018 0.00146299996
  vertex -0.00688100001 -0.00308399997 -0.00623599999
  endloop
 endfacet

 facet normal -0.874619126 0.484810621 0
  outer loop
  vertex -0.001667 0.00632200018 0.00146299996
  vertex -0.0073950002 -0.00401100004 -0.0053030001
  vertex -0.00781700015 -0.00477299979 -0.00416699983
  endloop
 endfacet

 facet normal -0.874619126 0.484810621 0
  outer loop
  vertex -0.00813100021 -0.00533899991 -0.00286999997
  vertex -0.001667 0.00632200018 0.00146299996
  vertex -0.00781700015 -0.00477299979 -0.00416699983
  endloop
 endfacet

 facet normal -0.874619126 0.484810621 0
  outer loop
  vertex -0.001667 0.00632200018 0.00146299996
  vertex -0.00813100021 -0.00533899991 -0.00286999997
  vertex -0.00832400005 -0.00568700023 -0.00146299996
  endloop
 endfacet

 facet normal -0.874619126 0.484810621 0
  outer loop
  vertex -0.00838899985 -0.0058050002 0
  vertex -0.001667 0.00632200018 0.00146299996
  vertex -0.00832400005 -0.00568700023 -0.00146299996
  endloop
 endfacet

 facet normal -0.874619126 0.484810621 0
  outer loop
  vertex -0.001667 0.00632200018 0.00146299996
  vertex -0.00838899985 -0.0058050002 0
  vertex -0.00832400005 -0.00568700023 0.00146299996
  endloop
 endfacet

 facet normal -0.874619126 0.484810621 0
  outer loop
  vertex -0.00813100021 -0.00533899991 0.00286999997
  vertex -0.001667 0.00632200018 0.00146299996
  vertex -0.00832400005 -0.00568700023 0.00146299996
  endloop
 endfacet

 facet normal -0.874619126 0.484810621 0
  outer loop
  vertex -0.001667 0.00632200018 0.00146299996
  vertex -0.00813100021 -0.00533899991 0.00286999997
  vertex -0.00781700015 -0.00477299979 0.00416699983
  endloop
 endfacet

 facet normal -0.874619126 0.484810621 0
  outer loop
  vertex -0.0073950002 -0.00401100004 0.0053030001
  vertex -0.001667 0.00632200018 0.00146299996
  vertex -0.00781700015 -0.00477299979 0.00416699983
  endloop
 endfacet

 facet normal -0.874619126 0.484810621 0
  outer loop
  vertex -0.001667 0.00632200018 0.00146299996
  vertex -0.0073950002 -0.00401100004 0.0053030001
  vertex -0.00688100001 -0.00308399997 0.00623599999
  endloop
 endfacet

 facet normal -0.874619126 0.484810621 0
  outer loop
  vertex -0.00629399996 -0.00202500005 0.00692899991
  vertex -0.001667 0.00632200018 0.00146299996
  vertex -0.00688100001 -0.00308399997 0.00623599999
  endloop
 endfacet

 facet normal -0.874619126 0.484810621 0
  outer loop
  vertex -0.001667 0.00632200018 0.00146299996
  vertex -0.00629399996 -0.00202500005 0.00692899991
  vertex -0.00565799978 -0.000876999984 0.00735600013
  endloop
 endfacet

 facet normal -0.874619126 0.484810621 0
  outer loop
  vertex -0.00499500008 0.000318000006 0.00749999983
  vertex -0.001667 0.00632200018 0.00146299996
  vertex -0.00565799978 -0.000876999984 0.00735600013
  endloop
 endfacet

 facet normal -0.874619126 0.484810621 0
  outer loop
  vertex -0.001667 0.00632200018 0.00146299996
  vertex -0.00499500008 0.000318000006 0.00749999983
  vertex -0.00433300016 0.00151199999 0.00735600013
  endloop
 endfacet

 facet normal -0.874619126 0.484810621 0
  outer loop
  vertex -0.00369699998 0.00266100001 0.00692899991
  vertex -0.001667 0.00632200018 0.00146299996
  vertex -0.00433300016 0.00151199999 0.00735600013
  endloop
 endfacet

 facet normal -0.874619126 0.484810621 0
  outer loop
  vertex -0.001667 0.00632200018 0.00146299996
  vertex -0.00369699998 0.00266100001 0.00692899991
  vertex -0.00310999993 0.00371899991 0.00623599999
  endloop
 endfacet

 facet normal -0.874619126 0.484810621 0
  outer loop
  vertex -0.00259599998 0.00464700023 0.0053030001
  vertex -0.001667 0.00632200018 0.00146299996
  vertex -0.00310999993 0.00371899991 0.00623599999
  endloop
 endfacet

 facet normal -0.874619126 0.484810621 0
  outer loop
  vertex -0.001667 0.00632200018 0.00146299996
  vertex -0.00259599998 0.00464700023 0.0053030001
  vertex -0.00217400002 0.0054080002 0.00416699983
  endloop
 endfacet

 facet normal -0.874619126 0.484810621 0
  outer loop
  vertex -0.00217400002 0.0054080002 0.00416699983
  vertex -0.00185999996 0.00597399985 0.00286999997
  vertex -0.001667 0.00632200018 0.00146299996
  endloop
 endfacet

 facet normal 0.274309874 0.956634462 -0.0980035216
  outer loop
  vertex 0.0172390006 -0.00506599993 0
  vertex 0.0326200016 -0.00947600044 -0
  vertex 0.0325819999 -0.00960600004 -0.00136600004
  endloop
 endfacet

 facet normal 0.274309874 0.956634462 -0.0980035216
  outer loop
  vertex 0.0172390006 -0.00506599993 0
  vertex 0.0325819999 -0.00960600004 -0.00136600004
  vertex 0.0172019992 -0.00519500021 -0.00136600004
  endloop
 endfacet

 facet normal 0.263789356 0.919862926 -0.290288329
  outer loop
  vertex 0.0172019992 -0.00519500021 -0.00136600004
  vertex 0.0325819999 -0.00960600004 -0.00136600004
  vertex 0.0324730016 -0.00998799969 -0.00267899991
  endloop
 endfacet

 facet normal 0.263789356 0.919862926 -0.290288329
  outer loop
  vertex 0.0172019992 -0.00519500021 -0.00136600004
  vertex 0.0324730016 -0.00998799969 -0.00267899991
  vertex 0.0170920007 -0.0055780001 -0.00267899991
  endloop
 endfacet

 facet normal 0.243090227 0.847765923 -0.471381038
  outer loop
  vertex 0.0170920007 -0.0055780001 -0.00267899991
  vertex 0.0324730016 -0.00998799969 -0.00267899991
  vertex 0.0322940014 -0.0106100002 -0.00388900004
  endloop
 endfacet

 facet normal 0.243090227 0.847765923 -0.471381038
  outer loop
  vertex 0.0170920007 -0.0055780001 -0.00267899991
  vertex 0.0322940014 -0.0106100002 -0.00388900004
  vertex 0.0169140007 -0.00620000018 -0.00388900004
  endloop
 endfacet

 facet normal 0.213092253 0.743072987 -0.634376943
  outer loop
  vertex 0.0169140007 -0.00620000018 -0.00388900004
  vertex 0.0322940014 -0.0106100002 -0.00388900004
  vertex 0.0320539996 -0.0114470003 -0.00494999997
  endloop
 endfacet

 facet normal 0.213092253 0.743072987 -0.634376943
  outer loop
  vertex 0.0169140007 -0.00620000018 -0.00388900004
  vertex 0.0320539996 -0.0114470003 -0.00494999997
  vertex 0.0166740008 -0.0070369998 -0.00494999997
  endloop
 endfacet

 facet normal 0.174902171 0.609807551 -0.773009658
  outer loop
  vertex 0.0166740008 -0.0070369998 -0.00494999997
  vertex 0.0320539996 -0.0114470003 -0.00494999997
  vertex 0.0317620002 -0.0124669997 -0.00582000008
  endloop
 endfacet

 facet normal 0.174902171 0.609807551 -0.773009658
  outer loop
  vertex 0.0166740008 -0.0070369998 -0.00494999997
  vertex 0.0317620002 -0.0124669997 -0.00582000008
  vertex 0.0163819995 -0.00805700012 -0.00582000008
  endloop
 endfacet

 facet normal 0.12990512 0.453117877 -0.881934762
  outer loop
  vertex 0.0163819995 -0.00805700012 -0.00582000008
  vertex 0.0317620002 -0.0124669997 -0.00582000008
  vertex 0.0314280018 -0.0136299999 -0.00646700012
  endloop
 endfacet

 facet normal 0.12990512 0.453117877 -0.881934762
  outer loop
  vertex 0.0163819995 -0.00805700012 -0.00582000008
  vertex 0.0314280018 -0.0136299999 -0.00646700012
  vertex 0.0160479993 -0.00922000036 -0.00646700012
  endloop
 endfacet

 facet normal 0.0800040588 0.27901417 -0.956948519
  outer loop
  vertex 0.0160479993 -0.00922000036 -0.00646700012
  vertex 0.0314280018 -0.0136299999 -0.00646700012
  vertex 0.0310670007 -0.0148919998 -0.00686499989
  endloop
 endfacet

 facet normal 0.0800040588 0.27901417 -0.956948519
  outer loop
  vertex 0.0160479993 -0.00922000036 -0.00646700012
  vertex 0.0310670007 -0.0148919998 -0.00686499989
  vertex 0.0156859998 -0.0104820002 -0.00686499989
  endloop
 endfacet

 facet normal 0.0269996561 0.0941987932 -0.995187283
  outer loop
  vertex 0.0156859998 -0.0104820002 -0.00686499989
  vertex 0.0310670007 -0.0148919998 -0.00686499989
  vertex 0.0306899995 -0.0162049998 -0.00700000022
  endloop
 endfacet

 facet normal 0.0269996561 0.0941987932 -0.995187283
  outer loop
  vertex 0.0156859998 -0.0104820002 -0.00686499989
  vertex 0.0306899995 -0.0162049998 -0.00700000022
  vertex 0.0153099997 -0.0117950002 -0.00700000022
  endloop
 endfacet

 facet normal -0.0269996561 -0.0941987932 -0.995187283
  outer loop
  vertex 0.0153099997 -0.0117950002 -0.00700000022
  vertex 0.0306899995 -0.0162049998 -0.00700000022
  vertex 0.0303140003 -0.0175180007 -0.00686499989
  endloop
 endfacet

 facet normal -0.0269996561 -0.0941987932 -0.995187283
  outer loop
  vertex 0.0153099997 -0.0117950002 -0.00700000022
  vertex 0.0303140003 -0.0175180007 -0.00686499989
  vertex 0.0149330003 -0.0131080002 -0.00686499989
  endloop
 endfacet

 facet normal -0.0800040588 -0.27901417 -0.956948519
  outer loop
  vertex 0.0149330003 -0.0131080002 -0.00686499989
  vertex 0.0303140003 -0.0175180007 -0.00686499989
  vertex 0.0299520008 -0.0187800005 -0.00646700012
  endloop
 endfacet

 facet normal -0.0800040588 -0.27901417 -0.956948519
  outer loop
  vertex 0.0149330003 -0.0131080002 -0.00686499989
  vertex 0.0299520008 -0.0187800005 -0.00646700012
  vertex 0.0145720001 -0.01437 -0.00646700012
  endloop
 endfacet

 facet normal -0.12990512 -0.453117877 -0.881934762
  outer loop
  vertex 0.0145720001 -0.01437 -0.00646700012
  vertex 0.0299520008 -0.0187800005 -0.00646700012
  vertex 0.0296180006 -0.0199430007 -0.00582000008
  endloop
 endfacet

 facet normal -0.12990512 -0.453117877 -0.881934762
  outer loop
  vertex 0.0145720001 -0.01437 -0.00646700012
  vertex 0.0296180006 -0.0199430007 -0.00582000008
  vertex 0.0142379999 -0.0155330002 -0.00582000008
  endloop
 endfacet

 facet normal -0.174902171 -0.609807551 -0.773009658
  outer loop
  vertex 0.0142379999 -0.0155330002 -0.00582000008
  vertex 0.0296180006 -0.0199430007 -0.00582000008
  vertex 0.0293259993 -0.0209630001 -0.00494999997
  endloop
 endfacet

 facet normal -0.174902171 -0.609807551 -0.773009658
  outer loop
  vertex 0.0142379999 -0.0155330002 -0.00582000008
  vertex 0.0293259993 -0.0209630001 -0.00494999997
  vertex 0.0139459996 -0.0165529996 -0.00494999997
  endloop
 endfacet

 facet normal -0.213092253 -0.743072987 -0.634376943
  outer loop
  vertex 0.0139459996 -0.0165529996 -0.00494999997
  vertex 0.0293259993 -0.0209630001 -0.00494999997
  vertex 0.0290859994 -0.0218000002 -0.00388900004
  endloop
 endfacet

 facet normal -0.213092253 -0.743072987 -0.634376943
  outer loop
  vertex 0.0139459996 -0.0165529996 -0.00494999997
  vertex 0.0290859994 -0.0218000002 -0.00388900004
  vertex 0.0137059996 -0.0173899997 -0.00388900004
  endloop
 endfacet

 facet normal -0.243090227 -0.847765923 -0.471381038
  outer loop
  vertex 0.0137059996 -0.0173899997 -0.00388900004
  vertex 0.0290859994 -0.0218000002 -0.00388900004
  vertex 0.0289079994 -0.0224220008 -0.00267899991
  endloop
 endfacet

 facet normal -0.243090227 -0.847765923 -0.471381038
  outer loop
  vertex 0.0137059996 -0.0173899997 -0.00388900004
  vertex 0.0289079994 -0.0224220008 -0.00267899991
  vertex 0.0135270003 -0.0180120002 -0.00267899991
  endloop
 endfacet

 facet normal -0.263789356 -0.919862926 -0.290288329
  outer loop
  vertex 0.0135270003 -0.0180120002 -0.00267899991
  vertex 0.0289079994 -0.0224220008 -0.00267899991
  vertex 0.0287980009 -0.0228049997 -0.00136600004
  endloop
 endfacet

 facet normal -0.263789356 -0.919862926 -0.290288329
  outer loop
  vertex 0.0135270003 -0.0180120002 -0.00267899991
  vertex 0.0287980009 -0.0228049997 -0.00136600004
  vertex 0.0134180002 -0.0183940008 -0.00136600004
  endloop
 endfacet

 facet normal -0.274309874 -0.956634462 -0.0980035216
  outer loop
  vertex 0.0134180002 -0.0183940008 -0.00136600004
  vertex 0.0287980009 -0.0228049997 -0.00136600004
  vertex 0.0287609994 -0.0229339991 -0
  endloop
 endfacet

 facet normal -0.274309874 -0.956634462 -0.0980035216
  outer loop
  vertex 0.0134180002 -0.0183940008 -0.00136600004
  vertex 0.0287609994 -0.0229339991 -0
  vertex 0.0133800004 -0.0185240004 0
  endloop
 endfacet

 facet normal -0.274309874 -0.956634462 0.0980035216
  outer loop
  vertex 0.0133800004 -0.0185240004 0
  vertex 0.0287609994 -0.0229339991 -0
  vertex 0.0287980009 -0.0228049997 0.00136600004
  endloop
 endfacet

 facet normal -0.274309874 -0.956634462 0.0980035216
  outer loop
  vertex 0.0133800004 -0.0185240004 0
  vertex 0.0287980009 -0.0228049997 0.00136600004
  vertex 0.0134180002 -0.0183940008 0.00136600004
  endloop
 endfacet

 facet normal -0.263789356 -0.919862926 0.290288329
  outer loop
  vertex 0.0134180002 -0.0183940008 0.00136600004
  vertex 0.0287980009 -0.0228049997 0.00136600004
  vertex 0.0289079994 -0.0224220008 0.00267899991
  endloop
 endfacet

 facet normal -0.263789356 -0.919862926 0.290288329
  outer loop
  vertex 0.0134180002 -0.0183940008 0.00136600004
  vertex 0.0289079994 -0.0224220008 0.00267899991
  vertex 0.0135270003 -0.0180120002 0.00267899991
  endloop
 endfacet

 facet normal -0.243090227 -0.847765923 0.471381038
  outer loop
  vertex 0.0135270003 -0.0180120002 0.00267899991
  vertex 0.0289079994 -0.0224220008 0.00267899991
  vertex 0.0290859994 -0.0218000002 0.00388900004
  endloop
 endfacet

 facet normal -0.243090227 -0.847765923 0.471381038
  outer loop
  vertex 0.0135270003 -0.0180120002 0.00267899991
  vertex 0.0290859994 -0.0218000002 0.00388900004
  vertex 0.0137059996 -0.0173899997 0.00388900004
  endloop
 endfacet

 facet normal -0.213092253 -0.743072987 0.634376943
  outer loop
  vertex 0.0137059996 -0.0173899997 0.00388900004
  vertex 0.0290859994 -0.0218000002 0.00388900004
  vertex 0.0293259993 -0.0209630001 0.00494999997
  endloop
 endfacet

 facet normal -0.213092253 -0.743072987 0.634376943
  outer loop
  vertex 0.0137059996 -0.0173899997 0.00388900004
  vertex 0.0293259993 -0.0209630001 0.00494999997
  vertex 0.0139459996 -0.0165529996 0.00494999997
  endloop
 endfacet

 facet normal -0.174902171 -0.609807551 0.773009658
  outer loop
  vertex 0.0139459996 -0.0165529996 0.00494999997
  vertex 0.0293259993 -0.0209630001 0.00494999997
  vertex 0.0296180006 -0.0199430007 0.00582000008
  endloop
 endfacet

 facet normal -0.174902171 -0.609807551 0.773009658
  outer loop
  vertex 0.0139459996 -0.0165529996 0.00494999997
  vertex 0.0296180006 -0.0199430007 0.00582000008
  vertex 0.0142379999 -0.0155330002 0.00582000008
  endloop
 endfacet

 facet normal -0.12990512 -0.453117877 0.881934762
  outer loop
  vertex 0.0142379999 -0.0155330002 0.00582000008
  vertex 0.0296180006 -0.0199430007 0.00582000008
  vertex 0.0299520008 -0.0187800005 0.00646700012
  endloop
 endfacet

 facet normal -0.12990512 -0.453117877 0.881934762
  outer loop
  vertex 0.0142379999 -0.0155330002 0.00582000008
  vertex 0.0299520008 -0.0187800005 0.00646700012
  vertex 0.0145720001 -0.01437 0.00646700012
  endloop
 endfacet

 facet normal -0.0800040588 -0.27901417 0.956948519
  outer loop
  vertex 0.0145720001 -0.01437 0.00646700012
  vertex 0.0299520008 -0.0187800005 0.00646700012
  vertex 0.0303140003 -0.0175180007 0.00686499989
  endloop
 endfacet

 facet normal -0.0800040588 -0.27901417 0.956948519
  outer loop
  vertex 0.0145720001 -0.01437 0.00646700012
  vertex 0.0303140003 -0.0175180007 0.00686499989
  vertex 0.0149330003 -0.0131080002 0.00686499989
  endloop
 endfacet

 facet normal -0.0269996561 -0.0941987932 0.995187283
  outer loop
  vertex 0.0149330003 -0.0131080002 0.00686499989
  vertex 0.0303140003 -0.0175180007 0.00686499989
  vertex 0.0306899995 -0.0162049998 0.00700000022
  endloop
 endfacet

 facet normal -0.0269996561 -0.0941987932 0.995187283
  outer loop
  vertex 0.0149330003 -0.0131080002 0.00686499989
  vertex 0.0306899995 -0.0162049998 0.00700000022
  vertex 0.0153099997 -0.0117950002 0.00700000022
  endloop
 endfacet

 facet normal 0.0269996561 0.0941987932 0.995187283
  outer loop
  vertex 0.0153099997 -0.0117950002 0.00700000022
  vertex 0.0306899995 -0.0162049998 0.00700000022
  vertex 0.0310670007 -0.0148919998 0.00686499989
  endloop
 endfacet

 facet normal 0.0269996561 0.0941987932 0.995187283
  outer loop
  vertex 0.0153099997 -0.0117950002 0.00700000022
  vertex 0.0310670007 -0.0148919998 0.00686499989
  vertex 0.0156859998 -0.0104820002 0.00686499989
  endloop
 endfacet

 facet normal 0.0800040588 0.27901417 0.956948519
  outer loop
  vertex 0.0156859998 -0.0104820002 0.00686499989
  vertex 0.0310670007 -0.0148919998 0.00686499989
  vertex 0.0314280018 -0.0136299999 0.00646700012
  endloop
 endfacet

 facet normal 0.0800040588 0.27901417 0.956948519
  outer loop
  vertex 0.0156859998 -0.0104820002 0.00686499989
  vertex 0.0314280018 -0.0136299999 0.00646700012
  vertex 0.0160479993 -0.00922000036 0.00646700012
  endloop
 endfacet

 facet normal 0.12990512 0.453117877 0.881934762
  outer loop
  vertex 0.0160479993 -0.00922000036 0.00646700012
  vertex 0.0314280018 -0.0136299999 0.00646700012
  vertex 0.0317620002 -0.0124669997 0.00582000008
  endloop
 endfacet

 facet normal 0.12990512 0.453117877 0.881934762
  outer loop
  vertex 0.0160479993 -0.00922000036 0.00646700012
  vertex 0.0317620002 -0.0124669997 0.00582000008
  vertex 0.0163819995 -0.00805700012 0.00582000008
  endloop
 endfacet

 facet normal 0.174902171 0.609807551 0.773009658
  outer loop
  vertex 0.0163819995 -0.00805700012 0.00582000008
  vertex 0.0317620002 -0.0124669997 0.00582000008
  vertex 0.0320539996 -0.0114470003 0.00494999997
  endloop
 endfacet

 facet normal 0.174902171 0.609807551 0.773009658
  outer loop
  vertex 0.0163819995 -0.00805700012 0.00582000008
  vertex 0.0320539996 -0.0114470003 0.00494999997
  vertex 0.0166740008 -0.0070369998 0.00494999997
  endloop
 endfacet

 facet normal 0.213092253 0.743072987 0.634376943
  outer loop
  vertex 0.0166740008 -0.0070369998 0.00494999997
  vertex 0.0320539996 -0.0114470003 0.00494999997
  vertex 0.0322940014 -0.0106100002 0.00388900004
  endloop
 endfacet

 facet normal 0.213092253 0.743072987 0.634376943
  outer loop
  vertex 0.0166740008 -0.0070369998 0.00494999997
  vertex 0.0322940014 -0.0106100002 0.00388900004
  vertex 0.0169140007 -0.00620000018 0.00388900004
  endloop
 endfacet

 facet normal 0.243090227 0.847765923 0.471381038
  outer loop
  vertex 0.0169140007 -0.00620000018 0.00388900004
  vertex 0.0322940014 -0.0106100002 0.00388900004
  vertex 0.0324730016 -0.00998799969 0.00267899991
  endloop
 endfacet

 facet normal 0.243090227 0.847765923 0.471381038
  outer loop
  vertex 0.0169140007 -0.00620000018 0.00388900004
  vertex 0.0324730016 -0.00998799969 0.00267899991
  vertex 0.0170920007 -0.0055780001 0.00267899991
  endloop
 endfacet

 facet normal 0.961274445 -0.275592655 0
  outer loop
  vertex 0.0324730016 -0.00998799969 -0.00267899991
  vertex 0.0325819999 -0.00960600004 -0.00136600004
  vertex 0.0326200016 -0.00947600044 -0
  endloop
 endfacet

 facet normal 0.961274445 -0.275592655 0
  outer loop
  vertex 0.0325819999 -0.00960600004 0.00136600004
  vertex 0.0324730016 -0.00998799969 -0.00267899991
  vertex 0.0326200016 -0.00947600044 -0
  endloop
 endfacet

 facet normal 0.961274445 -0.275592655 0
  outer loop
  vertex 0.0324730016 -0.00998799969 -0.00267899991
  vertex 0.0325819999 -0.00960600004 0.00136600004
  vertex 0.0324730016 -0.00998799969 0.00267899991
  endloop
 endfacet

 facet normal 0.961274445 -0.275592655 0
  outer loop
  vertex 0.0322940014 -0.0106100002 0.00388900004
  vertex 0.0324730016 -0.00998799969 -0.00267899991
  vertex 0.0324730016 -0.00998799969 0.00267899991
  endloop
 endfacet

 facet normal 0.961274445 -0.275592655 0
  outer loop
  vertex 0.0324730016 -0.00998799969 -0.00267899991
  vertex 0.0322940014 -0.0106100002 0.00388900004
  vertex 0.0320539996 -0.0114470003 0.00494999997
  endloop
 endfacet

 facet normal 0.961274445 -0.275592655 0
  outer loop
  vertex 0.0317620002 -0.0124669997 0.00582000008
  vertex 0.0324730016 -0.00998799969 -0.00267899991
  vertex 0.0320539996 -0.0114470003 0.00494999997
  endloop
 endfacet

 facet normal 0.961274445 -0.275592655 0
  outer loop
  vertex 0.0324730016 -0.00998799969 -0.00267899991
  vertex 0.0317620002 -0.0124669997 0.00582000008
  vertex 0.0314280018 -0.0136299999 0.00646700012
  endloop
 endfacet

 facet normal 0.961274445 -0.275592655 0
  outer loop
  vertex 0.0310670007 -0.0148919998 0.00686499989
  vertex 0.0324730016 -0.00998799969 -0.00267899991
  vertex 0.0314280018 -0.0136299999 0.00646700012
  endloop
 endfacet

 facet normal 0.961274445 -0.275592655 0
  outer loop
  vertex 0.0324730016 -0.00998799969 -0.00267899991
  vertex 0.0310670007 -0.0148919998 0.00686499989
  vertex 0.0306899995 -0.0162049998 0.00700000022
  endloop
 endfacet

 facet normal 0.961274445 -0.275592655 0
  outer loop
  vertex 0.0303140003 -0.0175180007 0.00686499989
  vertex 0.0324730016 -0.00998799969 -0.00267899991
  vertex 0.0306899995 -0.0162049998 0.00700000022
  endloop
 endfacet

 facet normal 0.961274445 -0.275592655 0
  outer loop
  vertex 0.0324730016 -0.00998799969 -0.00267899991
  vertex 0.0303140003 -0.0175180007 0.00686499989
  vertex 0.0299520008 -0.0187800005 0.00646700012
  endloop
 endfacet

 facet normal 0.961274445 -0.275592655 0
  outer loop
  vertex 0.0296180006 -0.0199430007 0.00582000008
  vertex 0.0324730016 -0.00998799969 -0.00267899991
  vertex 0.0299520008 -0.0187800005 0.00646700012
  endloop
 endfacet

 facet normal 0.961274445 -0.275592655 0
  outer loop
  vertex 0.0324730016 -0.00998799969 -0.00267899991
  vertex 0.0296180006 -0.0199430007 0.00582000008
  vertex 0.0293259993 -0.0209630001 0.00494999997
  endloop
 endfacet

 facet normal 0.961274445 -0.275592655 0
  outer loop
  vertex 0.0290859994 -0.0218000002 0.00388900004
  vertex 0.0324730016 -0.00998799969 -0.00267899991
  vertex 0.0293259993 -0.0209630001 0.00494999997
  endloop
 endfacet

 facet normal 0.961274445 -0.275592655 0
  outer loop
  vertex 0.0324730016 -0.00998799969 -0.00267899991
  vertex 0.0290859994 -0.0218000002 0.00388900004
  vertex 0.0289079994 -0.0224220008 0.00267899991
  endloop
 endfacet

 facet normal 0.961274445 -0.275592655 0
  outer loop
  vertex 0.0287980009 -0.0228049997 0.00136600004
  vertex 0.0324730016 -0.00998799969 -0.00267899991
  vertex 0.0289079994 -0.0224220008 0.00267899991
  endloop
 endfacet

 facet normal 0.961274445 -0.275592655 0
  outer loop
  vertex 0.0324730016 -0.00998799969 -0.00267899991
  vertex 0.0287980009 -0.0228049997 0.00136600004
  vertex 0.0287609994 -0.0229339991 -0
  endloop
 endfacet

 facet normal 0.961274445 -0.275592655 0
  outer loop
  vertex 0.0287980009 -0.0228049997 -0.00136600004
  vertex 0.0324730016 -0.00998799969 -0.00267899991
  vertex 0.0287609994 -0.0229339991 -0
  endloop
 endfacet

 facet normal 0.961274445 -0.275592655 0
  outer loop
  vertex 0.0324730016 -0.00998799969 -0.00267899991
  vertex 0.0287980009 -0.0228049997 -0.00136600004
  vertex 0.0289079994 -0.0224220008 -0.00267899991
  endloop
 endfacet

 facet normal 0.961274445 -0.275592655 0
  outer loop
  vertex 0.0290859994 -0.0218000002 -0.00388900004
  vertex 0.0324730016 -0.00998799969 -0.00267899991
  vertex 0.0289079994 -0.0224220008 -0.00267899991
  endloop
 endfacet

 facet normal 0.961274445 -0.275592655 0
  outer loop
  vertex 0.0324730016 -0.00998799969 -0.00267899991
  vertex 0.0290859994 -0.0218000002 -0.00388900004
  vertex 0.0293259993 -0.0209630001 -0.00494999997
  endloop
 endfacet

 facet normal 0.961274445 -0.275592655 0
  outer loop
  vertex 0.0296180006 -0.0199430007 -0.00582000008
  vertex 0.0324730016 -0.00998799969 -0.00267899991
  vertex 0.0293259993 -0.0209630001 -0.00494999997
  endloop
 endfacet

 facet normal 0.961274445 -0.275592655 0
  outer loop
  vertex 0.0324730016 -0.00998799969 -0.00267899991
  vertex 0.0296180006 -0.0199430007 -0.00582000008
  vertex 0.0299520008 -0.0187800005 -0.00646700012
  endloop
 endfacet

 facet normal 0.961274445 -0.275592655 0
  outer loop
  vertex 0.0303140003 -0.0175180007 -0.00686499989
  vertex 0.0324730016 -0.00998799969 -0.00267899991
  vertex 0.0299520008 -0.0187800005 -0.00646700012
  endloop
 endfacet

 facet normal 0.961274445 -0.275592655 0
  outer loop
  vertex 0.0324730016 -0.00998799969 -0.00267899991
  vertex 0.0303140003 -0.0175180007 -0.00686499989
  vertex 0.0306899995 -0.0162049998 -0.00700000022
  endloop
 endfacet

 facet normal 0.961274445 -0.275592655 0
  outer loop
  vertex 0.0310670007 -0.0148919998 -0.00686499989
  vertex 0.0324730016 -0.00998799969 -0.00267899991
  vertex 0.0306899995 -0.0162049998 -0.00700000022
  endloop
 endfacet

 facet normal 0.961274445 -0.275592655 0
  outer loop
  vertex 0.0324730016 -0.00998799969 -0.00267899991
  vertex 0.0310670007 -0.0148919998 -0.00686499989
  vertex 0.0314280018 -0.0136299999 -0.00646700012
  endloop
 endfacet

 facet normal 0.961274445 -0.275592655 0
  outer loop
  vertex 0.0317620002 -0.0124669997 -0.00582000008
  vertex 0.0324730016 -0.00998799969 -0.00267899991
  vertex 0.0314280018 -0.0136299999 -0.00646700012
  endloop
 endfacet

 facet normal 0.961274445 -0.275592655 0
  outer loop
  vertex 0.0324730016 -0.00998799969 -0.00267899991
  vertex 0.0317620002 -0.0124669997 -0.00582000008
  vertex 0.0320539996 -0.0114470003 -0.00494999997
  endloop
 endfacet

 facet normal 0.961274445 -0.275592655 0
  outer loop
  vertex 0.0320539996 -0.0114470003 -0.00494999997
  vertex 0.0322940014 -0.0106100002 -0.00388900004
  vertex 0.0324730016 -0.00998799969 -0.00267899991
  endloop
 endfacet

 facet normal 0.263789356 0.919862926 0.290288329
  outer loop
  vertex 0.0170920007 -0.0055780001 0.00267899991
  vertex 0.0324730016 -0.00998799969 0.00267899991
  vertex 0.0325819999 -0.00960600004 0.00136600004
  endloop
 endfacet

 facet normal 0.263789356 0.919862926 0.290288329
  outer loop
  vertex 0.0170920007 -0.0055780001 0.00267899991
  vertex 0.0325819999 -0.00960600004 0.00136600004
  vertex 0.0172019992 -0.00519500021 0.00136600004
  endloop
 endfacet

 facet normal 0.274309874 0.956634462 0.0980035216
  outer loop
  vertex 0.0172019992 -0.00519500021 0.00136600004
  vertex 0.0325819999 -0.00960600004 0.00136600004
  vertex 0.0326200016 -0.00947600044 -0
  endloop
 endfacet

 facet normal 0.274309874 0.956634462 0.0980035216
  outer loop
  vertex 0.0172019992 -0.00519500021 0.00136600004
  vertex 0.0326200016 -0.00947600044 -0
  vertex 0.0172390006 -0.00506599993 0
  endloop
 endfacet

 facet normal -0.961274445 0.275592655 0
  outer loop
  vertex 0.0172019992 -0.00519500021 0.00136600004
  vertex 0.0172390006 -0.00506599993 0
  vertex 0.0172019992 -0.00519500021 -0.00136600004
  endloop
 endfacet

 facet normal -0.961274445 0.275592655 0
  outer loop
  vertex 0.0170920007 -0.0055780001 -0.00267899991
  vertex 0.0172019992 -0.00519500021 0.00136600004
  vertex 0.0172019992 -0.00519500021 -0.00136600004
  endloop
 endfacet

 facet normal -0.961274445 0.275592655 0
  outer loop
  vertex 0.0172019992 -0.00519500021 0.00136600004
  vertex 0.0170920007 -0.0055780001 -0.00267899991
  vertex 0.0169140007 -0.00620000018 -0.00388900004
  endloop
 endfacet

 facet normal -0.961274445 0.275592655 0
  outer loop
  vertex 0.0166740008 -0.0070369998 -0.00494999997
  vertex 0.0172019992 -0.00519500021 0.00136600004
  vertex 0.0169140007 -0.00620000018 -0.00388900004
  endloop
 endfacet

 facet normal -0.961274445 0.275592655 0
  outer loop
  vertex 0.0172019992 -0.00519500021 0.00136600004
  vertex 0.0166740008 -0.0070369998 -0.00494999997
  vertex 0.0163819995 -0.00805700012 -0.00582000008
  endloop
 endfacet

 facet normal -0.961274445 0.275592655 0
  outer loop
  vertex 0.0160479993 -0.00922000036 -0.00646700012
  vertex 0.0172019992 -0.00519500021 0.00136600004
  vertex 0.0163819995 -0.00805700012 -0.00582000008
  endloop
 endfacet

 facet normal -0.961274445 0.275592655 0
  outer loop
  vertex 0.0172019992 -0.00519500021 0.00136600004
  vertex 0.0160479993 -0.00922000036 -0.00646700012
  vertex 0.0156859998 -0.0104820002 -0.00686499989
  endloop
 endfacet

 facet normal -0.961274445 0.275592655 0
  outer loop
  vertex 0.0153099997 -0.0117950002 -0.00700000022
  vertex 0.0172019992 -0.00519500021 0.00136600004
  vertex 0.0156859998 -0.0104820002 -0.00686499989
  endloop
 endfacet

 facet normal -0.961274445 0.275592655 0
  outer loop
  vertex 0.0172019992 -0.00519500021 0.00136600004
  vertex 0.0153099997 -0.0117950002 -0.00700000022
  vertex 0.0149330003 -0.0131080002 -0.00686499989
  endloop
 endfacet

 facet normal -0.961274445 0.275592655 0
  outer loop
  vertex 0.0145720001 -0.01437 -0.00646700012
  vertex 0.0172019992 -0.00519500021 0.00136600004
  vertex 0.0149330003 -0.0131080002 -0.00686499989
  endloop
 endfacet

 facet normal -0.961274445 0.275592655 0
  outer loop
  vertex 0.0172019992 -0.00519500021 0.00136600004
  vertex 0.0145720001 -0.01437 -0.00646700012
  vertex 0.0142379999 -0.0155330002 -0.00582000008
  endloop
 endfacet

 facet normal -0.961274445 0.275592655 0
  outer loop
  vertex 0.0139459996 -0.0165529996 -0.00494999997
  vertex 0.0172019992 -0.00519500021 0.00136600004
  vertex 0.0142379999 -0.0155330002 -0.00582000008
  endloop
 endfacet

 facet normal -0.961274445 0.275592655 0
  outer loop
  vertex 0.0172019992 -0.00519500021 0.00136600004
  vertex 0.0139459996 -0.0165529996 -0.00494999997
  vertex 0.0137059996 -0.0173899997 -0.00388900004
  endloop
 endfacet

 facet normal -0.961274445 0.275592655 0
  outer loop
  vertex 0.0135270003 -0.0180120002 -0.00267899991
  vertex 0.0172019992 -0.00519500021 0.00136600004
  vertex 0.0137059996 -0.0173899997 -0.00388900004
  endloop
 endfacet

 facet normal -0.961274445 0.275592655 0
  outer loop
  vertex 0.0172019992 -0.00519500021 0.00136600004
  vertex 0.0135270003 -0.0180120002 -0.00267899991
  vertex 0.0134180002 -0.0183940008 -0.00136600004
  endloop
 endfacet

 facet normal -0.961274445 0.275592655 0
  outer loop
  vertex 0.0133800004 -0.0185240004 0
  vertex 0.0172019992 -0.00519500021 0.00136600004
  vertex 0.0134180002 -0.0183940008 -0.00136600004
  endloop
 endfacet

 facet normal -0.961274445 0.275592655 0
  outer loop
  vertex 0.0172019992 -0.00519500021 0.00136600004
  vertex 0.0133800004 -0.0185240004 0
  vertex 0.0134180002 -0.0183940008 0.00136600004
  endloop
 endfacet

 facet normal -0.961274445 0.275592655 0
  outer loop
  vertex 0.0135270003 -0.0180120002 0.00267899991
  vertex 0.0172019992 -0.00519500021 0.00136600004
  vertex 0.0134180002 -0.0183940008 0.00136600004
  endloop
 endfacet

 facet normal -0.961274445 0.275592655 0
  outer loop
  vertex 0.0172019992 -0.00519500021 0.00136600004
  vertex 0.0135270003 -0.0180120002 0.00267899991
  vertex 0.0137059996 -0.0173899997 0.00388900004
  endloop
 endfacet

 facet normal -0.961274445 0.275592655 0
  outer loop
  vertex 0.0139459996 -0.0165529996 0.00494999997
  vertex 0.0172019992 -0.00519500021 0.00136600004
  vertex 0.0137059996 -0.0173899997 0.00388900004
  endloop
 endfacet

 facet normal -0.961274445 0.275592655 0
  outer loop
  vertex 0.0172019992 -0.00519500021 0.00136600004
  vertex 0.0139459996 -0.0165529996 0.00494999997
  vertex 0.0142379999 -0.0155330002 0.00582000008
  endloop
 endfacet

 facet normal -0.961274445 0.275592655 0
  outer loop
  vertex 0.0145720001 -0.01437 0.00646700012
  vertex 0.0172019992 -0.00519500021 0.00136600004
  vertex 0.0142379999 -0.0155330002 0.00582000008
  endloop
 endfacet

 facet normal -0.961274445 0.275592655 0
  outer loop
  vertex 0.0172019992 -0.00519500021 0.00136600004
  vertex 0.0145720001 -0.01437 0.00646700012
  vertex 0.0149330003 -0.0131080002 0.00686499989
  endloop
 endfacet

 facet normal -0.961274445 0.275592655 0
  outer loop
  vertex 0.0153099997 -0.0117950002 0.00700000022
  vertex 0.0172019992 -0.00519500021 0.00136600004
  vertex 0.0149330003 -0.0131080002 0.00686499989
  endloop
 endfacet

 facet normal -0.961274445 0.275592655 0
  outer loop
  vertex 0.0172019992 -0.00519500021 0.00136600004
  vertex 0.0153099997 -0.0117950002 0.00700000022
  vertex 0.0156859998 -0.0104820002 0.00686499989
  endloop
 endfacet

 facet normal -0.961274445 0.275592655 0
  outer loop
  vertex 0.0160479993 -0.00922000036 0.00646700012
  vertex 0.0172019992 -0.00519500021 0.00136600004
  vertex 0.0156859998 -0.0104820002 0.00686499989
  endloop
 endfacet

 facet normal -0.961274445 0.275592655 0
  outer loop
  vertex 0.0172019992 -0.00519500021 0.00136600004
  vertex 0.0160479993 -0.00922000036 0.00646700012
  vertex 0.0163819995 -0.00805700012 0.00582000008
  endloop
 endfacet

 facet normal -0.961274445 0.275592655 0
  outer loop
  vertex 0.0166740008 -0.0070369998 0.00494999997
  vertex 0.0172019992 -0.00519500021 0.00136600004
  vertex 0.0163819995 -0.00805700012 0.00582000008
  endloop
 endfacet

 facet normal -0.961274445 0.275592655 0
  outer loop
  vertex 0.0172019992 -0.00519500021 0.00136600004
  vertex 0.0166740008 -0.0070369998 0.00494999997
  vertex 0.0169140007 -0.00620000018 0.00388900004
  endloop
 endfacet

 facet normal -0.961274445 0.275592655 0
  outer loop
  vertex 0.0169140007 -0.00620000018 0.00388900004
  vertex 0.0170920007 -0.0055780001 0.00267899991
  vertex 0.0172019992 -0.00519500021 0.00136600004
  endloop
 endfacet

 facet normal 0.590405107 0.807107031 0
  outer loop
  vertex 0.0112500004 0.00326299993 -0.00650000013
  vertex 0.0112500004 0.00326299993 0.00650000013
  vertex 0.012042 0.00268399995 0.00650000013
  endloop
 endfacet

 facet normal 0.590405107 0.807107031 0
  outer loop
  vertex 0.0112500004 0.00326299993 -0.00650000013
  vertex 0.012042 0.00268399995 0.00650000013
  vertex 0.012042 0.00268399995 -0.00650000013
  endloop
 endfacet

 facet normal 0.748423636 0.663220942 0
  outer loop
  vertex 0.012042 0.00268399995 -0.00650000013
  vertex 0.012042 0.00268399995 0.00650000013
  vertex 0.0126980003 0.00194400002 0.00650000013
  endloop
 endfacet

 facet normal 0.748423636 0.663220942 0
  outer loop
  vertex 0.012042 0.00268399995 -0.00650000013
  vertex 0.0126980003 0.00194400002 0.00650000013
  vertex 0.0126980003 0.00194400002 -0.00650000013
  endloop
 endfacet

 facet normal 0.869979322 0.493088245 0
  outer loop
  vertex 0.0126980003 0.00194400002 -0.00650000013
  vertex 0.0126980003 0.00194400002 0.00650000013
  vertex 0.0131919999 0.00107100001 0.00650000013
  endloop
 endfacet

 facet normal 0.869979322 0.493088245 0
  outer loop
  vertex 0.0126980003 0.00194400002 -0.00650000013
  vertex 0.0131919999 0.00107100001 0.00650000013
  vertex 0.0131919999 0.00107100001 -0.00650000013
  endloop
 endfacet

 facet normal 0.951455712 0.30778566 0
  outer loop
  vertex 0.0131919999 0.00107100001 -0.00650000013
  vertex 0.0131919999 0.00107100001 0.00650000013
  vertex 0.0135059999 9.99999975e-05 0.00650000013
  endloop
 endfacet

 facet normal 0.951455712 0.30778566 0
  outer loop
  vertex 0.0131919999 0.00107100001 -0.00650000013
  vertex 0.0135059999 9.99999975e-05 0.00650000013
  vertex 0.0135059999 9.99999975e-05 -0.00650000013
  endloop
 endfacet

 facet normal 0.993119836 0.11710234 0
  outer loop
  vertex 0.0135059999 9.99999975e-05 -0.00650000013
  vertex 0.0135059999 9.99999975e-05 0.00650000013
  vertex 0.0136280004 -0.000931999995 0.00650000013
  endloop
 endfacet

 facet normal 0.993119836 0.11710234 0
  outer loop
  vertex 0.0135059999 9.99999975e-05 -0.00650000013
  vertex 0.0136280004 -0.000931999995 0.00650000013
  vertex 0.0136280004 -0.000931999995 -0.00650000013
  endloop
 endfacet

 facet normal 0.997462332 -0.0711973086 0
  outer loop
  vertex 0.0136280004 -0.000931999995 -0.00650000013
  vertex 0.0136280004 -0.000931999995 0.00650000013
  vertex 0.0135530001 -0.001987 0.00650000013
  endloop
 endfacet

 facet normal 0.997462332 -0.0711973086 0
  outer loop
  vertex 0.0136280004 -0.000931999995 -0.00650000013
  vertex 0.0135530001 -0.001987 0.00650000013
  vertex 0.0135530001 -0.001987 -0.00650000013
  endloop
 endfacet

 facet normal 0.96778065 -0.251794964 0
  outer loop
  vertex 0.0135530001 -0.001987 -0.00650000013
  vertex 0.0135530001 -0.001987 0.00650000013
  vertex 0.0132830003 -0.00302299997 0.00650000013
  endloop
 endfacet

 facet normal 0.96778065 -0.251794964 0
  outer loop
  vertex 0.0135530001 -0.001987 -0.00650000013
  vertex 0.0132830003 -0.00302299997 0.00650000013
  vertex 0.0132830003 -0.00302299997 -0.00650000013
  endloop
 endfacet

 facet normal 0.907161653 -0.420782238 0
  outer loop
  vertex 0.0132830003 -0.00302299997 -0.00650000013
  vertex 0.0132830003 -0.00302299997 0.00650000013
  vertex 0.0128300004 -0.00400000019 0.00650000013
  endloop
 endfacet

 facet normal 0.907161653 -0.420782238 0
  outer loop
  vertex 0.0132830003 -0.00302299997 -0.00650000013
  vertex 0.0128300004 -0.00400000019 0.00650000013
  vertex 0.0128300004 -0.00400000019 -0.00650000013
  endloop
 endfacet

 facet normal 0.818008602 -0.575206041 0
  outer loop
  vertex 0.0128300004 -0.00400000019 -0.00650000013
  vertex 0.0128300004 -0.00400000019 0.00650000013
  vertex 0.0122100003 -0.00488100015 0.00650000013
  endloop
 endfacet

 facet normal 0.818008602 -0.575206041 0
  outer loop
  vertex 0.0128300004 -0.00400000019 -0.00650000013
  vertex 0.0122100003 -0.00488100015 0.00650000013
  vertex 0.0122100003 -0.00488100015 -0.00650000013
  endloop
 endfacet

 facet normal 0.701937735 -0.712238312 0
  outer loop
  vertex 0.0122100003 -0.00488100015 -0.00650000013
  vertex 0.0122100003 -0.00488100015 0.00650000013
  vertex 0.0114479996 -0.00563200004 0.00650000013
  endloop
 endfacet

 facet normal 0.701937735 -0.712238312 0
  outer loop
  vertex 0.0122100003 -0.00488100015 -0.00650000013
  vertex 0.0114479996 -0.00563200004 0.00650000013
  vertex 0.0114479996 -0.00563200004 -0.00650000013
  endloop
 endfacet

 facet normal 0.560410261 -0.828215182 0
  outer loop
  vertex 0.0114479996 -0.00563200004 -0.00650000013
  vertex 0.0114479996 -0.00563200004 0.00650000013
  vertex 0.0105729997 -0.00622500014 0.00650000013
  endloop
 endfacet

 facet normal 0.560410261 -0.828215182 0
  outer loop
  vertex 0.0114479996 -0.00563200004 -0.00650000013
  vertex 0.0105729997 -0.00622500014 0.00650000013
  vertex 0.0105729997 -0.00622500014 -0.00650000013
  endloop
 endfacet

 facet normal 0.395113856 -0.918632209 0
  outer loop
  vertex 0.0105729997 -0.00622500014 -0.00650000013
  vertex 0.0105729997 -0.00622500014 0.00650000013
  vertex 0.00961699989 -0.00663599977 0.00650000013
  endloop
 endfacet

 facet normal 0.395113856 -0.918632209 0
  outer loop
  vertex 0.0105729997 -0.00622500014 -0.00650000013
  vertex 0.00961699989 -0.00663599977 0.00650000013
  vertex 0.00961699989 -0.00663599977 -0.00650000013
  endloop
 endfacet

 facet normal 0.209194437 -0.9778741 0
  outer loop
  vertex 0.00961699989 -0.00663599977 -0.00650000013
  vertex 0.00961699989 -0.00663599977 0.00650000013
  vertex 0.0086190002 -0.00684900023 0.00650000013
  endloop
 endfacet

 facet normal 0.209194437 -0.9778741 0
  outer loop
  vertex 0.00961699989 -0.00663599977 -0.00650000013
  vertex 0.0086190002 -0.00684900023 0.00650000013
  vertex 0.0086190002 -0.00684900023 -0.00650000013
  endloop
 endfacet

 facet normal 0.00789975282 -0.999968767 0
  outer loop
  vertex 0.0086190002 -0.00684900023 -0.00650000013
  vertex 0.0086190002 -0.00684900023 0.00650000013
  vertex 0.00761599978 -0.00685699983 0.00650000013
  endloop
 endfacet

 facet normal 0.00789975282 -0.999968767 0
  outer loop
  vertex 0.0086190002 -0.00684900023 -0.00650000013
  vertex 0.00761599978 -0.00685699983 0.00650000013
  vertex 0.00761599978 -0.00685699983 -0.00650000013
  endloop
 endfacet

 facet normal -0.200191185 -0.979756832 0
  outer loop
  vertex 0.00761599978 -0.00685699983 -0.00650000013
  vertex 0.00761599978 -0.00685699983 0.00650000013
  vertex 0.00664799986 -0.00665900018 0.00650000013
  endloop
 endfacet

 facet normal -0.200191185 -0.979756832 0
  outer loop
  vertex 0.00761599978 -0.00685699983 -0.00650000013
  vertex 0.00664799986 -0.00665900018 0.00650000013
  vertex 0.00664799986 -0.00665900018 -0.00650000013
  endloop
 endfacet

 facet normal -0.403817475 -0.914839566 0
  outer loop
  vertex 0.00664799986 -0.00665900018 -0.00650000013
  vertex 0.00664799986 -0.00665900018 0.00650000013
  vertex 0.00575000001 -0.00626299996 0.00650000013
  endloop
 endfacet

 facet normal -0.403817475 -0.914839566 0
  outer loop
  vertex 0.00664799986 -0.00665900018 -0.00650000013
  vertex 0.00575000001 -0.00626299996 0.00650000013
  vertex 0.00575000001 -0.00626299996 -0.00650000013
  endloop
 endfacet

 facet normal -0.590405107 -0.807107031 0
  outer loop
  vertex 0.00575000001 -0.00626299996 -0.00650000013
  vertex 0.00575000001 -0.00626299996 0.00650000013
  vertex 0.00495800003 -0.00568399997 0.00650000013
  endloop
 endfacet

 facet normal -0.590405107 -0.807107031 0
  outer loop
  vertex 0.00575000001 -0.00626299996 -0.00650000013
  vertex 0.00495800003 -0.00568399997 0.00650000013
  vertex 0.00495800003 -0.00568399997 -0.00650000013
  endloop
 endfacet

 facet normal -0.748423636 -0.663220942 0
  outer loop
  vertex 0.00495800003 -0.00568399997 -0.00650000013
  vertex 0.00495800003 -0.00568399997 0.00650000013
  vertex 0.00430200016 -0.00494399993 0.00650000013
  endloop
 endfacet

 facet normal -0.748423636 -0.663220942 0
  outer loop
  vertex 0.00495800003 -0.00568399997 -0.00650000013
  vertex 0.00430200016 -0.00494399993 0.00650000013
  vertex 0.00430200016 -0.00494399993 -0.00650000013
  endloop
 endfacet

 facet normal -0.869979322 -0.493088245 0
  outer loop
  vertex 0.00430200016 -0.00494399993 -0.00650000013
  vertex 0.00430200016 -0.00494399993 0.00650000013
  vertex 0.00380799989 -0.00407100003 0.00650000013
  endloop
 endfacet

 facet normal -0.869979322 -0.493088245 0
  outer loop
  vertex 0.00430200016 -0.00494399993 -0.00650000013
  vertex 0.00380799989 -0.00407100003 0.00650000013
  vertex 0.00380799989 -0.00407100003 -0.00650000013
  endloop
 endfacet

 facet normal -0.951455712 -0.30778566 0
  outer loop
  vertex 0.00380799989 -0.00407100003 -0.00650000013
  vertex 0.00380799989 -0.00407100003 0.00650000013
  vertex 0.00349400006 -0.00310000009 0.00650000013
  endloop
 endfacet

 facet normal -0.951455712 -0.30778566 0
  outer loop
  vertex 0.00380799989 -0.00407100003 -0.00650000013
  vertex 0.00349400006 -0.00310000009 0.00650000013
  vertex 0.00349400006 -0.00310000009 -0.00650000013
  endloop
 endfacet

 facet normal -0.993119836 -0.11710234 0
  outer loop
  vertex 0.00349400006 -0.00310000009 -0.00650000013
  vertex 0.00349400006 -0.00310000009 0.00650000013
  vertex 0.00337200006 -0.00206799991 0.00650000013
  endloop
 endfacet

 facet normal -0.993119836 -0.11710234 0
  outer loop
  vertex 0.00349400006 -0.00310000009 -0.00650000013
  vertex 0.00337200006 -0.00206799991 0.00650000013
  vertex 0.00337200006 -0.00206799991 -0.00650000013
  endloop
 endfacet

 facet normal -0.997462332 0.0711973086 0
  outer loop
  vertex 0.00337200006 -0.00206799991 -0.00650000013
  vertex 0.00337200006 -0.00206799991 0.00650000013
  vertex 0.00344699994 -0.00101300003 0.00650000013
  endloop
 endfacet

 facet normal -0.997462332 0.0711973086 0
  outer loop
  vertex 0.00337200006 -0.00206799991 -0.00650000013
  vertex 0.00344699994 -0.00101300003 0.00650000013
  vertex 0.00344699994 -0.00101300003 -0.00650000013
  endloop
 endfacet

 facet normal -0.96778065 0.251794964 0
  outer loop
  vertex 0.00344699994 -0.00101300003 -0.00650000013
  vertex 0.00344699994 -0.00101300003 0.00650000013
  vertex 0.0037169999 2.30000005e-05 0.00650000013
  endloop
 endfacet

 facet normal -0.96778065 0.251794964 0
  outer loop
  vertex 0.00344699994 -0.00101300003 -0.00650000013
  vertex 0.0037169999 2.30000005e-05 0.00650000013
  vertex 0.0037169999 2.30000005e-05 -0.00650000013
  endloop
 endfacet

 facet normal -0.907161653 0.420782238 0
  outer loop
  vertex 0.0037169999 2.30000005e-05 -0.00650000013
  vertex 0.0037169999 2.30000005e-05 0.00650000013
  vertex 0.00417000009 0.00100000005 0.00650000013
  endloop
 endfacet

 facet normal -0.907161653 0.420782238 0
  outer loop
  vertex 0.0037169999 2.30000005e-05 -0.00650000013
  vertex 0.00417000009 0.00100000005 0.00650000013
  vertex 0.00417000009 0.00100000005 -0.00650000013
  endloop
 endfacet

 facet normal -0.818008602 0.575206041 0
  outer loop
  vertex 0.00417000009 0.00100000005 -0.00650000013
  vertex 0.00417000009 0.00100000005 0.00650000013
  vertex 0.00479000015 0.001881 0.00650000013
  endloop
 endfacet

 facet normal -0.818008602 0.575206041 0
  outer loop
  vertex 0.00417000009 0.00100000005 -0.00650000013
  vertex 0.00479000015 0.001881 0.00650000013
  vertex 0.00479000015 0.001881 -0.00650000013
  endloop
 endfacet

 facet normal -0.701937735 0.712238312 0
  outer loop
  vertex 0.00479000015 0.001881 -0.00650000013
  vertex 0.00479000015 0.001881 0.00650000013
  vertex 0.0055519999 0.00263200002 0.00650000013
  endloop
 endfacet

 facet normal -0.701937735 0.712238312 0
  outer loop
  vertex 0.00479000015 0.001881 -0.00650000013
  vertex 0.0055519999 0.00263200002 0.00650000013
  vertex 0.0055519999 0.00263200002 -0.00650000013
  endloop
 endfacet

 facet normal -0.560410261 0.828215182 0
  outer loop
  vertex 0.0055519999 0.00263200002 -0.00650000013
  vertex 0.0055519999 0.00263200002 0.00650000013
  vertex 0.00642699981 0.00322500011 0.00650000013
  endloop
 endfacet

 facet normal -0.560410261 0.828215182 0
  outer loop
  vertex 0.0055519999 0.00263200002 -0.00650000013
  vertex 0.00642699981 0.00322500011 0.00650000013
  vertex 0.00642699981 0.00322500011 -0.00650000013
  endloop
 endfacet

 facet normal -0.395113856 0.918632209 0
  outer loop
  vertex 0.00642699981 0.00322500011 -0.00650000013
  vertex 0.00642699981 0.00322500011 0.00650000013
  vertex 0.00738300011 0.00363599998 0.00650000013
  endloop
 endfacet

 facet normal -0.395113856 0.918632209 0
  outer loop
  vertex 0.00642699981 0.00322500011 -0.00650000013
  vertex 0.00738300011 0.00363599998 0.00650000013
  vertex 0.00738300011 0.00363599998 -0.00650000013
  endloop
 endfacet

 facet normal -0.209194437 0.9778741 0
  outer loop
  vertex 0.00738300011 0.00363599998 -0.00650000013
  vertex 0.00738300011 0.00363599998 0.00650000013
  vertex 0.00838099979 0.00384899997 0.00650000013
  endloop
 endfacet

 facet normal -0.209194437 0.9778741 0
  outer loop
  vertex 0.00738300011 0.00363599998 -0.00650000013
  vertex 0.00838099979 0.00384899997 0.00650000013
  vertex 0.00838099979 0.00384899997 -0.00650000013
  endloop
 endfacet

 facet normal -0.00789975282 0.999968767 0
  outer loop
  vertex 0.00838099979 0.00384899997 -0.00650000013
  vertex 0.00838099979 0.00384899997 0.00650000013
  vertex 0.00938399974 0.00385700003 0.00650000013
  endloop
 endfacet

 facet normal -0.00789975282 0.999968767 0
  outer loop
  vertex 0.00838099979 0.00384899997 -0.00650000013
  vertex 0.00938399974 0.00385700003 0.00650000013
  vertex 0.00938399974 0.00385700003 -0.00650000013
  endloop
 endfacet

 facet normal 0 0 1
  outer loop
  vertex 0.0126980003 0.00194400002 0.00650000013
  vertex 0.012042 0.00268399995 0.00650000013
  vertex 0.0112500004 0.00326299993 0.00650000013
  endloop
 endfacet

 facet normal 0 0 1
  outer loop
  vertex 0.0103519997 0.00365899992 0.00650000013
  vertex 0.0126980003 0.00194400002 0.00650000013
  vertex 0.0112500004 0.00326299993 0.00650000013
  endloop
 endfacet

 facet normal 0 0 1
  outer loop
  vertex 0.0126980003 0.00194400002 0.00650000013
  vertex 0.0103519997 0.00365899992 0.00650000013
  vertex 0.00938399974 0.00385700003 0.00650000013
  endloop
 endfacet

 facet normal 0 0 1
  outer loop
  vertex 0.00838099979 0.00384899997 0.00650000013
  vertex 0.0126980003 0.00194400002 0.00650000013
  vertex 0.00938399974 0.00385700003 0.00650000013
  endloop
 endfacet

 facet normal 0 0 1
  outer loop
  vertex 0.0126980003 0.00194400002 0.00650000013
  vertex 0.00838099979 0.00384899997 0.00650000013
  vertex 0.00738300011 0.00363599998 0.00650000013
  endloop
 endfacet

 facet normal 0 0 1
  outer loop
  vertex 0.00642699981 0.00322500011 0.00650000013
  vertex 0.0126980003 0.00194400002 0.00650000013
  vertex 0.00738300011 0.00363599998 0.00650000013
  endloop
 endfacet

 facet normal 0 0 1
  outer loop
  vertex 0.0126980003 0.00194400002 0.00650000013
  vertex 0.00642699981 0.00322500011 0.00650000013
  vertex 0.0055519999 0.00263200002 0.00650000013
  endloop
 endfacet

 facet normal 0 0 1
  outer loop
  vertex 0.00479000015 0.001881 0.00650000013
  vertex 0.0126980003 0.00194400002 0.00650000013
  vertex 0.0055519999 0.00263200002 0.00650000013
  endloop
 endfacet

 facet normal 0 0 1
  outer loop
  vertex 0.0126980003 0.00194400002 0.00650000013
  vertex 0.00479000015 0.001881 0.00650000013
  vertex 0.00417000009 0.00100000005 0.00650000013
  endloop
 endfacet

 facet normal 0 0 1
  outer loop
  vertex 0.0037169999 2.30000005e-05 0.00650000013
  vertex 0.0126980003 0.00194400002 0.00650000013
  vertex 0.00417000009 0.00100000005 0.00650000013
  endloop
 endfacet

 facet normal 0 0 1
  outer loop
  vertex 0.0126980003 0.00194400002 0.00650000013
  vertex 0.0037169999 2.30000005e-05 0.00650000013
  vertex 0.00344699994 -0.00101300003 0.00650000013
  endloop
 endfacet

 facet normal 0 0 1
  outer loop
  vertex 0.00337200006 -0.00206799991 0.00650000013
  vertex 0.0126980003 0.00194400002 0.00650000013
  vertex 0.00344699994 -0.00101300003 0.00650000013
  endloop
 endfacet

 facet normal 0 0 1
  outer loop
  vertex 0.0126980003 0.00194400002 0.00650000013
  vertex 0.00337200006 -0.00206799991 0.00650000013
  vertex 0.00349400006 -0.00310000009 0.00650000013
  endloop
 endfacet

 facet normal 0 0 1
  outer loop
  vertex 0.00380799989 -0.00407100003 0.00650000013
  vertex 0.0126980003 0.00194400002 0.00650000013
  vertex 0.00349400006 -0.00310000009 0.00650000013
  endloop
 endfacet

 facet normal 0 0 1
  outer loop
  vertex 0.0126980003 0.00194400002 0.00650000013
  vertex 0.00380799989 -0.00407100003 0.00650000013
  vertex 0.00430200016 -0.00494399993 0.00650000013
  endloop
 endfacet

 facet normal 0 0 1
  outer loop
  vertex 0.00495800003 -0.00568399997 0.00650000013
  vertex 0.0126980003 0.00194400002 0.00650000013
  vertex 0.00430200016 -0.00494399993 0.00650000013
  endloop
 endfacet

 facet normal 0 0 1
  outer loop
  vertex 0.0126980003 0.00194400002 0.00650000013
  vertex 0.00495800003 -0.00568399997 0.00650000013
  vertex 0.00575000001 -0.00626299996 0.00650000013
  endloop
 endfacet

 facet normal 0 0 1
  outer loop
  vertex 0.00664799986 -0.00665900018 0.00650000013
  vertex 0.0126980003 0.00194400002 0.00650000013
  vertex 0.00575000001 -0.00626299996 0.00650000013
  endloop
 endfacet

 facet normal 0 0 1
  outer loop
  vertex 0.0126980003 0.00194400002 0.00650000013
  vertex 0.00664799986 -0.00665900018 0.00650000013
  vertex 0.00761599978 -0.00685699983 0.00650000013
  endloop
 endfacet

 facet normal 0 0 1
  outer loop
  vertex 0.0086190002 -0.00684900023 0.00650000013
  vertex 0.0126980003 0.00194400002 0.00650000013
  vertex 0.00761599978 -0.00685699983 0.00650000013
  endloop
 endfacet

 facet normal 0 0 1
  outer loop
  vertex 0.0126980003 0.00194400002 0.00650000013
  vertex 0.0086190002 -0.00684900023 0.00650000013
  vertex 0.00961699989 -0.00663599977 0.00650000013
  endloop
 endfacet

 facet normal 0 0 1
  outer loop
  vertex 0.0105729997 -0.00622500014 0.00650000013
  vertex 0.0126980003 0.00194400002 0.00650000013
  vertex 0.00961699989 -0.00663599977 0.00650000013
  endloop
 endfacet

 facet normal 0 0 1
  outer loop
  vertex 0.0126980003 0.00194400002 0.00650000013
  vertex 0.0105729997 -0.00622500014 0.00650000013
  vertex 0.0114479996 -0.00563200004 0.00650000013
  endloop
 endfacet

 facet normal 0 0 1
  outer loop
  vertex 0.0122100003 -0.00488100015 0.00650000013
  vertex 0.0126980003 0.00194400002 0.00650000013
  vertex 0.0114479996 -0.00563200004 0.00650000013
  endloop
 endfacet

 facet normal 0 0 1
  outer loop
  vertex 0.0126980003 0.00194400002 0.00650000013
  vertex 0.0122100003 -0.00488100015 0.00650000013
  vertex 0.0128300004 -0.00400000019 0.00650000013
  endloop
 endfacet

 facet normal 0 0 1
  outer loop
  vertex 0.0132830003 -0.00302299997 0.00650000013
  vertex 0.0126980003 0.00194400002 0.00650000013
  vertex 0.0128300004 -0.00400000019 0.00650000013
  endloop
 endfacet

 facet normal 0 0 1
  outer loop
  vertex 0.0126980003 0.00194400002 0.00650000013
  vertex 0.0132830003 -0.00302299997 0.00650000013
  vertex 0.0135530001 -0.001987 0.00650000013
  endloop
 endfacet

 facet normal 0 0 1
  outer loop
  vertex 0.0136280004 -0.000931999995 0.00650000013
  vertex 0.0126980003 0.00194400002 0.00650000013
  vertex 0.0135530001 -0.001987 0.00650000013
  endloop
 endfacet

 facet normal 0 0 1
  outer loop
  vertex 0.0126980003 0.00194400002 0.00650000013
  vertex 0.0136280004 -0.000931999995 0.00650000013
  vertex 0.0135059999 9.99999975e-05 0.00650000013
  endloop
 endfacet

 facet normal 0 0 1
  outer loop
  vertex 0.0135059999 9.99999975e-05 0.00650000013
  vertex 0.0131919999 0.00107100001 0.00650000013
  vertex 0.0126980003 0.00194400002 0.00650000013
  endloop
 endfacet

 facet normal 0.200191185 0.979756832 0
  outer loop
  vertex 0.00938399974 0.00385700003 -0.00650000013
  vertex 0.00938399974 0.00385700003 0.00650000013
  vertex 0.0103519997 0.00365899992 0.00650000013
  endloop
 endfacet

 facet normal 0.200191185 0.979756832 0
  outer loop
  vertex 0.00938399974 0.00385700003 -0.00650000013
  vertex 0.0103519997 0.00365899992 0.00650000013
  vertex 0.0103519997 0.00365899992 -0.00650000013
  endloop
 endfacet

 facet normal 0.403817475 0.914839566 0
  outer loop
  vertex 0.0103519997 0.00365899992 -0.00650000013
  vertex 0.0103519997 0.00365899992 0.00650000013
  vertex 0.0112500004 0.00326299993 0.00650000013
  endloop
 endfacet

 facet normal 0.403817475 0.914839566 0
  outer loop
  vertex 0.0103519997 0.00365899992 -0.00650000013
  vertex 0.0112500004 0.00326299993 0.00650000013
  vertex 0.0112500004 0.00326299993 -0.00650000013
  endloop
 endfacet

 facet normal 0 0 -1
  outer loop
  vertex 0.0103519997 0.00365899992 -0.00650000013
  vertex 0.0112500004 0.00326299993 -0.00650000013
  vertex 0.012042 0.00268399995 -0.00650000013
  endloop
 endfacet

 facet normal 0 0 -1
  outer loop
  vertex 0.0126980003 0.00194400002 -0.00650000013
  vertex 0.0103519997 0.00365899992 -0.00650000013
  vertex 0.012042 0.00268399995 -0.00650000013
  endloop
 endfacet

 facet normal 0 0 -1
  outer loop
  vertex 0.0103519997 0.00365899992 -0.00650000013
  vertex 0.0126980003 0.00194400002 -0.00650000013
  vertex 0.0131919999 0.00107100001 -0.00650000013
  endloop
 endfacet

 facet normal 0 0 -1
  outer loop
  vertex 0.0135059999 9.99999975e-05 -0.00650000013
  vertex 0.0103519997 0.00365899992 -0.00650000013
  vertex 0.0131919999 0.00107100001 -0.00650000013
  endloop
 endfacet

 facet normal 0 0 -1
  outer loop
  vertex 0.0103519997 0.00365899992 -0.00650000013
  vertex 0.0135059999 9.99999975e-05 -0.00650000013
  vertex 0.0136280004 -0.000931999995 -0.00650000013
  endloop
 endfacet

 facet normal 0 0 -1
  outer loop
  vertex 0.0135530001 -0.001987 -0.00650000013
  vertex 0.0103519997 0.00365899992 -0.00650000013
  vertex 0.0136280004 -0.000931999995 -0.00650000013
  endloop
 endfacet

 facet normal 0 0 -1
  outer loop
  vertex 0.0103519997 0.00365899992 -0.00650000013
  vertex 0.0135530001 -0.001987 -0.00650000013
  vertex 0.0132830003 -0.00302299997 -0.00650000013
  endloop
 endfacet

 facet normal 0 0 -1
  outer loop
  vertex 0.0128300004 -0.00400000019 -0.00650000013
  vertex 0.0103519997 0.00365899992 -0.00650000013
  vertex 0.0132830003 -0.00302299997 -0.00650000013
  endloop
 endfacet

 facet normal 0 0 -1
  outer loop
  vertex 0.0103519997 0.00365899992 -0.00650000013
  vertex 0.0128300004 -0.00400000019 -0.00650000013
  vertex 0.0122100003 -0.00488100015 -0.00650000013
  endloop
 endfacet

 facet normal 0 0 -1
  outer loop
  vertex 0.0114479996 -0.00563200004 -0.00650000013
  vertex 0.0103519997 0.00365899992 -0.00650000013
  vertex 0.0122100003 -0.00488100015 -0.00650000013
  endloop
 endfacet

 facet normal 0 0 -1
  outer loop
  vertex 0.0103519997 0.00365899992 -0.00650000013
  vertex 0.0114479996 -0.00563200004 -0.00650000013
  vertex 0.0105729997 -0.00622500014 -0.00650000013
  endloop
 endfacet

 facet normal 0 0 -1
  outer loop
  vertex 0.00961699989 -0.00663599977 -0.00650000013
  vertex 0.0103519997 0.00365899992 -0.00650000013
  vertex 0.0105729997 -0.00622500014 -0.00650000013
  endloop
 endfacet

 facet normal 0 0 -1
  outer loop
  vertex 0.0103519997 0.00365899992 -0.00650000013
  vertex 0.00961699989 -0.00663599977 -0.00650000013
  vertex 0.0086190002 -0.00684900023 -0.00650000013
  endloop
 endfacet

 facet normal 0 0 -1
  outer loop
  vertex 0.00761599978 -0.00685699983 -0.00650000013
  vertex 0.0103519997 0.00365899992 -0.00650000013
  vertex 0.0086190002 -0.00684900023 -0.00650000013
  endloop
 endfacet

 facet normal 0 0 -1
  outer loop
  vertex 0.0103519997 0.00365899992 -0.00650000013
  vertex 0.00761599978 -0.00685699983 -0.00650000013
  vertex 0.00664799986 -0.00665900018 -0.00650000013
  endloop
 endfacet

 facet normal 0 0 -1
  outer loop
  vertex 0.00575000001 -0.00626299996 -0.00650000013
  vertex 0.0103519997 0.00365899992 -0.00650000013
  vertex 0.00664799986 -0.00665900018 -0.00650000013
  endloop
 endfacet

 facet normal 0 0 -1
  outer loop
  vertex 0.0103519997 0.00365899992 -0.00650000013
  vertex 0.00575000001 -0.00626299996 -0.00650000013
  vertex 0.00495800003 -0.00568399997 -0.00650000013
  endloop
 endfacet

 facet normal 0 0 -1
  outer loop
  vertex 0.00430200016 -0.00494399993 -0.00650000013
  vertex 0.0103519997 0.00365899992 -0.00650000013
  vertex 0.00495800003 -0.00568399997 -0.00650000013
  endloop
 endfacet

 facet normal 0 0 -1
  outer loop
  vertex 0.0103519997 0.00365899992 -0.00650000013
  vertex 0.00430200016 -0.00494399993 -0.00650000013
  vertex 0.00380799989 -0.00407100003 -0.00650000013
  endloop
 endfacet

 facet normal 0 0 -1
  outer loop
  vertex 0.00349400006 -0.00310000009 -0.00650000013
  vertex 0.0103519997 0.00365899992 -0.00650000013
  vertex 0.00380799989 -0.00407100003 -0.00650000013
  endloop
 endfacet

 facet normal 0 0 -1
  outer loop
  vertex 0.0103519997 0.00365899992 -0.00650000013
  vertex 0.00349400006 -0.00310000009 -0.00650000013
  vertex 0.00337200006 -0.00206799991 -0.00650000013
  endloop
 endfacet

 facet normal 0 0 -1
  outer loop
  vertex 0.00344699994 -0.00101300003 -0.00650000013
  vertex 0.0103519997 0.00365899992 -0.00650000013
  vertex 0.00337200006 -0.00206799991 -0.00650000013
  endloop
 endfacet

 facet normal 0 0 -1
  outer loop
  vertex 0.0103519997 0.00365899992 -0.00650000013
  vertex 0.00344699994 -0.00101300003 -0.00650000013
  vertex 0.0037169999 2.30000005e-05 -0.00650000013
  endloop
 endfacet

 facet normal 0 0 -1
  outer loop
  vertex 0.00417000009 0.00100000005 -0.00650000013
  vertex 0.0103519997 0.00365899992 -0.00650000013
  vertex 0.0037169999 2.30000005e-05 -0.00650000013
  endloop
 endfacet

 facet normal 0 0 -1
  outer loop
  vertex 0.0103519997 0.00365899992 -0.00650000013
  vertex 0.00417000009 0.00100000005 -0.00650000013
  vertex 0.00479000015 0.001881 -0.00650000013
  endloop
 endfacet

 facet normal 0 0 -1
  outer loop
  vertex 0.0055519999 0.00263200002 -0.00650000013
  vertex 0.0103519997 0.00365899992 -0.00650000013
  vertex 0.00479000015 0.001881 -0.00650000013
  endloop
 endfacet

 facet normal 0 0 -1
  outer loop
  vertex 0.0103519997 0.00365899992 -0.00650000013
  vertex 0.0055519999 0.00263200002 -0.00650000013
  vertex 0.00642699981 0.00322500011 -0.00650000013
  endloop
 endfacet

 facet normal 0 0 -1
  outer loop
  vertex 0.00738300011 0.00363599998 -0.00650000013
  vertex 0.0103519997 0.00365899992 -0.00650000013
  vertex 0.00642699981 0.00322500011 -0.00650000013
  endloop
 endfacet

 facet normal 0 0 -1
  outer loop
  vertex 0.0103519997 0.00365899992 -0.00650000013
  vertex 0.00738300011 0.00363599998 -0.00650000013
  vertex 0.00838099979 0.00384899997 -0.00650000013
  endloop
 endfacet

 facet normal 0 0 -1
  outer loop
  vertex 0.00838099979 0.00384899997 -0.00650000013
  vertex 0.00938399974 0.00385700003 -0.00650000013
  vertex 0.0103519997 0.00365899992 -0.00650000013
  endloop
 endfacet

endsolid AssimpScene
