solid AssimpScene
 facet normal 0.113158032 0.993577003 0
  outer loop
  vertex -6.14999999e-06 0.00499999989 0.0111381402
  vertex 0.00110510003 0.00487344014 0.0111381402
  vertex 0.00110510003 0.00487344014 -0.00326745003
  endloop
 endfacet

 facet normal 0.113158032 0.993577003 0
  outer loop
  vertex -6.14999999e-06 0.00499999989 0.0111381402
  vertex 0.00110510003 0.00487344014 -0.00326745003
  vertex -6.14999999e-06 0.00499999989 -0.00326745003
  endloop
 endfacet

 facet normal -0.113159046 0.993576944 0
  outer loop
  vertex -6.14999999e-06 0.00499999989 0.0111381402
  vertex -6.14999999e-06 0.00499999989 -0.00326745003
  vertex -0.00111739 0.00487344014 -0.00326745003
  endloop
 endfacet

 facet normal -0.113159046 0.993576944 0
  outer loop
  vertex -6.14999999e-06 0.00499999989 0.0111381402
  vertex -0.00111739 0.00487344014 -0.00326745003
  vertex -0.00111739 0.00487344014 0.0111381402
  endloop
 endfacet

 facet normal -0.0166966766 0.146602809 0.989054561
  outer loop
  vertex -6.14999999e-06 0.00499999989 0.0111381402
  vertex -0.00111739 0.00487344014 0.0111381402
  vertex -0.0172175094 -0.0195717495 0.0144897401
  endloop
 endfacet

 facet normal 0.0142720034 0.125314444 0.992014468
  outer loop
  vertex -6.14999999e-06 0.00499999989 0.0111381402
  vertex -0.0172175094 -0.0195717495 0.0144897401
  vertex 0.00110510003 0.00487344014 0.0111381402
  endloop
 endfacet

 facet normal 0.327693999 0.944783926 0
  outer loop
  vertex 0.00110510003 0.00487344014 0.0111381402
  vertex 0.00216096011 0.00450721988 0.0111381402
  vertex 0.00110510003 0.00487344014 -0.00326745003
  endloop
 endfacet

 facet normal 0.037494842 0.108102441 0.993432403
  outer loop
  vertex 0.00110510003 0.00487344014 0.0111381402
  vertex -0.0172175094 -0.0195717495 0.0144897401
  vertex 0.00216096011 0.00450721988 0.0111381402
  endloop
 endfacet

 facet normal 0.000737306429 0.00647387234 -0.99997884
  outer loop
  vertex -6.14999999e-06 0.00499999989 -0.00326745003
  vertex 0.00110510003 0.00487344014 -0.00326745003
  vertex -0.00961969979 -0.00117726997 -0.00331453001
  endloop
 endfacet

 facet normal -0.00105496566 0.00926297717 -0.999956548
  outer loop
  vertex -6.14999999e-06 0.00499999989 -0.00326745003
  vertex -0.00961969979 -0.00117726997 -0.00331453001
  vertex -0.00111739 0.00487344014 -0.00326745003
  endloop
 endfacet

 facet normal -0.33198604 0.943284273 0
  outer loop
  vertex -0.00111739 0.00487344014 0.0111381402
  vertex -0.00111739 0.00487344014 -0.00326745003
  vertex -0.00217326009 0.00450182986 -0.00326745003
  endloop
 endfacet

 facet normal -0.332940072 0.942948043 7.86015516e-05
  outer loop
  vertex -0.00111739 0.00487344014 0.0111381402
  vertex -0.00217326009 0.00450182986 -0.00326745003
  vertex -0.00227662991 0.00446412992 0.0111485999
  endloop
 endfacet

 facet normal -0.0505243018 0.168250874 0.984448552
  outer loop
  vertex -0.00111739 0.00487344014 0.0111381402
  vertex -0.00227662991 0.00446412992 0.0111485999
  vertex -0.0172175094 -0.0195717495 0.0144897401
  endloop
 endfacet

 facet normal -0.331822485 0.0204883199 0.943119407
  outer loop
  vertex -0.0172175094 -0.0195717495 0.0144897401
  vertex -0.0183065999 -0.01874776 0.0140886595
  vertex -0.0301094204 -0.0200618394 0.00996456016
  endloop
 endfacet

 facet normal -0.0902815759 -0.929399788 0.357862353
  outer loop
  vertex -0.0172175094 -0.0195717495 0.0144897401
  vertex -0.0301094204 -0.0200618394 0.00996456016
  vertex -0.0313535705 -0.0203203503 0.00897931028
  endloop
 endfacet

 facet normal -0.0673391148 -0.950947464 0.3019346
  outer loop
  vertex -0.0172175094 -0.0195717495 0.0144897401
  vertex -0.0313535705 -0.0203203503 0.00897931028
  vertex -0.032320831 -0.0206892602 0.00760169979
  endloop
 endfacet

 facet normal -0.0516596846 -0.961671352 0.269294471
  outer loop
  vertex -0.0172175094 -0.0195717495 0.0144897401
  vertex -0.032320831 -0.0206892602 0.00760169979
  vertex -0.0327158608 -0.0211631898 0.00583348004
  endloop
 endfacet

 facet normal -0.0424406491 -0.966364264 0.253651321
  outer loop
  vertex -0.0172175094 -0.0195717495 0.0144897401
  vertex -0.0327158608 -0.0211631898 0.00583348004
  vertex -0.0325091109 -0.0215590391 0.00435996009
  endloop
 endfacet

 facet normal -0.0362089165 -0.968911409 0.244743749
  outer loop
  vertex -0.0172175094 -0.0195717495 0.0144897401
  vertex -0.0325091109 -0.0215590391 0.00435996009
  vertex -0.0318335108 -0.0219468009 0.00292480993
  endloop
 endfacet

 facet normal -0.0282266028 -0.971538365 0.235194877
  outer loop
  vertex -0.0172175094 -0.0195717495 0.0144897401
  vertex -0.0318335108 -0.0219468009 0.00292480993
  vertex -0.0308219399 -0.0222214591 0.00191165996
  endloop
 endfacet

 facet normal -0.0169744659 -0.974521101 0.223653004
  outer loop
  vertex -0.0172175094 -0.0195717495 0.0144897401
  vertex -0.0308219399 -0.0222214591 0.00191165996
  vertex -0.0280198399 -0.0225095898 0.000868859992
  endloop
 endfacet

 facet normal -0.00802386738 -0.976159155 0.216907844
  outer loop
  vertex -0.0172175094 -0.0195717495 0.0144897401
  vertex -0.0280198399 -0.0225095898 0.000868859992
  vertex -0.0127688404 -0.0221622195 0.00299630989
  endloop
 endfacet

 facet normal 0.246036038 -0.92076236 0.302759051
  outer loop
  vertex -0.0172175094 -0.0195717495 0.0144897401
  vertex -0.0127688404 -0.0221622195 0.00299630989
  vertex -0.0142861903 -0.0193240196 0.0128610199
  endloop
 endfacet

 facet normal 0.340348661 -0.802210271 0.490531772
  outer loop
  vertex -0.0172175094 -0.0195717495 0.0144897401
  vertex -0.0142861903 -0.0193240196 0.0128610199
  vertex -0.0151168499 -0.01906012 0.0138689401
  endloop
 endfacet

 facet normal 0.352766842 -0.459034652 0.815378904
  outer loop
  vertex -0.0172175094 -0.0195717495 0.0144897401
  vertex -0.0151168499 -0.01906012 0.0138689401
  vertex -0.0159585904 -0.0189604908 0.0142892003
  endloop
 endfacet

 facet normal 0.167366967 -0.0213274043 0.98566401
  outer loop
  vertex -0.0172175094 -0.0195717495 0.0144897401
  vertex -0.0159585904 -0.0189604908 0.0142892003
  vertex 0.00487445993 -0.00110187999 0.0111381402
  endloop
 endfacet

 facet normal 0.165188581 -0.0186453499 0.986085773
  outer loop
  vertex -0.0172175094 -0.0195717495 0.0144897401
  vertex 0.00487445993 -0.00110187999 0.0111381402
  vertex 0.00499999011 1.02499998e-05 0.0111381402
  endloop
 endfacet

 facet normal 0.135559902 0.0157508068 0.990643919
  outer loop
  vertex -0.0172175094 -0.0195717495 0.0144897401
  vertex 0.00499999011 1.02499998e-05 0.0111381402
  vertex 0.00487077003 0.00112237001 0.0111381402
  endloop
 endfacet

 facet normal 0.113182768 0.039980337 0.99276948
  outer loop
  vertex -0.0172175094 -0.0195717495 0.0144897401
  vertex 0.00487077003 0.00112237001 0.0111381402
  vertex 0.00449790014 0.00217794999 0.0111381402
  endloop
 endfacet

 facet normal 0.0904501304 0.0628534555 0.993915677
  outer loop
  vertex -0.0172175094 -0.0195717495 0.0144897401
  vertex 0.00449790014 0.00217794999 0.0111381402
  vertex 0.00354171009 0.00355397002 0.0111381402
  endloop
 endfacet

 facet normal 0.0614117943 0.0889529437 0.994140863
  outer loop
  vertex -0.0172175094 -0.0195717495 0.0144897401
  vertex 0.00354171009 0.00355397002 0.0111381402
  vertex 0.00216096011 0.00450721988 0.0111381402
  endloop
 endfacet

 facet normal -0.171033487 0.239177093 0.955793858
  outer loop
  vertex -0.0172175094 -0.0195717495 0.0144897401
  vertex -0.00227662991 0.00446412992 0.0111485999
  vertex -0.0183065999 -0.01874776 0.0140886595
  endloop
 endfacet

 facet normal 0.568132639 0.82292068 0.00518786116
  outer loop
  vertex 0.00216096011 0.00450721988 0.0111381402
  vertex 0.00354171009 0.00355397002 0.0111381402
  vertex 0.00266305008 0.00425140001 -0.00326745003
  endloop
 endfacet

 facet normal 0.370802492 0.928704917 -0.00356840529
  outer loop
  vertex 0.00216096011 0.00450721988 0.0111381402
  vertex 0.00266305008 0.00425140001 -0.00326745003
  vertex 0.00110510003 0.00487344014 -0.00326745003
  endloop
 endfacet

 facet normal 0.00181919266 0.00455631595 -0.999988019
  outer loop
  vertex 0.00110510003 0.00487344014 -0.00326745003
  vertex 0.00266305008 0.00425140001 -0.00326745003
  vertex -0.00961969979 -0.00117726997 -0.00331453001
  endloop
 endfacet

 facet normal -0.00541713042 0.0153918965 -0.999866903
  outer loop
  vertex -0.00961969979 -0.00117726997 -0.00331453001
  vertex -0.00217326009 0.00450182986 -0.00326745003
  vertex -0.00111739 0.00487344014 -0.00326745003
  endloop
 endfacet

 facet normal 0.00257954048 0.00283601461 -0.999992609
  outer loop
  vertex -0.00961969979 -0.00117726997 -0.00331453001
  vertex 0.00266305008 0.00425140001 -0.00326745003
  vertex 0.00390351005 0.00312311994 -0.00326745003
  endloop
 endfacet

 facet normal 0.0029490483 0.00167406118 -0.999994218
  outer loop
  vertex -0.00961969979 -0.00117726997 -0.00331453001
  vertex 0.00390351005 0.00312311994 -0.00326745003
  vertex 0.00473047979 0.00166632002 -0.00326745003
  endloop
 endfacet

 facet normal 0.00313477195 0.000736815156 -0.999994874
  outer loop
  vertex -0.00961969979 -0.00117726997 -0.00331453001
  vertex 0.00473047979 0.00166632002 -0.00326745003
  vertex -0.00703541003 -0.01453353 -0.00331626995
  endloop
 endfacet

 facet normal 0.00177905418 0.000474499015 -0.999998391
  outer loop
  vertex -0.00961969979 -0.00117726997 -0.00331453001
  vertex -0.00703541003 -0.01453353 -0.00331626995
  vertex -0.0116797499 -0.0154975504 -0.00332498993
  endloop
 endfacet

 facet normal -0.00147669832 0.00094285683 -0.99999851
  outer loop
  vertex -0.00961969979 -0.00117726997 -0.00331453001
  vertex -0.0116797499 -0.0154975504 -0.00332498993
  vertex -0.0143969404 -0.00495795999 -0.00331104011
  endloop
 endfacet

 facet normal -0.0487939231 0.0607352182 -0.99696058
  outer loop
  vertex -0.00961969979 -0.00117726997 -0.00331453001
  vertex -0.0143969404 -0.00495795999 -0.00331104011
  vertex -0.0279939901 -0.00858245976 -0.0028663699
  endloop
 endfacet

 facet normal -0.0584945865 0.08494398 -0.994667351
  outer loop
  vertex -0.00961969979 -0.00117726997 -0.00331453001
  vertex -0.0279939901 -0.00858245976 -0.0028663699
  vertex -0.00217326009 0.00450182986 -0.00326745003
  endloop
 endfacet

 facet normal -0.139922112 0.246729806 -0.958929837
  outer loop
  vertex -0.00217326009 0.00450182986 -0.00326745003
  vertex -0.0279939901 -0.00858245976 -0.0028663699
  vertex -0.0290055592 -0.00853937026 -0.00270767999
  endloop
 endfacet

 facet normal -0.258454502 0.496193975 -0.828850269
  outer loop
  vertex -0.00217326009 0.00450182986 -0.00326745003
  vertex -0.0290055592 -0.00853937026 -0.00270767999
  vertex -0.0299654398 -0.00844512973 -0.00235194992
  endloop
 endfacet

 facet normal -0.323959053 0.646579981 -0.690640926
  outer loop
  vertex -0.00217326009 0.00450182986 -0.00326745003
  vertex -0.0299654398 -0.00844512973 -0.00235194992
  vertex -0.0308293309 -0.00830241013 -0.00181310996
  endloop
 endfacet

 facet normal -0.363309801 0.750369489 -0.552224219
  outer loop
  vertex -0.00217326009 0.00450182986 -0.00326745003
  vertex -0.0308293309 -0.00830241013 -0.00181310996
  vertex -0.0319184214 -0.00799812004 -0.000683119986
  endloop
 endfacet

 facet normal -0.384729952 0.833542585 -0.3964715
  outer loop
  vertex -0.00217326009 0.00450182986 -0.00326745003
  vertex -0.0319184214 -0.00799812004 -0.000683119986
  vertex -0.0325091109 -0.00764536997 0.000631699979
  endloop
 endfacet

 facet normal -0.387554109 0.870266914 -0.304035008
  outer loop
  vertex -0.00217326009 0.00450182986 -0.00326745003
  vertex -0.0325091109 -0.00764536997 0.000631699979
  vertex -0.032690011 -0.00738416007 0.00160998001
  endloop
 endfacet

 facet normal -0.384035796 0.898171842 -0.214018688
  outer loop
  vertex -0.00217326009 0.00450182986 -0.00326745003
  vertex -0.032690011 -0.00738416007 0.00160998001
  vertex -0.0325718783 -0.00697755022 0.00310441991
  endloop
 endfacet

 facet normal -0.367177546 0.926475942 -0.0826006383
  outer loop
  vertex -0.00217326009 0.00450182986 -0.00326745003
  vertex -0.0325718783 -0.00697755022 0.00310441991
  vertex -0.0319738016 -0.00661941012 0.00446284981
  endloop
 endfacet

 facet normal -0.349648654 0.936880946 -5.70726334e-05
  outer loop
  vertex -0.00217326009 0.00450182986 -0.00326745003
  vertex -0.0319738016 -0.00661941012 0.00446284981
  vertex -0.00227662991 0.00446412992 0.0111485999
  endloop
 endfacet

 facet normal -0.354852855 0.934533715 0.0269502401
  outer loop
  vertex -0.00227662991 0.00446412992 0.0111485999
  vertex -0.0319738016 -0.00661941012 0.00446284981
  vertex -0.0313535705 -0.00640668022 0.00525279017
  endloop
 endfacet

 facet normal -0.379889667 0.899846315 0.214384168
  outer loop
  vertex -0.00227662991 0.00446412992 0.0111485999
  vertex -0.0313535705 -0.00640668022 0.00525279017
  vertex -0.0305782799 -0.0062343399 0.00590323005
  endloop
 endfacet

 facet normal -0.385511845 0.772209406 0.505047917
  outer loop
  vertex -0.00227662991 0.00446412992 0.0111485999
  vertex -0.0305782799 -0.0062343399 0.00590323005
  vertex -0.0296811592 -0.00610239012 0.00638626982
  endloop
 endfacet

 facet normal -0.325458229 0.475808471 0.817118824
  outer loop
  vertex -0.00227662991 0.00446412992 0.0111485999
  vertex -0.0296811592 -0.00610239012 0.00638626982
  vertex -0.0183619801 -0.00541841984 0.0104964199
  endloop
 endfacet

 facet normal -0.249953002 0.347187132 0.903872013
  outer loop
  vertex -0.00227662991 0.00446412992 0.0111485999
  vertex -0.0183619801 -0.00541841984 0.0104964199
  vertex -0.0124993399 -0.0028683499 0.0111381402
  endloop
 endfacet

 facet normal -0.173830837 0.24098736 0.954833925
  outer loop
  vertex -0.00227662991 0.00446412992 0.0111485999
  vertex -0.0124993399 -0.0028683499 0.0111381402
  vertex -0.0183065999 -0.01874776 0.0140886595
  endloop
 endfacet

 facet normal -0.213492364 0.253388315 0.943512201
  outer loop
  vertex -0.0183065999 -0.01874776 0.0140886595
  vertex -0.0124993399 -0.0028683499 0.0111381402
  vertex -0.0183619801 -0.00541841984 0.0104964199
  endloop
 endfacet

 facet normal -0.343972534 0.243003666 0.906990707
  outer loop
  vertex -0.0183065999 -0.01874776 0.0140886595
  vertex -0.0183619801 -0.00541841984 0.0104964199
  vertex -0.0301094204 -0.0200618394 0.00996456016
  endloop
 endfacet

 facet normal -0.633482039 0.19820103 0.747941792
  outer loop
  vertex -0.0301094204 -0.0200618394 0.00996456016
  vertex -0.0305782799 -0.0062343399 0.00590323005
  vertex -0.0313535705 -0.0203203503 0.00897931028
  endloop
 endfacet

 facet normal -0.344017029 0.243040383 0.906964004
  outer loop
  vertex -0.0301094204 -0.0200618394 0.00996456016
  vertex -0.0183619801 -0.00541841984 0.0104964199
  vertex -0.0296811592 -0.00610239012 0.00638626982
  endloop
 endfacet

 facet normal -0.487380207 0.230819404 0.842129946
  outer loop
  vertex -0.0301094204 -0.0200618394 0.00996456016
  vertex -0.0296811592 -0.00610239012 0.00638626982
  vertex -0.0305782799 -0.0062343399 0.00590323005
  endloop
 endfacet

 facet normal -0.655466139 0.195386425 0.729512334
  outer loop
  vertex -0.0313535705 -0.0203203503 0.00897931028
  vertex -0.0305782799 -0.0062343399 0.00590323005
  vertex -0.0313535705 -0.00640668022 0.00525279017
  endloop
 endfacet

 facet normal -0.796870887 0.156301394 0.583580852
  outer loop
  vertex -0.0313535705 -0.0203203503 0.00897931028
  vertex -0.0313535705 -0.00640668022 0.00525279017
  vertex -0.0319738016 -0.00661941012 0.00446284981
  endloop
 endfacet

 facet normal -0.827600658 0.141587913 0.543166757
  outer loop
  vertex -0.0313535705 -0.0203203503 0.00897931028
  vertex -0.0319738016 -0.00661941012 0.00446284981
  vertex -0.032320831 -0.0206892602 0.00760169979
  endloop
 endfacet

 facet normal -0.920067489 0.106781945 0.376926392
  outer loop
  vertex -0.032320831 -0.0206892602 0.00760169979
  vertex -0.0319738016 -0.00661941012 0.00446284981
  vertex -0.0325718783 -0.00697755022 0.00310441991
  endloop
 endfacet

 facet normal -0.977486134 0.0493863598 0.205138788
  outer loop
  vertex -0.032320831 -0.0206892602 0.00760169979
  vertex -0.0325718783 -0.00697755022 0.00310441991
  vertex -0.0327158608 -0.0211631898 0.00583348004
  endloop
 endfacet

 facet normal -0.99709481 0.0240260269 0.0722814426
  outer loop
  vertex -0.0327158608 -0.0211631898 0.00583348004
  vertex -0.0325718783 -0.00697755022 0.00310441991
  vertex -0.032690011 -0.00738416007 0.00160998001
  endloop
 endfacet

 facet normal -0.990939438 -0.0376578309 -0.128922448
  outer loop
  vertex -0.0327158608 -0.0211631898 0.00583348004
  vertex -0.032690011 -0.00738416007 0.00160998001
  vertex -0.0325091109 -0.0215590391 0.00435996009
  endloop
 endfacet

 facet normal -0.984412909 -0.0455204174 -0.169879794
  outer loop
  vertex -0.0325091109 -0.0215590391 0.00435996009
  vertex -0.032690011 -0.00738416007 0.00160998001
  vertex -0.0325091109 -0.00764536997 0.000631699979
  endloop
 endfacet

 facet normal -0.917362392 -0.103026405 -0.384489059
  outer loop
  vertex -0.0325091109 -0.0215590391 0.00435996009
  vertex -0.0325091109 -0.00764536997 0.000631699979
  vertex -0.0319184214 -0.00799812004 -0.000683119986
  endloop
 endfacet

 facet normal -0.910396755 -0.108791947 -0.399176836
  outer loop
  vertex -0.0325091109 -0.0215590391 0.00435996009
  vertex -0.0319184214 -0.00799812004 -0.000683119986
  vertex -0.0318335108 -0.0219468009 0.00292480993
  endloop
 endfacet

 facet normal -0.732031107 -0.174774617 -0.658471227
  outer loop
  vertex -0.0318335108 -0.0219468009 0.00292480993
  vertex -0.0319184214 -0.00799812004 -0.000683119986
  vertex -0.0308293309 -0.00830241013 -0.00181310996
  endloop
 endfacet

 facet normal -0.720068634 -0.179735154 -0.670221269
  outer loop
  vertex -0.0318335108 -0.0219468009 0.00292480993
  vertex -0.0308293309 -0.00830241013 -0.00181310996
  vertex -0.0308219399 -0.0222214591 0.00191165996
  endloop
 endfacet

 facet normal -0.542173982 -0.21748285 -0.811633289
  outer loop
  vertex -0.0308219399 -0.0222214591 0.00191165996
  vertex -0.0308293309 -0.00830241013 -0.00181310996
  vertex -0.0299654398 -0.00844512973 -0.00235194992
  endloop
 endfacet

 facet normal -0.54101187 -0.217771083 -0.812331259
  outer loop
  vertex -0.0308219399 -0.0222214591 0.00191165996
  vertex -0.0299654398 -0.00844512973 -0.00235194992
  vertex -0.0299654398 -0.0223587994 0.00137804996
  endloop
 endfacet

 facet normal -0.0170463324 -0.974561572 0.223470986
  outer loop
  vertex -0.0308219399 -0.0222214591 0.00191165996
  vertex -0.0299654398 -0.0223587994 0.00137804996
  vertex -0.0280198399 -0.0225095898 0.000868859992
  endloop
 endfacet

 facet normal 0.00148916198 -0.988572538 0.15073894
  outer loop
  vertex -0.0280198399 -0.0225095898 0.000868859992
  vertex -0.0139945298 -0.0224153399 0.00134841003
  vertex -0.0127688404 -0.0221622195 0.00299630989
  endloop
 endfacet

 facet normal -0.0281271562 -0.98261416 0.183516249
  outer loop
  vertex -0.0280198399 -0.0225095898 0.000868859992
  vertex -0.0299654398 -0.0223587994 0.00137804996
  vertex -0.0290055592 -0.0224530399 0.00102057005
  endloop
 endfacet

 facet normal -0.16136907 -0.255432963 -0.953265011
  outer loop
  vertex -0.0280198399 -0.0225095898 0.000868859992
  vertex -0.0290055592 -0.0224530399 0.00102057005
  vertex -0.0290055592 -0.00853937026 -0.00270767999
  endloop
 endfacet

 facet normal -0.160448492 -0.25540942 -0.953426659
  outer loop
  vertex -0.0280198399 -0.0225095898 0.000868859992
  vertex -0.0290055592 -0.00853937026 -0.00270767999
  vertex -0.0279939901 -0.00858245976 -0.0028663699
  endloop
 endfacet

 facet normal -0.135589853 -0.256416321 -0.957008958
  outer loop
  vertex -0.0280198399 -0.0225095898 0.000868859992
  vertex -0.0279939901 -0.00858245976 -0.0028663699
  vertex -0.0116797499 -0.0154975504 -0.00332498993
  endloop
 endfacet

 facet normal 0.00714092422 -0.525482476 -0.850774467
  outer loop
  vertex -0.0280198399 -0.0225095898 0.000868859992
  vertex -0.0116797499 -0.0154975504 -0.00332498993
  vertex -0.0159807391 -0.0223318692 0.000860140019
  endloop
 endfacet

 facet normal 0.0142213125 -0.974387884 -0.224423692
  outer loop
  vertex -0.0280198399 -0.0225095898 0.000868859992
  vertex -0.0159807391 -0.0223318692 0.000860140019
  vertex -0.0139945298 -0.0224153399 0.00134841003
  endloop
 endfacet

 facet normal 0.684179068 -0.707136571 -0.178485632
  outer loop
  vertex -0.0127688404 -0.0221622195 0.00299630989
  vertex -0.0130789597 -0.0222241506 0.00205290993
  vertex -0.00638933992 -0.0145254601 -0.0028053401
  endloop
 endfacet

 facet normal 0.739223123 -0.66991961 -0.0689703003
  outer loop
  vertex -0.0127688404 -0.0221622195 0.00299630989
  vertex -0.00638933992 -0.0145254601 -0.0028053401
  vertex 0.00391458999 -0.00310800993 -0.00326745003
  endloop
 endfacet

 facet normal 0.752361476 -0.658750474 0
  outer loop
  vertex -0.0127688404 -0.0221622195 0.00299630989
  vertex 0.00391458999 -0.00310800993 -0.00326745003
  vertex 0.00391458999 -0.00310800993 0.0111381402
  endloop
 endfacet

 facet normal 0.740689337 -0.669971287 0.050177224
  outer loop
  vertex -0.0127688404 -0.0221622195 0.00299630989
  vertex 0.00391458999 -0.00310800993 0.0111381402
  vertex -0.0062822802 -0.0144096697 0.0107579902
  endloop
 endfacet

 facet normal 0.555258811 -0.772658765 0.307711214
  outer loop
  vertex -0.0127688404 -0.0221622195 0.00299630989
  vertex -0.0062822802 -0.0144096697 0.0107579902
  vertex -0.0142861903 -0.0193240196 0.0128610199
  endloop
 endfacet

 facet normal 0.20730263 -0.978269041 -0.00392544689
  outer loop
  vertex -0.0127688404 -0.0221622195 0.00299630989
  vertex -0.0139945298 -0.0224153399 0.00134841003
  vertex -0.0130789597 -0.0222241506 0.00205290993
  endloop
 endfacet

 facet normal 0.528423548 -0.606334388 0.594245076
  outer loop
  vertex -0.0142861903 -0.0193240196 0.0128610199
  vertex -0.0062822802 -0.0144096697 0.0107579902
  vertex -0.0151168499 -0.01906012 0.0138689401
  endloop
 endfacet

 facet normal 0.505200446 -0.479940236 0.717237711
  outer loop
  vertex -0.0151168499 -0.01906012 0.0138689401
  vertex -0.0062822802 -0.0144096697 0.0107579902
  vertex 0.00391458999 -0.00310800993 0.0111381402
  endloop
 endfacet

 facet normal 0.392458797 -0.320641905 0.862070084
  outer loop
  vertex -0.0151168499 -0.01906012 0.0138689401
  vertex 0.00391458999 -0.00310800993 0.0111381402
  vertex -0.0159585904 -0.0189604908 0.0142892003
  endloop
 endfacet

 facet normal 0.296391755 -0.185332045 0.936912
  outer loop
  vertex -0.0159585904 -0.0189604908 0.0142892003
  vertex 0.00391458999 -0.00310800993 0.0111381402
  vertex 0.00450896984 -0.00215744996 0.0111381402
  endloop
 endfacet

 facet normal 0.209731489 -0.072619319 0.975058615
  outer loop
  vertex -0.0159585904 -0.0189604908 0.0142892003
  vertex 0.00450896984 -0.00215744996 0.0111381402
  vertex 0.00487445993 -0.00110187999 0.0111381402
  endloop
 endfacet

 facet normal 0.944958329 -0.327190906 0
  outer loop
  vertex 0.00487445993 -0.00110187999 0.0111381402
  vertex 0.00450896984 -0.00215744996 0.0111381402
  vertex 0.00450896984 -0.00215744996 -0.00326745003
  endloop
 endfacet

 facet normal 0.944958329 -0.327190906 0
  outer loop
  vertex 0.00487445993 -0.00110187999 0.0111381402
  vertex 0.00450896984 -0.00215744996 -0.00326745003
  vertex 0.00487445993 -0.00110187999 -0.00326745003
  endloop
 endfacet

 facet normal 0.993690073 -0.112161428 0
  outer loop
  vertex 0.00487445993 -0.00110187999 0.0111381402
  vertex 0.00487445993 -0.00110187999 -0.00326745003
  vertex 0.00499999011 1.02499998e-05 -0.00326745003
  endloop
 endfacet

 facet normal 0.993690073 -0.112161428 0
  outer loop
  vertex 0.00487445993 -0.00110187999 0.0111381402
  vertex 0.00499999011 1.02499998e-05 -0.00326745003
  vertex 0.00499999011 1.02499998e-05 0.0111381402
  endloop
 endfacet

 facet normal 0.993317306 0.115416087 0
  outer loop
  vertex 0.00499999011 1.02499998e-05 0.0111381402
  vertex 0.00499999011 1.02499998e-05 -0.00326745003
  vertex 0.00487077003 0.00112237001 0.0111381402
  endloop
 endfacet

 facet normal 0.98700881 0.160626724 -0.00354687381
  outer loop
  vertex 0.00487077003 0.00112237001 0.0111381402
  vertex 0.00499999011 1.02499998e-05 -0.00326745003
  vertex 0.00473047979 0.00166632002 -0.00326745003
  endloop
 endfacet

 facet normal 0.94289732 0.333066225 0.00339396554
  outer loop
  vertex 0.00487077003 0.00112237001 0.0111381402
  vertex 0.00473047979 0.00166632002 -0.00326745003
  vertex 0.00449790014 0.00217794999 0.0111381402
  endloop
 endfacet

 facet normal 0.869645357 0.493664563 -0.00349251414
  outer loop
  vertex 0.00449790014 0.00217794999 0.0111381402
  vertex 0.00473047979 0.00166632002 -0.00326745003
  vertex 0.00390351005 0.00312311994 -0.00326745003
  endloop
 endfacet

 facet normal 0.821191251 0.570642114 0.00355735398
  outer loop
  vertex 0.00449790014 0.00217794999 0.0111381402
  vertex 0.00390351005 0.00312311994 -0.00326745003
  vertex 0.00354171009 0.00355397002 0.0111381402
  endloop
 endfacet

 facet normal 0.672855973 0.739755094 -0.00522604492
  outer loop
  vertex 0.00354171009 0.00355397002 0.0111381402
  vertex 0.00390351005 0.00312311994 -0.00326745003
  vertex 0.00266305008 0.00425140001 -0.00326745003
  endloop
 endfacet

 facet normal 0.00338971941 0.000551645993 -0.999994159
  outer loop
  vertex 0.00473047979 0.00166632002 -0.00326745003
  vertex 0.00499999011 1.02499998e-05 -0.00326745003
  vertex -0.00703541003 -0.01453353 -0.00331626995
  endloop
 endfacet

 facet normal 0.00469697174 -0.000530157064 -0.999988794
  outer loop
  vertex -0.00703541003 -0.01453353 -0.00331626995
  vertex 0.00499999011 1.02499998e-05 -0.00326745003
  vertex 0.00487445993 -0.00110187999 -0.00326745003
  endloop
 endfacet

 facet normal 0.00672510592 -0.00232856348 -0.999974668
  outer loop
  vertex -0.00703541003 -0.01453353 -0.00331626995
  vertex 0.00487445993 -0.00110187999 -0.00326745003
  vertex 0.00450896984 -0.00215744996 -0.00326745003
  endloop
 endfacet

 facet normal 0.0128267398 -0.00802049134 -0.999885559
  outer loop
  vertex -0.00703541003 -0.01453353 -0.00331626995
  vertex 0.00450896984 -0.00215744996 -0.00326745003
  vertex 0.00391458999 -0.00310800993 -0.00326745003
  endloop
 endfacet

 facet normal 0.536874294 -0.511663795 -0.670795262
  outer loop
  vertex -0.00703541003 -0.01453353 -0.00331626995
  vertex 0.00391458999 -0.00310800993 -0.00326745003
  vertex -0.00638933992 -0.0145254601 -0.0028053401
  endloop
 endfacet

 facet normal 0.440775484 -0.712378204 -0.546108365
  outer loop
  vertex -0.00703541003 -0.01453353 -0.00331626995
  vertex -0.00638933992 -0.0145254601 -0.0028053401
  vertex -0.0139945298 -0.0224153399 0.00134841003
  endloop
 endfacet

 facet normal 0.165676042 -0.606503427 -0.777627885
  outer loop
  vertex -0.00703541003 -0.01453353 -0.00331626995
  vertex -0.0139945298 -0.0224153399 0.00134841003
  vertex -0.0159807391 -0.0223318692 0.000860140019
  endloop
 endfacet

 facet normal 0.120338522 -0.572415709 -0.811085105
  outer loop
  vertex -0.00703541003 -0.01453353 -0.00331626995
  vertex -0.0159807391 -0.0223318692 0.000860140019
  vertex -0.0116797499 -0.0154975504 -0.00332498993
  endloop
 endfacet

 facet normal -0.0309151486 -0.00664726924 -0.999499917
  outer loop
  vertex -0.0116797499 -0.0154975504 -0.00332498993
  vertex -0.0279939901 -0.00858245976 -0.0028663699
  vertex -0.0143969404 -0.00495795999 -0.00331104011
  endloop
 endfacet

 facet normal -0.357974887 -0.241673082 -0.901913583
  outer loop
  vertex -0.0290055592 -0.00853937026 -0.00270767999
  vertex -0.0290055592 -0.0224530399 0.00102057005
  vertex -0.0299654398 -0.00844512973 -0.00235194992
  endloop
 endfacet

 facet normal -0.359407187 -0.241636381 -0.901353598
  outer loop
  vertex -0.0299654398 -0.00844512973 -0.00235194992
  vertex -0.0290055592 -0.0224530399 0.00102057005
  vertex -0.0299654398 -0.0223587994 0.00137804996
  endloop
 endfacet

 facet normal 0.506077647 -0.729803503 -0.459643751
  outer loop
  vertex -0.0139945298 -0.0224153399 0.00134841003
  vertex -0.00638933992 -0.0145254601 -0.0028053401
  vertex -0.0130789597 -0.0222241506 0.00205290993
  endloop
 endfacet

 facet normal 0.847886086 -0.530178368 0
  outer loop
  vertex 0.00391458999 -0.00310800993 -0.00326745003
  vertex 0.00450896984 -0.00215744996 -0.00326745003
  vertex 0.00450896984 -0.00215744996 0.0111381402
  endloop
 endfacet

 facet normal 0.847886086 -0.530178368 0
  outer loop
  vertex 0.00391458999 -0.00310800993 -0.00326745003
  vertex 0.00450896984 -0.00215744996 0.0111381402
  vertex 0.00391458999 -0.00310800993 0.0111381402
  endloop
 endfacet

endsolid AssimpScene
