solid AssimpScene
 facet normal 0.0979986787 0.995186567 0
  outer loop
  vertex 0 0.0450000018 0
  vertex 0 0.0450000018 0.0419999994
  vertex 0.00877899956 0.0441350006 0.0419999994
  endloop
 endfacet

 facet normal 0.0979986787 0.995186567 0
  outer loop
  vertex 0 0.0450000018 0
  vertex 0.00877899956 0.0441350006 0.0419999994
  vertex 0.00877899956 0.0441350006 0
  endloop
 endfacet

 facet normal 0.290309936 0.956932664 0
  outer loop
  vertex 0.00877899956 0.0441350006 0
  vertex 0.00877899956 0.0441350006 0.0419999994
  vertex 0.017221 0.0415749997 0.0419999994
  endloop
 endfacet

 facet normal 0.290309936 0.956932664 0
  outer loop
  vertex 0.00877899956 0.0441350006 0
  vertex 0.017221 0.0415749997 0.0419999994
  vertex 0.017221 0.0415749997 0
  endloop
 endfacet

 facet normal 0.471408129 0.881915212 0
  outer loop
  vertex 0.017221 0.0415749997 0
  vertex 0.017221 0.0415749997 0.0419999994
  vertex 0.0250010006 0.0374159999 0.0419999994
  endloop
 endfacet

 facet normal 0.471408129 0.881915212 0
  outer loop
  vertex 0.017221 0.0415749997 0
  vertex 0.0250010006 0.0374159999 0.0419999994
  vertex 0.0250010006 0.0374159999 0
  endloop
 endfacet

 facet normal 0.634402394 0.773002923 0
  outer loop
  vertex 0.0250010006 0.0374159999 0
  vertex 0.0250010006 0.0374159999 0.0419999994
  vertex 0.0318199992 0.0318199992 0.0419999994
  endloop
 endfacet

 facet normal 0.634402394 0.773002923 0
  outer loop
  vertex 0.0250010006 0.0374159999 0
  vertex 0.0318199992 0.0318199992 0.0419999994
  vertex 0.0318199992 0.0318199992 0
  endloop
 endfacet

 facet normal 0.773002923 0.634402394 0
  outer loop
  vertex 0.0318199992 0.0318199992 0
  vertex 0.0318199992 0.0318199992 0.0419999994
  vertex 0.0374159999 0.0250010006 0.0419999994
  endloop
 endfacet

 facet normal 0.773002923 0.634402394 0
  outer loop
  vertex 0.0318199992 0.0318199992 0
  vertex 0.0374159999 0.0250010006 0.0419999994
  vertex 0.0374159999 0.0250010006 0
  endloop
 endfacet

 facet normal 0.881915212 0.471408129 0
  outer loop
  vertex 0.0374159999 0.0250010006 0
  vertex 0.0374159999 0.0250010006 0.0419999994
  vertex 0.0415749997 0.017221 0.0419999994
  endloop
 endfacet

 facet normal 0.881915212 0.471408129 0
  outer loop
  vertex 0.0374159999 0.0250010006 0
  vertex 0.0415749997 0.017221 0.0419999994
  vertex 0.0415749997 0.017221 0
  endloop
 endfacet

 facet normal 0.956932664 0.290309936 0
  outer loop
  vertex 0.0415749997 0.017221 0
  vertex 0.0415749997 0.017221 0.0419999994
  vertex 0.0441350006 0.00877899956 0.0419999994
  endloop
 endfacet

 facet normal 0.956932664 0.290309936 0
  outer loop
  vertex 0.0415749997 0.017221 0
  vertex 0.0441350006 0.00877899956 0.0419999994
  vertex 0.0441350006 0.00877899956 0
  endloop
 endfacet

 facet normal 0.995186567 0.0979986787 0
  outer loop
  vertex 0.0441350006 0.00877899956 0
  vertex 0.0441350006 0.00877899956 0.0419999994
  vertex 0.0450000018 0 0.0419999994
  endloop
 endfacet

 facet normal 0.995186567 0.0979986787 0
  outer loop
  vertex 0.0441350006 0.00877899956 0
  vertex 0.0450000018 0 0.0419999994
  vertex 0.0450000018 0 0
  endloop
 endfacet

 facet normal 0.995186567 -0.0979986787 0
  outer loop
  vertex 0.0450000018 0 0
  vertex 0.0450000018 0 0.0419999994
  vertex 0.0441350006 -0.00877899956 0.0419999994
  endloop
 endfacet

 facet normal 0.995186567 -0.0979986787 0
  outer loop
  vertex 0.0450000018 0 0
  vertex 0.0441350006 -0.00877899956 0.0419999994
  vertex 0.0441350006 -0.00877899956 0
  endloop
 endfacet

 facet normal 0.956932664 -0.290309936 0
  outer loop
  vertex 0.0441350006 -0.00877899956 0
  vertex 0.0441350006 -0.00877899956 0.0419999994
  vertex 0.0415749997 -0.017221 0.0419999994
  endloop
 endfacet

 facet normal 0.956932664 -0.290309936 0
  outer loop
  vertex 0.0441350006 -0.00877899956 0
  vertex 0.0415749997 -0.017221 0.0419999994
  vertex 0.0415749997 -0.017221 0
  endloop
 endfacet

 facet normal 0.881915212 -0.471408129 0
  outer loop
  vertex 0.0415749997 -0.017221 0
  vertex 0.0415749997 -0.017221 0.0419999994
  vertex 0.0374159999 -0.0250010006 0.0419999994
  endloop
 endfacet

 facet normal 0.881915212 -0.471408129 0
  outer loop
  vertex 0.0415749997 -0.017221 0
  vertex 0.0374159999 -0.0250010006 0.0419999994
  vertex 0.0374159999 -0.0250010006 0
  endloop
 endfacet

 facet normal 0.773002923 -0.634402394 0
  outer loop
  vertex 0.0374159999 -0.0250010006 0
  vertex 0.0374159999 -0.0250010006 0.0419999994
  vertex 0.0318199992 -0.0318199992 0.0419999994
  endloop
 endfacet

 facet normal 0.773002923 -0.634402394 0
  outer loop
  vertex 0.0374159999 -0.0250010006 0
  vertex 0.0318199992 -0.0318199992 0.0419999994
  vertex 0.0318199992 -0.0318199992 0
  endloop
 endfacet

 facet normal 0.634402394 -0.773002923 0
  outer loop
  vertex 0.0318199992 -0.0318199992 0
  vertex 0.0318199992 -0.0318199992 0.0419999994
  vertex 0.0250010006 -0.0374159999 0.0419999994
  endloop
 endfacet

 facet normal 0.634402394 -0.773002923 0
  outer loop
  vertex 0.0318199992 -0.0318199992 0
  vertex 0.0250010006 -0.0374159999 0.0419999994
  vertex 0.0250010006 -0.0374159999 0
  endloop
 endfacet

 facet normal 0.471408129 -0.881915212 0
  outer loop
  vertex 0.0250010006 -0.0374159999 0
  vertex 0.0250010006 -0.0374159999 0.0419999994
  vertex 0.017221 -0.0415749997 0.0419999994
  endloop
 endfacet

 facet normal 0.471408129 -0.881915212 0
  outer loop
  vertex 0.0250010006 -0.0374159999 0
  vertex 0.017221 -0.0415749997 0.0419999994
  vertex 0.017221 -0.0415749997 0
  endloop
 endfacet

 facet normal 0.290309936 -0.956932664 0
  outer loop
  vertex 0.017221 -0.0415749997 0
  vertex 0.017221 -0.0415749997 0.0419999994
  vertex 0.00877899956 -0.0441350006 0.0419999994
  endloop
 endfacet

 facet normal 0.290309936 -0.956932664 0
  outer loop
  vertex 0.017221 -0.0415749997 0
  vertex 0.00877899956 -0.0441350006 0.0419999994
  vertex 0.00877899956 -0.0441350006 0
  endloop
 endfacet

 facet normal 0.0979986787 -0.995186567 0
  outer loop
  vertex 0.00877899956 -0.0441350006 0
  vertex 0.00877899956 -0.0441350006 0.0419999994
  vertex 0 -0.0450000018 0.0419999994
  endloop
 endfacet

 facet normal 0.0979986787 -0.995186567 0
  outer loop
  vertex 0.00877899956 -0.0441350006 0
  vertex 0 -0.0450000018 0.0419999994
  vertex 0 -0.0450000018 0
  endloop
 endfacet

 facet normal -0.0979986787 -0.995186567 0
  outer loop
  vertex 0 -0.0450000018 0
  vertex 0 -0.0450000018 0.0419999994
  vertex -0.00877899956 -0.0441350006 0.0419999994
  endloop
 endfacet

 facet normal -0.0979986787 -0.995186567 0
  outer loop
  vertex 0 -0.0450000018 0
  vertex -0.00877899956 -0.0441350006 0.0419999994
  vertex -0.00877899956 -0.0441350006 0
  endloop
 endfacet

 facet normal -0.290309936 -0.956932664 0
  outer loop
  vertex -0.00877899956 -0.0441350006 0
  vertex -0.00877899956 -0.0441350006 0.0419999994
  vertex -0.017221 -0.0415749997 0.0419999994
  endloop
 endfacet

 facet normal -0.290309936 -0.956932664 0
  outer loop
  vertex -0.00877899956 -0.0441350006 0
  vertex -0.017221 -0.0415749997 0.0419999994
  vertex -0.017221 -0.0415749997 0
  endloop
 endfacet

 facet normal -0.471408129 -0.881915212 0
  outer loop
  vertex -0.017221 -0.0415749997 0
  vertex -0.017221 -0.0415749997 0.0419999994
  vertex -0.0250010006 -0.0374159999 0.0419999994
  endloop
 endfacet

 facet normal -0.471408129 -0.881915212 0
  outer loop
  vertex -0.017221 -0.0415749997 0
  vertex -0.0250010006 -0.0374159999 0.0419999994
  vertex -0.0250010006 -0.0374159999 0
  endloop
 endfacet

 facet normal -0.634402394 -0.773002923 0
  outer loop
  vertex -0.0250010006 -0.0374159999 0
  vertex -0.0250010006 -0.0374159999 0.0419999994
  vertex -0.0318199992 -0.0318199992 0.0419999994
  endloop
 endfacet

 facet normal -0.634402394 -0.773002923 0
  outer loop
  vertex -0.0250010006 -0.0374159999 0
  vertex -0.0318199992 -0.0318199992 0.0419999994
  vertex -0.0318199992 -0.0318199992 0
  endloop
 endfacet

 facet normal -0.773002923 -0.634402394 0
  outer loop
  vertex -0.0318199992 -0.0318199992 0
  vertex -0.0318199992 -0.0318199992 0.0419999994
  vertex -0.0374159999 -0.0250010006 0.0419999994
  endloop
 endfacet

 facet normal -0.773002923 -0.634402394 0
  outer loop
  vertex -0.0318199992 -0.0318199992 0
  vertex -0.0374159999 -0.0250010006 0.0419999994
  vertex -0.0374159999 -0.0250010006 0
  endloop
 endfacet

 facet normal -0.881915212 -0.471408129 0
  outer loop
  vertex -0.0374159999 -0.0250010006 0
  vertex -0.0374159999 -0.0250010006 0.0419999994
  vertex -0.0415749997 -0.017221 0.0419999994
  endloop
 endfacet

 facet normal -0.881915212 -0.471408129 0
  outer loop
  vertex -0.0374159999 -0.0250010006 0
  vertex -0.0415749997 -0.017221 0.0419999994
  vertex -0.0415749997 -0.017221 0
  endloop
 endfacet

 facet normal -0.956932664 -0.290309936 0
  outer loop
  vertex -0.0415749997 -0.017221 0
  vertex -0.0415749997 -0.017221 0.0419999994
  vertex -0.0441350006 -0.00877899956 0.0419999994
  endloop
 endfacet

 facet normal -0.956932664 -0.290309936 0
  outer loop
  vertex -0.0415749997 -0.017221 0
  vertex -0.0441350006 -0.00877899956 0.0419999994
  vertex -0.0441350006 -0.00877899956 0
  endloop
 endfacet

 facet normal -0.995186567 -0.0979986787 0
  outer loop
  vertex -0.0441350006 -0.00877899956 0
  vertex -0.0441350006 -0.00877899956 0.0419999994
  vertex -0.0450000018 0 0.0419999994
  endloop
 endfacet

 facet normal -0.995186567 -0.0979986787 0
  outer loop
  vertex -0.0441350006 -0.00877899956 0
  vertex -0.0450000018 0 0.0419999994
  vertex -0.0450000018 0 0
  endloop
 endfacet

 facet normal -0.995186567 0.0979986787 0
  outer loop
  vertex -0.0450000018 0 0
  vertex -0.0450000018 0 0.0419999994
  vertex -0.0441350006 0.00877899956 0.0419999994
  endloop
 endfacet

 facet normal -0.995186567 0.0979986787 0
  outer loop
  vertex -0.0450000018 0 0
  vertex -0.0441350006 0.00877899956 0.0419999994
  vertex -0.0441350006 0.00877899956 0
  endloop
 endfacet

 facet normal -0.956932664 0.290309936 0
  outer loop
  vertex -0.0441350006 0.00877899956 0
  vertex -0.0441350006 0.00877899956 0.0419999994
  vertex -0.0415749997 0.017221 0.0419999994
  endloop
 endfacet

 facet normal -0.956932664 0.290309936 0
  outer loop
  vertex -0.0441350006 0.00877899956 0
  vertex -0.0415749997 0.017221 0.0419999994
  vertex -0.0415749997 0.017221 0
  endloop
 endfacet

 facet normal -0.881915212 0.471408129 0
  outer loop
  vertex -0.0415749997 0.017221 0
  vertex -0.0415749997 0.017221 0.0419999994
  vertex -0.0374159999 0.0250010006 0.0419999994
  endloop
 endfacet

 facet normal -0.881915212 0.471408129 0
  outer loop
  vertex -0.0415749997 0.017221 0
  vertex -0.0374159999 0.0250010006 0.0419999994
  vertex -0.0374159999 0.0250010006 0
  endloop
 endfacet

 facet normal -0.773002923 0.634402394 0
  outer loop
  vertex -0.0374159999 0.0250010006 0
  vertex -0.0374159999 0.0250010006 0.0419999994
  vertex -0.0318199992 0.0318199992 0.0419999994
  endloop
 endfacet

 facet normal -0.773002923 0.634402394 0
  outer loop
  vertex -0.0374159999 0.0250010006 0
  vertex -0.0318199992 0.0318199992 0.0419999994
  vertex -0.0318199992 0.0318199992 0
  endloop
 endfacet

 facet normal -0.634402394 0.773002923 0
  outer loop
  vertex -0.0318199992 0.0318199992 0
  vertex -0.0318199992 0.0318199992 0.0419999994
  vertex -0.0250010006 0.0374159999 0.0419999994
  endloop
 endfacet

 facet normal -0.634402394 0.773002923 0
  outer loop
  vertex -0.0318199992 0.0318199992 0
  vertex -0.0250010006 0.0374159999 0.0419999994
  vertex -0.0250010006 0.0374159999 0
  endloop
 endfacet

 facet normal -0.471408129 0.881915212 0
  outer loop
  vertex -0.0250010006 0.0374159999 0
  vertex -0.0250010006 0.0374159999 0.0419999994
  vertex -0.017221 0.0415749997 0.0419999994
  endloop
 endfacet

 facet normal -0.471408129 0.881915212 0
  outer loop
  vertex -0.0250010006 0.0374159999 0
  vertex -0.017221 0.0415749997 0.0419999994
  vertex -0.017221 0.0415749997 0
  endloop
 endfacet

 facet normal 0 0 1
  outer loop
  vertex 0.017221 0.0415749997 0.0419999994
  vertex 0.00877899956 0.0441350006 0.0419999994
  vertex 0 0.0450000018 0.0419999994
  endloop
 endfacet

 facet normal 0 0 1
  outer loop
  vertex -0.00877899956 0.0441350006 0.0419999994
  vertex 0.017221 0.0415749997 0.0419999994
  vertex 0 0.0450000018 0.0419999994
  endloop
 endfacet

 facet normal 0 0 1
  outer loop
  vertex 0.017221 0.0415749997 0.0419999994
  vertex -0.00877899956 0.0441350006 0.0419999994
  vertex -0.017221 0.0415749997 0.0419999994
  endloop
 endfacet

 facet normal 0 0 1
  outer loop
  vertex -0.0250010006 0.0374159999 0.0419999994
  vertex 0.017221 0.0415749997 0.0419999994
  vertex -0.017221 0.0415749997 0.0419999994
  endloop
 endfacet

 facet normal 0 0 1
  outer loop
  vertex 0.017221 0.0415749997 0.0419999994
  vertex -0.0250010006 0.0374159999 0.0419999994
  vertex -0.0318199992 0.0318199992 0.0419999994
  endloop
 endfacet

 facet normal 0 0 1
  outer loop
  vertex -0.0374159999 0.0250010006 0.0419999994
  vertex 0.017221 0.0415749997 0.0419999994
  vertex -0.0318199992 0.0318199992 0.0419999994
  endloop
 endfacet

 facet normal 0 0 1
  outer loop
  vertex 0.017221 0.0415749997 0.0419999994
  vertex -0.0374159999 0.0250010006 0.0419999994
  vertex -0.0415749997 0.017221 0.0419999994
  endloop
 endfacet

 facet normal 0 0 1
  outer loop
  vertex -0.0441350006 0.00877899956 0.0419999994
  vertex 0.017221 0.0415749997 0.0419999994
  vertex -0.0415749997 0.017221 0.0419999994
  endloop
 endfacet

 facet normal 0 0 1
  outer loop
  vertex 0.017221 0.0415749997 0.0419999994
  vertex -0.0441350006 0.00877899956 0.0419999994
  vertex -0.0450000018 0 0.0419999994
  endloop
 endfacet

 facet normal 0 0 1
  outer loop
  vertex -0.0441350006 -0.00877899956 0.0419999994
  vertex 0.017221 0.0415749997 0.0419999994
  vertex -0.0450000018 0 0.0419999994
  endloop
 endfacet

 facet normal 0 0 1
  outer loop
  vertex 0.017221 0.0415749997 0.0419999994
  vertex -0.0441350006 -0.00877899956 0.0419999994
  vertex -0.0415749997 -0.017221 0.0419999994
  endloop
 endfacet

 facet normal 0 0 1
  outer loop
  vertex -0.0374159999 -0.0250010006 0.0419999994
  vertex 0.017221 0.0415749997 0.0419999994
  vertex -0.0415749997 -0.017221 0.0419999994
  endloop
 endfacet

 facet normal 0 0 1
  outer loop
  vertex 0.017221 0.0415749997 0.0419999994
  vertex -0.0374159999 -0.0250010006 0.0419999994
  vertex -0.0318199992 -0.0318199992 0.0419999994
  endloop
 endfacet

 facet normal 0 0 1
  outer loop
  vertex -0.0250010006 -0.0374159999 0.0419999994
  vertex 0.017221 0.0415749997 0.0419999994
  vertex -0.0318199992 -0.0318199992 0.0419999994
  endloop
 endfacet

 facet normal 0 0 1
  outer loop
  vertex 0.017221 0.0415749997 0.0419999994
  vertex -0.0250010006 -0.0374159999 0.0419999994
  vertex -0.017221 -0.0415749997 0.0419999994
  endloop
 endfacet

 facet normal 0 0 1
  outer loop
  vertex -0.00877899956 -0.0441350006 0.0419999994
  vertex 0.017221 0.0415749997 0.0419999994
  vertex -0.017221 -0.0415749997 0.0419999994
  endloop
 endfacet

 facet normal 0 0 1
  outer loop
  vertex 0.017221 0.0415749997 0.0419999994
  vertex -0.00877899956 -0.0441350006 0.0419999994
  vertex 0 -0.0450000018 0.0419999994
  endloop
 endfacet

 facet normal 0 0 1
  outer loop
  vertex 0.00877899956 -0.0441350006 0.0419999994
  vertex 0.017221 0.0415749997 0.0419999994
  vertex 0 -0.0450000018 0.0419999994
  endloop
 endfacet

 facet normal 0 0 1
  outer loop
  vertex 0.017221 0.0415749997 0.0419999994
  vertex 0.00877899956 -0.0441350006 0.0419999994
  vertex 0.017221 -0.0415749997 0.0419999994
  endloop
 endfacet

 facet normal 0 0 1
  outer loop
  vertex 0.0250010006 -0.0374159999 0.0419999994
  vertex 0.017221 0.0415749997 0.0419999994
  vertex 0.017221 -0.0415749997 0.0419999994
  endloop
 endfacet

 facet normal 0 0 1
  outer loop
  vertex 0.017221 0.0415749997 0.0419999994
  vertex 0.0250010006 -0.0374159999 0.0419999994
  vertex 0.0318199992 -0.0318199992 0.0419999994
  endloop
 endfacet

 facet normal 0 0 1
  outer loop
  vertex 0.0374159999 -0.0250010006 0.0419999994
  vertex 0.017221 0.0415749997 0.0419999994
  vertex 0.0318199992 -0.0318199992 0.0419999994
  endloop
 endfacet

 facet normal 0 0 1
  outer loop
  vertex 0.017221 0.0415749997 0.0419999994
  vertex 0.0374159999 -0.0250010006 0.0419999994
  vertex 0.0415749997 -0.017221 0.0419999994
  endloop
 endfacet

 facet normal 0 0 1
  outer loop
  vertex 0.0441350006 -0.00877899956 0.0419999994
  vertex 0.017221 0.0415749997 0.0419999994
  vertex 0.0415749997 -0.017221 0.0419999994
  endloop
 endfacet

 facet normal 0 0 1
  outer loop
  vertex 0.017221 0.0415749997 0.0419999994
  vertex 0.0441350006 -0.00877899956 0.0419999994
  vertex 0.0450000018 0 0.0419999994
  endloop
 endfacet

 facet normal 0 0 1
  outer loop
  vertex 0.0441350006 0.00877899956 0.0419999994
  vertex 0.017221 0.0415749997 0.0419999994
  vertex 0.0450000018 0 0.0419999994
  endloop
 endfacet

 facet normal 0 0 1
  outer loop
  vertex 0.017221 0.0415749997 0.0419999994
  vertex 0.0441350006 0.00877899956 0.0419999994
  vertex 0.0415749997 0.017221 0.0419999994
  endloop
 endfacet

 facet normal 0 0 1
  outer loop
  vertex 0.0374159999 0.0250010006 0.0419999994
  vertex 0.017221 0.0415749997 0.0419999994
  vertex 0.0415749997 0.017221 0.0419999994
  endloop
 endfacet

 facet normal 0 0 1
  outer loop
  vertex 0.017221 0.0415749997 0.0419999994
  vertex 0.0374159999 0.0250010006 0.0419999994
  vertex 0.0318199992 0.0318199992 0.0419999994
  endloop
 endfacet

 facet normal 0 0 1
  outer loop
  vertex 0.0318199992 0.0318199992 0.0419999994
  vertex 0.0250010006 0.0374159999 0.0419999994
  vertex 0.017221 0.0415749997 0.0419999994
  endloop
 endfacet

 facet normal -0.290309936 0.956932664 0
  outer loop
  vertex -0.017221 0.0415749997 0
  vertex -0.017221 0.0415749997 0.0419999994
  vertex -0.00877899956 0.0441350006 0.0419999994
  endloop
 endfacet

 facet normal -0.290309936 0.956932664 0
  outer loop
  vertex -0.017221 0.0415749997 0
  vertex -0.00877899956 0.0441350006 0.0419999994
  vertex -0.00877899956 0.0441350006 0
  endloop
 endfacet

 facet normal -0.0979986787 0.995186567 0
  outer loop
  vertex -0.00877899956 0.0441350006 0
  vertex -0.00877899956 0.0441350006 0.0419999994
  vertex 0 0.0450000018 0.0419999994
  endloop
 endfacet

 facet normal -0.0979986787 0.995186567 0
  outer loop
  vertex -0.00877899956 0.0441350006 0
  vertex 0 0.0450000018 0.0419999994
  vertex 0 0.0450000018 0
  endloop
 endfacet

 facet normal 0 0 -1
  outer loop
  vertex -0.00877899956 0.0441350006 0
  vertex 0 0.0450000018 0
  vertex 0.00877899956 0.0441350006 0
  endloop
 endfacet

 facet normal 0 0 -1
  outer loop
  vertex 0.017221 0.0415749997 0
  vertex -0.00877899956 0.0441350006 0
  vertex 0.00877899956 0.0441350006 0
  endloop
 endfacet

 facet normal 0 0 -1
  outer loop
  vertex -0.00877899956 0.0441350006 0
  vertex 0.017221 0.0415749997 0
  vertex 0.0250010006 0.0374159999 0
  endloop
 endfacet

 facet normal 0 0 -1
  outer loop
  vertex 0.0318199992 0.0318199992 0
  vertex -0.00877899956 0.0441350006 0
  vertex 0.0250010006 0.0374159999 0
  endloop
 endfacet

 facet normal 0 0 -1
  outer loop
  vertex -0.00877899956 0.0441350006 0
  vertex 0.0318199992 0.0318199992 0
  vertex 0.0374159999 0.0250010006 0
  endloop
 endfacet

 facet normal 0 0 -1
  outer loop
  vertex 0.0415749997 0.017221 0
  vertex -0.00877899956 0.0441350006 0
  vertex 0.0374159999 0.0250010006 0
  endloop
 endfacet

 facet normal 0 0 -1
  outer loop
  vertex -0.00877899956 0.0441350006 0
  vertex 0.0415749997 0.017221 0
  vertex 0.0441350006 0.00877899956 0
  endloop
 endfacet

 facet normal 0 0 -1
  outer loop
  vertex 0.0450000018 0 0
  vertex -0.00877899956 0.0441350006 0
  vertex 0.0441350006 0.00877899956 0
  endloop
 endfacet

 facet normal 0 0 -1
  outer loop
  vertex -0.00877899956 0.0441350006 0
  vertex 0.0450000018 0 0
  vertex 0.0441350006 -0.00877899956 0
  endloop
 endfacet

 facet normal 0 0 -1
  outer loop
  vertex 0.0415749997 -0.017221 0
  vertex -0.00877899956 0.0441350006 0
  vertex 0.0441350006 -0.00877899956 0
  endloop
 endfacet

 facet normal 0 0 -1
  outer loop
  vertex -0.00877899956 0.0441350006 0
  vertex 0.0415749997 -0.017221 0
  vertex 0.0374159999 -0.0250010006 0
  endloop
 endfacet

 facet normal 0 0 -1
  outer loop
  vertex 0.0318199992 -0.0318199992 0
  vertex -0.00877899956 0.0441350006 0
  vertex 0.0374159999 -0.0250010006 0
  endloop
 endfacet

 facet normal 0 0 -1
  outer loop
  vertex -0.00877899956 0.0441350006 0
  vertex 0.0318199992 -0.0318199992 0
  vertex 0.0250010006 -0.0374159999 0
  endloop
 endfacet

 facet normal 0 0 -1
  outer loop
  vertex 0.017221 -0.0415749997 0
  vertex -0.00877899956 0.0441350006 0
  vertex 0.0250010006 -0.0374159999 0
  endloop
 endfacet

 facet normal 0 0 -1
  outer loop
  vertex -0.00877899956 0.0441350006 0
  vertex 0.017221 -0.0415749997 0
  vertex 0.00877899956 -0.0441350006 0
  endloop
 endfacet

 facet normal 0 0 -1
  outer loop
  vertex 0 -0.0450000018 0
  vertex -0.00877899956 0.0441350006 0
  vertex 0.00877899956 -0.0441350006 0
  endloop
 endfacet

 facet normal 0 0 -1
  outer loop
  vertex -0.00877899956 0.0441350006 0
  vertex 0 -0.0450000018 0
  vertex -0.00877899956 -0.0441350006 0
  endloop
 endfacet

 facet normal 0 0 -1
  outer loop
  vertex -0.017221 -0.0415749997 0
  vertex -0.00877899956 0.0441350006 0
  vertex -0.00877899956 -0.0441350006 0
  endloop
 endfacet

 facet normal 0 0 -1
  outer loop
  vertex -0.00877899956 0.0441350006 0
  vertex -0.017221 -0.0415749997 0
  vertex -0.0250010006 -0.0374159999 0
  endloop
 endfacet

 facet normal 0 0 -1
  outer loop
  vertex -0.0318199992 -0.0318199992 0
  vertex -0.00877899956 0.0441350006 0
  vertex -0.0250010006 -0.0374159999 0
  endloop
 endfacet

 facet normal 0 0 -1
  outer loop
  vertex -0.00877899956 0.0441350006 0
  vertex -0.0318199992 -0.0318199992 0
  vertex -0.0374159999 -0.0250010006 0
  endloop
 endfacet

 facet normal 0 0 -1
  outer loop
  vertex -0.0415749997 -0.017221 0
  vertex -0.00877899956 0.0441350006 0
  vertex -0.0374159999 -0.0250010006 0
  endloop
 endfacet

 facet normal 0 0 -1
  outer loop
  vertex -0.00877899956 0.0441350006 0
  vertex -0.0415749997 -0.017221 0
  vertex -0.0441350006 -0.00877899956 0
  endloop
 endfacet

 facet normal 0 0 -1
  outer loop
  vertex -0.0450000018 0 0
  vertex -0.00877899956 0.0441350006 0
  vertex -0.0441350006 -0.00877899956 0
  endloop
 endfacet

 facet normal 0 0 -1
  outer loop
  vertex -0.00877899956 0.0441350006 0
  vertex -0.0450000018 0 0
  vertex -0.0441350006 0.00877899956 0
  endloop
 endfacet

 facet normal 0 0 -1
  outer loop
  vertex -0.0415749997 0.017221 0
  vertex -0.00877899956 0.0441350006 0
  vertex -0.0441350006 0.00877899956 0
  endloop
 endfacet

 facet normal 0 0 -1
  outer loop
  vertex -0.00877899956 0.0441350006 0
  vertex -0.0415749997 0.017221 0
  vertex -0.0374159999 0.0250010006 0
  endloop
 endfacet

 facet normal 0 0 -1
  outer loop
  vertex -0.0318199992 0.0318199992 0
  vertex -0.00877899956 0.0441350006 0
  vertex -0.0374159999 0.0250010006 0
  endloop
 endfacet

 facet normal 0 0 -1
  outer loop
  vertex -0.00877899956 0.0441350006 0
  vertex -0.0318199992 0.0318199992 0
  vertex -0.0250010006 0.0374159999 0
  endloop
 endfacet

 facet normal 0 0 -1
  outer loop
  vertex -0.0250010006 0.0374159999 0
  vertex -0.017221 0.0415749997 0
  vertex -0.00877899956 0.0441350006 0
  endloop
 endfacet

 facet normal 0 0.995186567 -0.0979986787
  outer loop
  vertex -0.0130000003 -0.0340000018 0.075000003
  vertex 0.0130000003 -0.0340000018 0.075000003
  vertex 0.0130000003 -0.0343069993 0.0718789995
  endloop
 endfacet

 facet normal 0 0.995186567 -0.0979986787
  outer loop
  vertex -0.0130000003 -0.0340000018 0.075000003
  vertex 0.0130000003 -0.0343069993 0.0718789995
  vertex -0.0130000003 -0.0343069993 0.0718789995
  endloop
 endfacet

 facet normal 0 0.956932664 -0.290309936
  outer loop
  vertex -0.0130000003 -0.0343069993 0.0718789995
  vertex 0.0130000003 -0.0343069993 0.0718789995
  vertex 0.0130000003 -0.0352180004 0.0688769966
  endloop
 endfacet

 facet normal 0 0.956932664 -0.290309936
  outer loop
  vertex -0.0130000003 -0.0343069993 0.0718789995
  vertex 0.0130000003 -0.0352180004 0.0688769966
  vertex -0.0130000003 -0.0352180004 0.0688769966
  endloop
 endfacet

 facet normal 0 0.881915212 -0.471408129
  outer loop
  vertex -0.0130000003 -0.0352180004 0.0688769966
  vertex 0.0130000003 -0.0352180004 0.0688769966
  vertex 0.0130000003 -0.0366959982 0.0661109984
  endloop
 endfacet

 facet normal 0 0.881915212 -0.471408129
  outer loop
  vertex -0.0130000003 -0.0352180004 0.0688769966
  vertex 0.0130000003 -0.0366959982 0.0661109984
  vertex -0.0130000003 -0.0366959982 0.0661109984
  endloop
 endfacet

 facet normal 0 0.773002923 -0.634402394
  outer loop
  vertex -0.0130000003 -0.0366959982 0.0661109984
  vertex 0.0130000003 -0.0366959982 0.0661109984
  vertex 0.0130000003 -0.0386859998 0.0636859983
  endloop
 endfacet

 facet normal 0 0.773002923 -0.634402394
  outer loop
  vertex -0.0130000003 -0.0366959982 0.0661109984
  vertex 0.0130000003 -0.0386859998 0.0636859983
  vertex -0.0130000003 -0.0386859998 0.0636859983
  endloop
 endfacet

 facet normal 0 0.634402394 -0.773002923
  outer loop
  vertex -0.0130000003 -0.0386859998 0.0636859983
  vertex 0.0130000003 -0.0386859998 0.0636859983
  vertex 0.0130000003 -0.0411109999 0.0616960004
  endloop
 endfacet

 facet normal 0 0.634402394 -0.773002923
  outer loop
  vertex -0.0130000003 -0.0386859998 0.0636859983
  vertex 0.0130000003 -0.0411109999 0.0616960004
  vertex -0.0130000003 -0.0411109999 0.0616960004
  endloop
 endfacet

 facet normal 0 0.471408129 -0.881915212
  outer loop
  vertex -0.0130000003 -0.0411109999 0.0616960004
  vertex 0.0130000003 -0.0411109999 0.0616960004
  vertex 0.0130000003 -0.0438770019 0.0602179989
  endloop
 endfacet

 facet normal 0 0.471408129 -0.881915212
  outer loop
  vertex -0.0130000003 -0.0411109999 0.0616960004
  vertex 0.0130000003 -0.0438770019 0.0602179989
  vertex -0.0130000003 -0.0438770019 0.0602179989
  endloop
 endfacet

 facet normal 0 0.290309936 -0.956932664
  outer loop
  vertex -0.0130000003 -0.0438770019 0.0602179989
  vertex 0.0130000003 -0.0438770019 0.0602179989
  vertex 0.0130000003 -0.046879001 0.0593070015
  endloop
 endfacet

 facet normal 0 0.290309936 -0.956932664
  outer loop
  vertex -0.0130000003 -0.0438770019 0.0602179989
  vertex 0.0130000003 -0.046879001 0.0593070015
  vertex -0.0130000003 -0.046879001 0.0593070015
  endloop
 endfacet

 facet normal 0 0.0979986787 -0.995186567
  outer loop
  vertex -0.0130000003 -0.046879001 0.0593070015
  vertex 0.0130000003 -0.046879001 0.0593070015
  vertex 0.0130000003 -0.0500000007 0.0590000004
  endloop
 endfacet

 facet normal 0 0.0979986787 -0.995186567
  outer loop
  vertex -0.0130000003 -0.046879001 0.0593070015
  vertex 0.0130000003 -0.0500000007 0.0590000004
  vertex -0.0130000003 -0.0500000007 0.0590000004
  endloop
 endfacet

 facet normal 0 -0.0979986787 -0.995186567
  outer loop
  vertex -0.0130000003 -0.0500000007 0.0590000004
  vertex 0.0130000003 -0.0500000007 0.0590000004
  vertex 0.0130000003 -0.0531210005 0.0593070015
  endloop
 endfacet

 facet normal 0 -0.0979986787 -0.995186567
  outer loop
  vertex -0.0130000003 -0.0500000007 0.0590000004
  vertex 0.0130000003 -0.0531210005 0.0593070015
  vertex -0.0130000003 -0.0531210005 0.0593070015
  endloop
 endfacet

 facet normal 0 -0.290309936 -0.956932664
  outer loop
  vertex -0.0130000003 -0.0531210005 0.0593070015
  vertex 0.0130000003 -0.0531210005 0.0593070015
  vertex 0.0130000003 -0.0561229996 0.0602179989
  endloop
 endfacet

 facet normal 0 -0.290309936 -0.956932664
  outer loop
  vertex -0.0130000003 -0.0531210005 0.0593070015
  vertex 0.0130000003 -0.0561229996 0.0602179989
  vertex -0.0130000003 -0.0561229996 0.0602179989
  endloop
 endfacet

 facet normal 0 -0.471408129 -0.881915212
  outer loop
  vertex -0.0130000003 -0.0561229996 0.0602179989
  vertex 0.0130000003 -0.0561229996 0.0602179989
  vertex 0.0130000003 -0.0588890016 0.0616960004
  endloop
 endfacet

 facet normal 0 -0.471408129 -0.881915212
  outer loop
  vertex -0.0130000003 -0.0561229996 0.0602179989
  vertex 0.0130000003 -0.0588890016 0.0616960004
  vertex -0.0130000003 -0.0588890016 0.0616960004
  endloop
 endfacet

 facet normal 0 -0.634402394 -0.773002923
  outer loop
  vertex -0.0130000003 -0.0588890016 0.0616960004
  vertex 0.0130000003 -0.0588890016 0.0616960004
  vertex 0.0130000003 -0.0613140017 0.0636859983
  endloop
 endfacet

 facet normal 0 -0.634402394 -0.773002923
  outer loop
  vertex -0.0130000003 -0.0588890016 0.0616960004
  vertex 0.0130000003 -0.0613140017 0.0636859983
  vertex -0.0130000003 -0.0613140017 0.0636859983
  endloop
 endfacet

 facet normal 0 -0.773002923 -0.634402394
  outer loop
  vertex -0.0130000003 -0.0613140017 0.0636859983
  vertex 0.0130000003 -0.0613140017 0.0636859983
  vertex 0.0130000003 -0.0633039996 0.0661109984
  endloop
 endfacet

 facet normal 0 -0.773002923 -0.634402394
  outer loop
  vertex -0.0130000003 -0.0613140017 0.0636859983
  vertex 0.0130000003 -0.0633039996 0.0661109984
  vertex -0.0130000003 -0.0633039996 0.0661109984
  endloop
 endfacet

 facet normal 0 -0.881915212 -0.471408129
  outer loop
  vertex -0.0130000003 -0.0633039996 0.0661109984
  vertex 0.0130000003 -0.0633039996 0.0661109984
  vertex 0.0130000003 -0.0647820011 0.0688769966
  endloop
 endfacet

 facet normal 0 -0.881915212 -0.471408129
  outer loop
  vertex -0.0130000003 -0.0633039996 0.0661109984
  vertex 0.0130000003 -0.0647820011 0.0688769966
  vertex -0.0130000003 -0.0647820011 0.0688769966
  endloop
 endfacet

 facet normal 0 -0.956932664 -0.290309936
  outer loop
  vertex -0.0130000003 -0.0647820011 0.0688769966
  vertex 0.0130000003 -0.0647820011 0.0688769966
  vertex 0.0130000003 -0.0656929985 0.0718789995
  endloop
 endfacet

 facet normal 0 -0.956932664 -0.290309936
  outer loop
  vertex -0.0130000003 -0.0647820011 0.0688769966
  vertex 0.0130000003 -0.0656929985 0.0718789995
  vertex -0.0130000003 -0.0656929985 0.0718789995
  endloop
 endfacet

 facet normal 0 -0.995186567 -0.0979986787
  outer loop
  vertex -0.0130000003 -0.0656929985 0.0718789995
  vertex 0.0130000003 -0.0656929985 0.0718789995
  vertex 0.0130000003 -0.0659999996 0.075000003
  endloop
 endfacet

 facet normal 0 -0.995186567 -0.0979986787
  outer loop
  vertex -0.0130000003 -0.0656929985 0.0718789995
  vertex 0.0130000003 -0.0659999996 0.075000003
  vertex -0.0130000003 -0.0659999996 0.075000003
  endloop
 endfacet

 facet normal 0 -0.995186567 0.0979986787
  outer loop
  vertex -0.0130000003 -0.0659999996 0.075000003
  vertex 0.0130000003 -0.0659999996 0.075000003
  vertex 0.0130000003 -0.0656929985 0.078120999
  endloop
 endfacet

 facet normal 0 -0.995186567 0.0979986787
  outer loop
  vertex -0.0130000003 -0.0659999996 0.075000003
  vertex 0.0130000003 -0.0656929985 0.078120999
  vertex -0.0130000003 -0.0656929985 0.078120999
  endloop
 endfacet

 facet normal 0 -0.956932664 0.290309936
  outer loop
  vertex -0.0130000003 -0.0656929985 0.078120999
  vertex 0.0130000003 -0.0656929985 0.078120999
  vertex 0.0130000003 -0.0647820011 0.0811230019
  endloop
 endfacet

 facet normal 0 -0.956932664 0.290309936
  outer loop
  vertex -0.0130000003 -0.0656929985 0.078120999
  vertex 0.0130000003 -0.0647820011 0.0811230019
  vertex -0.0130000003 -0.0647820011 0.0811230019
  endloop
 endfacet

 facet normal 0 -0.881915212 0.471408129
  outer loop
  vertex -0.0130000003 -0.0647820011 0.0811230019
  vertex 0.0130000003 -0.0647820011 0.0811230019
  vertex 0.0130000003 -0.0633039996 0.0838890001
  endloop
 endfacet

 facet normal 0 -0.881915212 0.471408129
  outer loop
  vertex -0.0130000003 -0.0647820011 0.0811230019
  vertex 0.0130000003 -0.0633039996 0.0838890001
  vertex -0.0130000003 -0.0633039996 0.0838890001
  endloop
 endfacet

 facet normal 0 -0.773002923 0.634402394
  outer loop
  vertex -0.0130000003 -0.0633039996 0.0838890001
  vertex 0.0130000003 -0.0633039996 0.0838890001
  vertex 0.0130000003 -0.0613140017 0.0863140002
  endloop
 endfacet

 facet normal 0 -0.773002923 0.634402394
  outer loop
  vertex -0.0130000003 -0.0633039996 0.0838890001
  vertex 0.0130000003 -0.0613140017 0.0863140002
  vertex -0.0130000003 -0.0613140017 0.0863140002
  endloop
 endfacet

 facet normal 0 -0.634402394 0.773002923
  outer loop
  vertex -0.0130000003 -0.0613140017 0.0863140002
  vertex 0.0130000003 -0.0613140017 0.0863140002
  vertex 0.0130000003 -0.0588890016 0.0883039981
  endloop
 endfacet

 facet normal 0 -0.634402394 0.773002923
  outer loop
  vertex -0.0130000003 -0.0613140017 0.0863140002
  vertex 0.0130000003 -0.0588890016 0.0883039981
  vertex -0.0130000003 -0.0588890016 0.0883039981
  endloop
 endfacet

 facet normal 0 -0.471408129 0.881915212
  outer loop
  vertex -0.0130000003 -0.0588890016 0.0883039981
  vertex 0.0130000003 -0.0588890016 0.0883039981
  vertex 0.0130000003 -0.0561229996 0.0897819996
  endloop
 endfacet

 facet normal 0 -0.471408129 0.881915212
  outer loop
  vertex -0.0130000003 -0.0588890016 0.0883039981
  vertex 0.0130000003 -0.0561229996 0.0897819996
  vertex -0.0130000003 -0.0561229996 0.0897819996
  endloop
 endfacet

 facet normal 0 -0.290309936 0.956932664
  outer loop
  vertex -0.0130000003 -0.0561229996 0.0897819996
  vertex 0.0130000003 -0.0561229996 0.0897819996
  vertex 0.0130000003 -0.0531210005 0.090692997
  endloop
 endfacet

 facet normal 0 -0.290309936 0.956932664
  outer loop
  vertex -0.0130000003 -0.0561229996 0.0897819996
  vertex 0.0130000003 -0.0531210005 0.090692997
  vertex -0.0130000003 -0.0531210005 0.090692997
  endloop
 endfacet

 facet normal 0 -0.0979986787 0.995186567
  outer loop
  vertex -0.0130000003 -0.0531210005 0.090692997
  vertex 0.0130000003 -0.0531210005 0.090692997
  vertex 0.0130000003 -0.0500000007 0.0909999982
  endloop
 endfacet

 facet normal 0 -0.0979986787 0.995186567
  outer loop
  vertex -0.0130000003 -0.0531210005 0.090692997
  vertex 0.0130000003 -0.0500000007 0.0909999982
  vertex -0.0130000003 -0.0500000007 0.0909999982
  endloop
 endfacet

 facet normal 0 0.0979986787 0.995186567
  outer loop
  vertex -0.0130000003 -0.0500000007 0.0909999982
  vertex 0.0130000003 -0.0500000007 0.0909999982
  vertex 0.0130000003 -0.046879001 0.090692997
  endloop
 endfacet

 facet normal 0 0.0979986787 0.995186567
  outer loop
  vertex -0.0130000003 -0.0500000007 0.0909999982
  vertex 0.0130000003 -0.046879001 0.090692997
  vertex -0.0130000003 -0.046879001 0.090692997
  endloop
 endfacet

 facet normal 0 0.290309936 0.956932664
  outer loop
  vertex -0.0130000003 -0.046879001 0.090692997
  vertex 0.0130000003 -0.046879001 0.090692997
  vertex 0.0130000003 -0.0438770019 0.0897819996
  endloop
 endfacet

 facet normal 0 0.290309936 0.956932664
  outer loop
  vertex -0.0130000003 -0.046879001 0.090692997
  vertex 0.0130000003 -0.0438770019 0.0897819996
  vertex -0.0130000003 -0.0438770019 0.0897819996
  endloop
 endfacet

 facet normal 0 0.471408129 0.881915212
  outer loop
  vertex -0.0130000003 -0.0438770019 0.0897819996
  vertex 0.0130000003 -0.0438770019 0.0897819996
  vertex 0.0130000003 -0.0411109999 0.0883039981
  endloop
 endfacet

 facet normal 0 0.471408129 0.881915212
  outer loop
  vertex -0.0130000003 -0.0438770019 0.0897819996
  vertex 0.0130000003 -0.0411109999 0.0883039981
  vertex -0.0130000003 -0.0411109999 0.0883039981
  endloop
 endfacet

 facet normal 0 0.634402394 0.773002923
  outer loop
  vertex -0.0130000003 -0.0411109999 0.0883039981
  vertex 0.0130000003 -0.0411109999 0.0883039981
  vertex 0.0130000003 -0.0386859998 0.0863140002
  endloop
 endfacet

 facet normal 0 0.634402394 0.773002923
  outer loop
  vertex -0.0130000003 -0.0411109999 0.0883039981
  vertex 0.0130000003 -0.0386859998 0.0863140002
  vertex -0.0130000003 -0.0386859998 0.0863140002
  endloop
 endfacet

 facet normal 0 0.773002923 0.634402394
  outer loop
  vertex -0.0130000003 -0.0386859998 0.0863140002
  vertex 0.0130000003 -0.0386859998 0.0863140002
  vertex 0.0130000003 -0.0366959982 0.0838890001
  endloop
 endfacet

 facet normal 0 0.773002923 0.634402394
  outer loop
  vertex -0.0130000003 -0.0386859998 0.0863140002
  vertex 0.0130000003 -0.0366959982 0.0838890001
  vertex -0.0130000003 -0.0366959982 0.0838890001
  endloop
 endfacet

 facet normal 0 0.881915212 0.471408129
  outer loop
  vertex -0.0130000003 -0.0366959982 0.0838890001
  vertex 0.0130000003 -0.0366959982 0.0838890001
  vertex 0.0130000003 -0.0352180004 0.0811230019
  endloop
 endfacet

 facet normal 0 0.881915212 0.471408129
  outer loop
  vertex -0.0130000003 -0.0366959982 0.0838890001
  vertex 0.0130000003 -0.0352180004 0.0811230019
  vertex -0.0130000003 -0.0352180004 0.0811230019
  endloop
 endfacet

 facet normal 1 0 0
  outer loop
  vertex 0.0130000003 -0.0352180004 0.0688769966
  vertex 0.0130000003 -0.0343069993 0.0718789995
  vertex 0.0130000003 -0.0340000018 0.075000003
  endloop
 endfacet

 facet normal 1 0 0
  outer loop
  vertex 0.0130000003 -0.0343069993 0.078120999
  vertex 0.0130000003 -0.0352180004 0.0688769966
  vertex 0.0130000003 -0.0340000018 0.075000003
  endloop
 endfacet

 facet normal 1 0 0
  outer loop
  vertex 0.0130000003 -0.0352180004 0.0688769966
  vertex 0.0130000003 -0.0343069993 0.078120999
  vertex 0.0130000003 -0.0352180004 0.0811230019
  endloop
 endfacet

 facet normal 1 0 0
  outer loop
  vertex 0.0130000003 -0.0366959982 0.0838890001
  vertex 0.0130000003 -0.0352180004 0.0688769966
  vertex 0.0130000003 -0.0352180004 0.0811230019
  endloop
 endfacet

 facet normal 1 0 0
  outer loop
  vertex 0.0130000003 -0.0352180004 0.0688769966
  vertex 0.0130000003 -0.0366959982 0.0838890001
  vertex 0.0130000003 -0.0386859998 0.0863140002
  endloop
 endfacet

 facet normal 1 0 0
  outer loop
  vertex 0.0130000003 -0.0411109999 0.0883039981
  vertex 0.0130000003 -0.0352180004 0.0688769966
  vertex 0.0130000003 -0.0386859998 0.0863140002
  endloop
 endfacet

 facet normal 1 0 0
  outer loop
  vertex 0.0130000003 -0.0352180004 0.0688769966
  vertex 0.0130000003 -0.0411109999 0.0883039981
  vertex 0.0130000003 -0.0438770019 0.0897819996
  endloop
 endfacet

 facet normal 1 0 0
  outer loop
  vertex 0.0130000003 -0.046879001 0.090692997
  vertex 0.0130000003 -0.0352180004 0.0688769966
  vertex 0.0130000003 -0.0438770019 0.0897819996
  endloop
 endfacet

 facet normal 1 0 0
  outer loop
  vertex 0.0130000003 -0.0352180004 0.0688769966
  vertex 0.0130000003 -0.046879001 0.090692997
  vertex 0.0130000003 -0.0500000007 0.0909999982
  endloop
 endfacet

 facet normal 1 0 0
  outer loop
  vertex 0.0130000003 -0.0531210005 0.090692997
  vertex 0.0130000003 -0.0352180004 0.0688769966
  vertex 0.0130000003 -0.0500000007 0.0909999982
  endloop
 endfacet

 facet normal 1 0 0
  outer loop
  vertex 0.0130000003 -0.0352180004 0.0688769966
  vertex 0.0130000003 -0.0531210005 0.090692997
  vertex 0.0130000003 -0.0561229996 0.0897819996
  endloop
 endfacet

 facet normal 1 0 0
  outer loop
  vertex 0.0130000003 -0.0588890016 0.0883039981
  vertex 0.0130000003 -0.0352180004 0.0688769966
  vertex 0.0130000003 -0.0561229996 0.0897819996
  endloop
 endfacet

 facet normal 1 0 0
  outer loop
  vertex 0.0130000003 -0.0352180004 0.0688769966
  vertex 0.0130000003 -0.0588890016 0.0883039981
  vertex 0.0130000003 -0.0613140017 0.0863140002
  endloop
 endfacet

 facet normal 1 0 0
  outer loop
  vertex 0.0130000003 -0.0633039996 0.0838890001
  vertex 0.0130000003 -0.0352180004 0.0688769966
  vertex 0.0130000003 -0.0613140017 0.0863140002
  endloop
 endfacet

 facet normal 1 0 0
  outer loop
  vertex 0.0130000003 -0.0352180004 0.0688769966
  vertex 0.0130000003 -0.0633039996 0.0838890001
  vertex 0.0130000003 -0.0647820011 0.0811230019
  endloop
 endfacet

 facet normal 1 0 0
  outer loop
  vertex 0.0130000003 -0.0656929985 0.078120999
  vertex 0.0130000003 -0.0352180004 0.0688769966
  vertex 0.0130000003 -0.0647820011 0.0811230019
  endloop
 endfacet

 facet normal 1 0 0
  outer loop
  vertex 0.0130000003 -0.0352180004 0.0688769966
  vertex 0.0130000003 -0.0656929985 0.078120999
  vertex 0.0130000003 -0.0659999996 0.075000003
  endloop
 endfacet

 facet normal 1 0 0
  outer loop
  vertex 0.0130000003 -0.0656929985 0.0718789995
  vertex 0.0130000003 -0.0352180004 0.0688769966
  vertex 0.0130000003 -0.0659999996 0.075000003
  endloop
 endfacet

 facet normal 1 0 0
  outer loop
  vertex 0.0130000003 -0.0352180004 0.0688769966
  vertex 0.0130000003 -0.0656929985 0.0718789995
  vertex 0.0130000003 -0.0647820011 0.0688769966
  endloop
 endfacet

 facet normal 1 0 0
  outer loop
  vertex 0.0130000003 -0.0633039996 0.0661109984
  vertex 0.0130000003 -0.0352180004 0.0688769966
  vertex 0.0130000003 -0.0647820011 0.0688769966
  endloop
 endfacet

 facet normal 1 0 0
  outer loop
  vertex 0.0130000003 -0.0352180004 0.0688769966
  vertex 0.0130000003 -0.0633039996 0.0661109984
  vertex 0.0130000003 -0.0613140017 0.0636859983
  endloop
 endfacet

 facet normal 1 0 0
  outer loop
  vertex 0.0130000003 -0.0588890016 0.0616960004
  vertex 0.0130000003 -0.0352180004 0.0688769966
  vertex 0.0130000003 -0.0613140017 0.0636859983
  endloop
 endfacet

 facet normal 1 0 0
  outer loop
  vertex 0.0130000003 -0.0352180004 0.0688769966
  vertex 0.0130000003 -0.0588890016 0.0616960004
  vertex 0.0130000003 -0.0561229996 0.0602179989
  endloop
 endfacet

 facet normal 1 0 0
  outer loop
  vertex 0.0130000003 -0.0531210005 0.0593070015
  vertex 0.0130000003 -0.0352180004 0.0688769966
  vertex 0.0130000003 -0.0561229996 0.0602179989
  endloop
 endfacet

 facet normal 1 0 0
  outer loop
  vertex 0.0130000003 -0.0352180004 0.0688769966
  vertex 0.0130000003 -0.0531210005 0.0593070015
  vertex 0.0130000003 -0.0500000007 0.0590000004
  endloop
 endfacet

 facet normal 1 0 0
  outer loop
  vertex 0.0130000003 -0.046879001 0.0593070015
  vertex 0.0130000003 -0.0352180004 0.0688769966
  vertex 0.0130000003 -0.0500000007 0.0590000004
  endloop
 endfacet

 facet normal 1 0 0
  outer loop
  vertex 0.0130000003 -0.0352180004 0.0688769966
  vertex 0.0130000003 -0.046879001 0.0593070015
  vertex 0.0130000003 -0.0438770019 0.0602179989
  endloop
 endfacet

 facet normal 1 0 0
  outer loop
  vertex 0.0130000003 -0.0411109999 0.0616960004
  vertex 0.0130000003 -0.0352180004 0.0688769966
  vertex 0.0130000003 -0.0438770019 0.0602179989
  endloop
 endfacet

 facet normal 1 0 0
  outer loop
  vertex 0.0130000003 -0.0352180004 0.0688769966
  vertex 0.0130000003 -0.0411109999 0.0616960004
  vertex 0.0130000003 -0.0386859998 0.0636859983
  endloop
 endfacet

 facet normal 1 0 0
  outer loop
  vertex 0.0130000003 -0.0386859998 0.0636859983
  vertex 0.0130000003 -0.0366959982 0.0661109984
  vertex 0.0130000003 -0.0352180004 0.0688769966
  endloop
 endfacet

 facet normal 0 0.956932664 0.290309936
  outer loop
  vertex -0.0130000003 -0.0352180004 0.0811230019
  vertex 0.0130000003 -0.0352180004 0.0811230019
  vertex 0.0130000003 -0.0343069993 0.078120999
  endloop
 endfacet

 facet normal 0 0.956932664 0.290309936
  outer loop
  vertex -0.0130000003 -0.0352180004 0.0811230019
  vertex 0.0130000003 -0.0343069993 0.078120999
  vertex -0.0130000003 -0.0343069993 0.078120999
  endloop
 endfacet

 facet normal 0 0.995186567 0.0979986787
  outer loop
  vertex -0.0130000003 -0.0343069993 0.078120999
  vertex 0.0130000003 -0.0343069993 0.078120999
  vertex 0.0130000003 -0.0340000018 0.075000003
  endloop
 endfacet

 facet normal 0 0.995186567 0.0979986787
  outer loop
  vertex -0.0130000003 -0.0343069993 0.078120999
  vertex 0.0130000003 -0.0340000018 0.075000003
  vertex -0.0130000003 -0.0340000018 0.075000003
  endloop
 endfacet

 facet normal -1 0 0
  outer loop
  vertex -0.0130000003 -0.0343069993 0.078120999
  vertex -0.0130000003 -0.0340000018 0.075000003
  vertex -0.0130000003 -0.0343069993 0.0718789995
  endloop
 endfacet

 facet normal -1 0 0
  outer loop
  vertex -0.0130000003 -0.0352180004 0.0688769966
  vertex -0.0130000003 -0.0343069993 0.078120999
  vertex -0.0130000003 -0.0343069993 0.0718789995
  endloop
 endfacet

 facet normal -1 0 0
  outer loop
  vertex -0.0130000003 -0.0343069993 0.078120999
  vertex -0.0130000003 -0.0352180004 0.0688769966
  vertex -0.0130000003 -0.0366959982 0.0661109984
  endloop
 endfacet

 facet normal -1 0 0
  outer loop
  vertex -0.0130000003 -0.0386859998 0.0636859983
  vertex -0.0130000003 -0.0343069993 0.078120999
  vertex -0.0130000003 -0.0366959982 0.0661109984
  endloop
 endfacet

 facet normal -1 0 0
  outer loop
  vertex -0.0130000003 -0.0343069993 0.078120999
  vertex -0.0130000003 -0.0386859998 0.0636859983
  vertex -0.0130000003 -0.0411109999 0.0616960004
  endloop
 endfacet

 facet normal -1 0 0
  outer loop
  vertex -0.0130000003 -0.0438770019 0.0602179989
  vertex -0.0130000003 -0.0343069993 0.078120999
  vertex -0.0130000003 -0.0411109999 0.0616960004
  endloop
 endfacet

 facet normal -1 0 0
  outer loop
  vertex -0.0130000003 -0.0343069993 0.078120999
  vertex -0.0130000003 -0.0438770019 0.0602179989
  vertex -0.0130000003 -0.046879001 0.0593070015
  endloop
 endfacet

 facet normal -1 0 0
  outer loop
  vertex -0.0130000003 -0.0500000007 0.0590000004
  vertex -0.0130000003 -0.0343069993 0.078120999
  vertex -0.0130000003 -0.046879001 0.0593070015
  endloop
 endfacet

 facet normal -1 0 0
  outer loop
  vertex -0.0130000003 -0.0343069993 0.078120999
  vertex -0.0130000003 -0.0500000007 0.0590000004
  vertex -0.0130000003 -0.0531210005 0.0593070015
  endloop
 endfacet

 facet normal -1 0 0
  outer loop
  vertex -0.0130000003 -0.0561229996 0.0602179989
  vertex -0.0130000003 -0.0343069993 0.078120999
  vertex -0.0130000003 -0.0531210005 0.0593070015
  endloop
 endfacet

 facet normal -1 0 0
  outer loop
  vertex -0.0130000003 -0.0343069993 0.078120999
  vertex -0.0130000003 -0.0561229996 0.0602179989
  vertex -0.0130000003 -0.0588890016 0.0616960004
  endloop
 endfacet

 facet normal -1 0 0
  outer loop
  vertex -0.0130000003 -0.0613140017 0.0636859983
  vertex -0.0130000003 -0.0343069993 0.078120999
  vertex -0.0130000003 -0.0588890016 0.0616960004
  endloop
 endfacet

 facet normal -1 0 0
  outer loop
  vertex -0.0130000003 -0.0343069993 0.078120999
  vertex -0.0130000003 -0.0613140017 0.0636859983
  vertex -0.0130000003 -0.0633039996 0.0661109984
  endloop
 endfacet

 facet normal -1 0 0
  outer loop
  vertex -0.0130000003 -0.0647820011 0.0688769966
  vertex -0.0130000003 -0.0343069993 0.078120999
  vertex -0.0130000003 -0.0633039996 0.0661109984
  endloop
 endfacet

 facet normal -1 0 0
  outer loop
  vertex -0.0130000003 -0.0343069993 0.078120999
  vertex -0.0130000003 -0.0647820011 0.0688769966
  vertex -0.0130000003 -0.0656929985 0.0718789995
  endloop
 endfacet

 facet normal -1 0 0
  outer loop
  vertex -0.0130000003 -0.0659999996 0.075000003
  vertex -0.0130000003 -0.0343069993 0.078120999
  vertex -0.0130000003 -0.0656929985 0.0718789995
  endloop
 endfacet

 facet normal -1 0 0
  outer loop
  vertex -0.0130000003 -0.0343069993 0.078120999
  vertex -0.0130000003 -0.0659999996 0.075000003
  vertex -0.0130000003 -0.0656929985 0.078120999
  endloop
 endfacet

 facet normal -1 0 0
  outer loop
  vertex -0.0130000003 -0.0647820011 0.0811230019
  vertex -0.0130000003 -0.0343069993 0.078120999
  vertex -0.0130000003 -0.0656929985 0.078120999
  endloop
 endfacet

 facet normal -1 0 0
  outer loop
  vertex -0.0130000003 -0.0343069993 0.078120999
  vertex -0.0130000003 -0.0647820011 0.0811230019
  vertex -0.0130000003 -0.0633039996 0.0838890001
  endloop
 endfacet

 facet normal -1 0 0
  outer loop
  vertex -0.0130000003 -0.0613140017 0.0863140002
  vertex -0.0130000003 -0.0343069993 0.078120999
  vertex -0.0130000003 -0.0633039996 0.0838890001
  endloop
 endfacet

 facet normal -1 0 0
  outer loop
  vertex -0.0130000003 -0.0343069993 0.078120999
  vertex -0.0130000003 -0.0613140017 0.0863140002
  vertex -0.0130000003 -0.0588890016 0.0883039981
  endloop
 endfacet

 facet normal -1 0 0
  outer loop
  vertex -0.0130000003 -0.0561229996 0.0897819996
  vertex -0.0130000003 -0.0343069993 0.078120999
  vertex -0.0130000003 -0.0588890016 0.0883039981
  endloop
 endfacet

 facet normal -1 0 0
  outer loop
  vertex -0.0130000003 -0.0343069993 0.078120999
  vertex -0.0130000003 -0.0561229996 0.0897819996
  vertex -0.0130000003 -0.0531210005 0.090692997
  endloop
 endfacet

 facet normal -1 0 0
  outer loop
  vertex -0.0130000003 -0.0500000007 0.0909999982
  vertex -0.0130000003 -0.0343069993 0.078120999
  vertex -0.0130000003 -0.0531210005 0.090692997
  endloop
 endfacet

 facet normal -1 0 0
  outer loop
  vertex -0.0130000003 -0.0343069993 0.078120999
  vertex -0.0130000003 -0.0500000007 0.0909999982
  vertex -0.0130000003 -0.046879001 0.090692997
  endloop
 endfacet

 facet normal -1 0 0
  outer loop
  vertex -0.0130000003 -0.0438770019 0.0897819996
  vertex -0.0130000003 -0.0343069993 0.078120999
  vertex -0.0130000003 -0.046879001 0.090692997
  endloop
 endfacet

 facet normal -1 0 0
  outer loop
  vertex -0.0130000003 -0.0343069993 0.078120999
  vertex -0.0130000003 -0.0438770019 0.0897819996
  vertex -0.0130000003 -0.0411109999 0.0883039981
  endloop
 endfacet

 facet normal -1 0 0
  outer loop
  vertex -0.0130000003 -0.0386859998 0.0863140002
  vertex -0.0130000003 -0.0343069993 0.078120999
  vertex -0.0130000003 -0.0411109999 0.0883039981
  endloop
 endfacet

 facet normal -1 0 0
  outer loop
  vertex -0.0130000003 -0.0343069993 0.078120999
  vertex -0.0130000003 -0.0386859998 0.0863140002
  vertex -0.0130000003 -0.0366959982 0.0838890001
  endloop
 endfacet

 facet normal -1 0 0
  outer loop
  vertex -0.0130000003 -0.0366959982 0.0838890001
  vertex -0.0130000003 -0.0352180004 0.0811230019
  vertex -0.0130000003 -0.0343069993 0.078120999
  endloop
 endfacet

endsolid AssimpScene
