solid AssimpScene
 facet normal 0.0979986787 0 0.995186567
  outer loop
  vertex -0.0500000007 0.0130000003 0.0480000004
  vertex -0.0500000007 -0.0130000003 0.0480000004
  vertex -0.046879001 -0.0130000003 0.0476929992
  endloop
 endfacet

 facet normal 0.0979986787 0 0.995186567
  outer loop
  vertex -0.0500000007 0.0130000003 0.0480000004
  vertex -0.046879001 -0.0130000003 0.0476929992
  vertex -0.046879001 0.0130000003 0.0476929992
  endloop
 endfacet

 facet normal 0.290309936 0 0.956932664
  outer loop
  vertex -0.046879001 0.0130000003 0.0476929992
  vertex -0.046879001 -0.0130000003 0.0476929992
  vertex -0.0438770019 -0.0130000003 0.0467820019
  endloop
 endfacet

 facet normal 0.290309936 0 0.956932664
  outer loop
  vertex -0.046879001 0.0130000003 0.0476929992
  vertex -0.0438770019 -0.0130000003 0.0467820019
  vertex -0.0438770019 0.0130000003 0.0467820019
  endloop
 endfacet

 facet normal 0.471408129 0 0.881915212
  outer loop
  vertex -0.0438770019 0.0130000003 0.0467820019
  vertex -0.0438770019 -0.0130000003 0.0467820019
  vertex -0.0411109999 -0.0130000003 0.0453040004
  endloop
 endfacet

 facet normal 0.471408129 0 0.881915212
  outer loop
  vertex -0.0438770019 0.0130000003 0.0467820019
  vertex -0.0411109999 -0.0130000003 0.0453040004
  vertex -0.0411109999 0.0130000003 0.0453040004
  endloop
 endfacet

 facet normal 0.634402394 0 0.773002923
  outer loop
  vertex -0.0411109999 0.0130000003 0.0453040004
  vertex -0.0411109999 -0.0130000003 0.0453040004
  vertex -0.0386859998 -0.0130000003 0.0433139987
  endloop
 endfacet

 facet normal 0.634402394 0 0.773002923
  outer loop
  vertex -0.0411109999 0.0130000003 0.0453040004
  vertex -0.0386859998 -0.0130000003 0.0433139987
  vertex -0.0386859998 0.0130000003 0.0433139987
  endloop
 endfacet

 facet normal 0.773002923 0 0.634402394
  outer loop
  vertex -0.0386859998 0.0130000003 0.0433139987
  vertex -0.0386859998 -0.0130000003 0.0433139987
  vertex -0.0366959982 -0.0130000003 0.0408889987
  endloop
 endfacet

 facet normal 0.773002923 0 0.634402394
  outer loop
  vertex -0.0386859998 0.0130000003 0.0433139987
  vertex -0.0366959982 -0.0130000003 0.0408889987
  vertex -0.0366959982 0.0130000003 0.0408889987
  endloop
 endfacet

 facet normal 0.881915212 0 0.471408129
  outer loop
  vertex -0.0366959982 0.0130000003 0.0408889987
  vertex -0.0366959982 -0.0130000003 0.0408889987
  vertex -0.0352180004 -0.0130000003 0.0381230004
  endloop
 endfacet

 facet normal 0.881915212 0 0.471408129
  outer loop
  vertex -0.0366959982 0.0130000003 0.0408889987
  vertex -0.0352180004 -0.0130000003 0.0381230004
  vertex -0.0352180004 0.0130000003 0.0381230004
  endloop
 endfacet

 facet normal 0.956932664 0 0.290309936
  outer loop
  vertex -0.0352180004 0.0130000003 0.0381230004
  vertex -0.0352180004 -0.0130000003 0.0381230004
  vertex -0.0343069993 -0.0130000003 0.0351210013
  endloop
 endfacet

 facet normal 0.956932664 0 0.290309936
  outer loop
  vertex -0.0352180004 0.0130000003 0.0381230004
  vertex -0.0343069993 -0.0130000003 0.0351210013
  vertex -0.0343069993 0.0130000003 0.0351210013
  endloop
 endfacet

 facet normal 0.995186567 0 0.0979986787
  outer loop
  vertex -0.0343069993 0.0130000003 0.0351210013
  vertex -0.0343069993 -0.0130000003 0.0351210013
  vertex -0.0340000018 -0.0130000003 0.0320000015
  endloop
 endfacet

 facet normal 0.995186567 0 0.0979986787
  outer loop
  vertex -0.0343069993 0.0130000003 0.0351210013
  vertex -0.0340000018 -0.0130000003 0.0320000015
  vertex -0.0340000018 0.0130000003 0.0320000015
  endloop
 endfacet

 facet normal 0.995186567 0 -0.0979986787
  outer loop
  vertex -0.0340000018 0.0130000003 0.0320000015
  vertex -0.0340000018 -0.0130000003 0.0320000015
  vertex -0.0343069993 -0.0130000003 0.0288789999
  endloop
 endfacet

 facet normal 0.995186567 0 -0.0979986787
  outer loop
  vertex -0.0340000018 0.0130000003 0.0320000015
  vertex -0.0343069993 -0.0130000003 0.0288789999
  vertex -0.0343069993 0.0130000003 0.0288789999
  endloop
 endfacet

 facet normal 0.956932664 0 -0.290309936
  outer loop
  vertex -0.0343069993 0.0130000003 0.0288789999
  vertex -0.0343069993 -0.0130000003 0.0288789999
  vertex -0.0352180004 -0.0130000003 0.0258770008
  endloop
 endfacet

 facet normal 0.956932664 0 -0.290309936
  outer loop
  vertex -0.0343069993 0.0130000003 0.0288789999
  vertex -0.0352180004 -0.0130000003 0.0258770008
  vertex -0.0352180004 0.0130000003 0.0258770008
  endloop
 endfacet

 facet normal 0.881915212 0 -0.471408129
  outer loop
  vertex -0.0352180004 0.0130000003 0.0258770008
  vertex -0.0352180004 -0.0130000003 0.0258770008
  vertex -0.0366959982 -0.0130000003 0.0231110007
  endloop
 endfacet

 facet normal 0.881915212 0 -0.471408129
  outer loop
  vertex -0.0352180004 0.0130000003 0.0258770008
  vertex -0.0366959982 -0.0130000003 0.0231110007
  vertex -0.0366959982 0.0130000003 0.0231110007
  endloop
 endfacet

 facet normal 0.773002923 0 -0.634402394
  outer loop
  vertex -0.0366959982 0.0130000003 0.0231110007
  vertex -0.0366959982 -0.0130000003 0.0231110007
  vertex -0.0386859998 -0.0130000003 0.0206860006
  endloop
 endfacet

 facet normal 0.773002923 0 -0.634402394
  outer loop
  vertex -0.0366959982 0.0130000003 0.0231110007
  vertex -0.0386859998 -0.0130000003 0.0206860006
  vertex -0.0386859998 0.0130000003 0.0206860006
  endloop
 endfacet

 facet normal 0.634402394 0 -0.773002923
  outer loop
  vertex -0.0386859998 0.0130000003 0.0206860006
  vertex -0.0386859998 -0.0130000003 0.0206860006
  vertex -0.0411109999 -0.0130000003 0.0186960008
  endloop
 endfacet

 facet normal 0.634402394 0 -0.773002923
  outer loop
  vertex -0.0386859998 0.0130000003 0.0206860006
  vertex -0.0411109999 -0.0130000003 0.0186960008
  vertex -0.0411109999 0.0130000003 0.0186960008
  endloop
 endfacet

 facet normal 0.471408129 0 -0.881915212
  outer loop
  vertex -0.0411109999 0.0130000003 0.0186960008
  vertex -0.0411109999 -0.0130000003 0.0186960008
  vertex -0.0438770019 -0.0130000003 0.0172179993
  endloop
 endfacet

 facet normal 0.471408129 0 -0.881915212
  outer loop
  vertex -0.0411109999 0.0130000003 0.0186960008
  vertex -0.0438770019 -0.0130000003 0.0172179993
  vertex -0.0438770019 0.0130000003 0.0172179993
  endloop
 endfacet

 facet normal 0.290309936 0 -0.956932664
  outer loop
  vertex -0.0438770019 0.0130000003 0.0172179993
  vertex -0.0438770019 -0.0130000003 0.0172179993
  vertex -0.046879001 -0.0130000003 0.0163070001
  endloop
 endfacet

 facet normal 0.290309936 0 -0.956932664
  outer loop
  vertex -0.0438770019 0.0130000003 0.0172179993
  vertex -0.046879001 -0.0130000003 0.0163070001
  vertex -0.046879001 0.0130000003 0.0163070001
  endloop
 endfacet

 facet normal 0.0979986787 0 -0.995186567
  outer loop
  vertex -0.046879001 0.0130000003 0.0163070001
  vertex -0.046879001 -0.0130000003 0.0163070001
  vertex -0.0500000007 -0.0130000003 0.0160000008
  endloop
 endfacet

 facet normal 0.0979986787 0 -0.995186567
  outer loop
  vertex -0.046879001 0.0130000003 0.0163070001
  vertex -0.0500000007 -0.0130000003 0.0160000008
  vertex -0.0500000007 0.0130000003 0.0160000008
  endloop
 endfacet

 facet normal -0.0979986787 0 -0.995186567
  outer loop
  vertex -0.0500000007 0.0130000003 0.0160000008
  vertex -0.0500000007 -0.0130000003 0.0160000008
  vertex -0.0531210005 -0.0130000003 0.0163070001
  endloop
 endfacet

 facet normal -0.0979986787 0 -0.995186567
  outer loop
  vertex -0.0500000007 0.0130000003 0.0160000008
  vertex -0.0531210005 -0.0130000003 0.0163070001
  vertex -0.0531210005 0.0130000003 0.0163070001
  endloop
 endfacet

 facet normal -0.290309936 0 -0.956932664
  outer loop
  vertex -0.0531210005 0.0130000003 0.0163070001
  vertex -0.0531210005 -0.0130000003 0.0163070001
  vertex -0.0561229996 -0.0130000003 0.0172179993
  endloop
 endfacet

 facet normal -0.290309936 0 -0.956932664
  outer loop
  vertex -0.0531210005 0.0130000003 0.0163070001
  vertex -0.0561229996 -0.0130000003 0.0172179993
  vertex -0.0561229996 0.0130000003 0.0172179993
  endloop
 endfacet

 facet normal -0.471408129 0 -0.881915212
  outer loop
  vertex -0.0561229996 0.0130000003 0.0172179993
  vertex -0.0561229996 -0.0130000003 0.0172179993
  vertex -0.0588890016 -0.0130000003 0.0186960008
  endloop
 endfacet

 facet normal -0.471408129 0 -0.881915212
  outer loop
  vertex -0.0561229996 0.0130000003 0.0172179993
  vertex -0.0588890016 -0.0130000003 0.0186960008
  vertex -0.0588890016 0.0130000003 0.0186960008
  endloop
 endfacet

 facet normal -0.634402394 0 -0.773002923
  outer loop
  vertex -0.0588890016 0.0130000003 0.0186960008
  vertex -0.0588890016 -0.0130000003 0.0186960008
  vertex -0.0613140017 -0.0130000003 0.0206860006
  endloop
 endfacet

 facet normal -0.634402394 0 -0.773002923
  outer loop
  vertex -0.0588890016 0.0130000003 0.0186960008
  vertex -0.0613140017 -0.0130000003 0.0206860006
  vertex -0.0613140017 0.0130000003 0.0206860006
  endloop
 endfacet

 facet normal -0.773002923 0 -0.634402394
  outer loop
  vertex -0.0613140017 0.0130000003 0.0206860006
  vertex -0.0613140017 -0.0130000003 0.0206860006
  vertex -0.0633039996 -0.0130000003 0.0231110007
  endloop
 endfacet

 facet normal -0.773002923 0 -0.634402394
  outer loop
  vertex -0.0613140017 0.0130000003 0.0206860006
  vertex -0.0633039996 -0.0130000003 0.0231110007
  vertex -0.0633039996 0.0130000003 0.0231110007
  endloop
 endfacet

 facet normal -0.881915212 0 -0.471408129
  outer loop
  vertex -0.0633039996 0.0130000003 0.0231110007
  vertex -0.0633039996 -0.0130000003 0.0231110007
  vertex -0.0647820011 -0.0130000003 0.0258770008
  endloop
 endfacet

 facet normal -0.881915212 0 -0.471408129
  outer loop
  vertex -0.0633039996 0.0130000003 0.0231110007
  vertex -0.0647820011 -0.0130000003 0.0258770008
  vertex -0.0647820011 0.0130000003 0.0258770008
  endloop
 endfacet

 facet normal -0.956932664 0 -0.290309936
  outer loop
  vertex -0.0647820011 0.0130000003 0.0258770008
  vertex -0.0647820011 -0.0130000003 0.0258770008
  vertex -0.0656929985 -0.0130000003 0.0288789999
  endloop
 endfacet

 facet normal -0.956932664 0 -0.290309936
  outer loop
  vertex -0.0647820011 0.0130000003 0.0258770008
  vertex -0.0656929985 -0.0130000003 0.0288789999
  vertex -0.0656929985 0.0130000003 0.0288789999
  endloop
 endfacet

 facet normal -0.995186567 0 -0.0979986787
  outer loop
  vertex -0.0656929985 0.0130000003 0.0288789999
  vertex -0.0656929985 -0.0130000003 0.0288789999
  vertex -0.0659999996 -0.0130000003 0.0320000015
  endloop
 endfacet

 facet normal -0.995186567 0 -0.0979986787
  outer loop
  vertex -0.0656929985 0.0130000003 0.0288789999
  vertex -0.0659999996 -0.0130000003 0.0320000015
  vertex -0.0659999996 0.0130000003 0.0320000015
  endloop
 endfacet

 facet normal -0.995186567 0 0.0979986787
  outer loop
  vertex -0.0659999996 0.0130000003 0.0320000015
  vertex -0.0659999996 -0.0130000003 0.0320000015
  vertex -0.0656929985 -0.0130000003 0.0351210013
  endloop
 endfacet

 facet normal -0.995186567 0 0.0979986787
  outer loop
  vertex -0.0659999996 0.0130000003 0.0320000015
  vertex -0.0656929985 -0.0130000003 0.0351210013
  vertex -0.0656929985 0.0130000003 0.0351210013
  endloop
 endfacet

 facet normal -0.956932664 0 0.290309936
  outer loop
  vertex -0.0656929985 0.0130000003 0.0351210013
  vertex -0.0656929985 -0.0130000003 0.0351210013
  vertex -0.0647820011 -0.0130000003 0.0381230004
  endloop
 endfacet

 facet normal -0.956932664 0 0.290309936
  outer loop
  vertex -0.0656929985 0.0130000003 0.0351210013
  vertex -0.0647820011 -0.0130000003 0.0381230004
  vertex -0.0647820011 0.0130000003 0.0381230004
  endloop
 endfacet

 facet normal -0.881915212 0 0.471408129
  outer loop
  vertex -0.0647820011 0.0130000003 0.0381230004
  vertex -0.0647820011 -0.0130000003 0.0381230004
  vertex -0.0633039996 -0.0130000003 0.0408889987
  endloop
 endfacet

 facet normal -0.881915212 0 0.471408129
  outer loop
  vertex -0.0647820011 0.0130000003 0.0381230004
  vertex -0.0633039996 -0.0130000003 0.0408889987
  vertex -0.0633039996 0.0130000003 0.0408889987
  endloop
 endfacet

 facet normal -0.773002923 0 0.634402394
  outer loop
  vertex -0.0633039996 0.0130000003 0.0408889987
  vertex -0.0633039996 -0.0130000003 0.0408889987
  vertex -0.0613140017 -0.0130000003 0.0433139987
  endloop
 endfacet

 facet normal -0.773002923 0 0.634402394
  outer loop
  vertex -0.0633039996 0.0130000003 0.0408889987
  vertex -0.0613140017 -0.0130000003 0.0433139987
  vertex -0.0613140017 0.0130000003 0.0433139987
  endloop
 endfacet

 facet normal -0.634402394 0 0.773002923
  outer loop
  vertex -0.0613140017 0.0130000003 0.0433139987
  vertex -0.0613140017 -0.0130000003 0.0433139987
  vertex -0.0588890016 -0.0130000003 0.0453040004
  endloop
 endfacet

 facet normal -0.634402394 0 0.773002923
  outer loop
  vertex -0.0613140017 0.0130000003 0.0433139987
  vertex -0.0588890016 -0.0130000003 0.0453040004
  vertex -0.0588890016 0.0130000003 0.0453040004
  endloop
 endfacet

 facet normal -0.471408129 0 0.881915212
  outer loop
  vertex -0.0588890016 0.0130000003 0.0453040004
  vertex -0.0588890016 -0.0130000003 0.0453040004
  vertex -0.0561229996 -0.0130000003 0.0467820019
  endloop
 endfacet

 facet normal -0.471408129 0 0.881915212
  outer loop
  vertex -0.0588890016 0.0130000003 0.0453040004
  vertex -0.0561229996 -0.0130000003 0.0467820019
  vertex -0.0561229996 0.0130000003 0.0467820019
  endloop
 endfacet

 facet normal 0 -1 0
  outer loop
  vertex -0.0438770019 -0.0130000003 0.0467820019
  vertex -0.046879001 -0.0130000003 0.0476929992
  vertex -0.0500000007 -0.0130000003 0.0480000004
  endloop
 endfacet

 facet normal 0 -1 0
  outer loop
  vertex -0.0531210005 -0.0130000003 0.0476929992
  vertex -0.0438770019 -0.0130000003 0.0467820019
  vertex -0.0500000007 -0.0130000003 0.0480000004
  endloop
 endfacet

 facet normal 0 -1 0
  outer loop
  vertex -0.0438770019 -0.0130000003 0.0467820019
  vertex -0.0531210005 -0.0130000003 0.0476929992
  vertex -0.0561229996 -0.0130000003 0.0467820019
  endloop
 endfacet

 facet normal 0 -1 0
  outer loop
  vertex -0.0588890016 -0.0130000003 0.0453040004
  vertex -0.0438770019 -0.0130000003 0.0467820019
  vertex -0.0561229996 -0.0130000003 0.0467820019
  endloop
 endfacet

 facet normal 0 -1 0
  outer loop
  vertex -0.0438770019 -0.0130000003 0.0467820019
  vertex -0.0588890016 -0.0130000003 0.0453040004
  vertex -0.0613140017 -0.0130000003 0.0433139987
  endloop
 endfacet

 facet normal 0 -1 0
  outer loop
  vertex -0.0633039996 -0.0130000003 0.0408889987
  vertex -0.0438770019 -0.0130000003 0.0467820019
  vertex -0.0613140017 -0.0130000003 0.0433139987
  endloop
 endfacet

 facet normal 0 -1 0
  outer loop
  vertex -0.0438770019 -0.0130000003 0.0467820019
  vertex -0.0633039996 -0.0130000003 0.0408889987
  vertex -0.0647820011 -0.0130000003 0.0381230004
  endloop
 endfacet

 facet normal 0 -1 0
  outer loop
  vertex -0.0656929985 -0.0130000003 0.0351210013
  vertex -0.0438770019 -0.0130000003 0.0467820019
  vertex -0.0647820011 -0.0130000003 0.0381230004
  endloop
 endfacet

 facet normal 0 -1 0
  outer loop
  vertex -0.0438770019 -0.0130000003 0.0467820019
  vertex -0.0656929985 -0.0130000003 0.0351210013
  vertex -0.0659999996 -0.0130000003 0.0320000015
  endloop
 endfacet

 facet normal 0 -1 0
  outer loop
  vertex -0.0656929985 -0.0130000003 0.0288789999
  vertex -0.0438770019 -0.0130000003 0.0467820019
  vertex -0.0659999996 -0.0130000003 0.0320000015
  endloop
 endfacet

 facet normal 0 -1 0
  outer loop
  vertex -0.0438770019 -0.0130000003 0.0467820019
  vertex -0.0656929985 -0.0130000003 0.0288789999
  vertex -0.0647820011 -0.0130000003 0.0258770008
  endloop
 endfacet

 facet normal 0 -1 0
  outer loop
  vertex -0.0633039996 -0.0130000003 0.0231110007
  vertex -0.0438770019 -0.0130000003 0.0467820019
  vertex -0.0647820011 -0.0130000003 0.0258770008
  endloop
 endfacet

 facet normal 0 -1 0
  outer loop
  vertex -0.0438770019 -0.0130000003 0.0467820019
  vertex -0.0633039996 -0.0130000003 0.0231110007
  vertex -0.0613140017 -0.0130000003 0.0206860006
  endloop
 endfacet

 facet normal 0 -1 0
  outer loop
  vertex -0.0588890016 -0.0130000003 0.0186960008
  vertex -0.0438770019 -0.0130000003 0.0467820019
  vertex -0.0613140017 -0.0130000003 0.0206860006
  endloop
 endfacet

 facet normal 0 -1 0
  outer loop
  vertex -0.0438770019 -0.0130000003 0.0467820019
  vertex -0.0588890016 -0.0130000003 0.0186960008
  vertex -0.0561229996 -0.0130000003 0.0172179993
  endloop
 endfacet

 facet normal 0 -1 0
  outer loop
  vertex -0.0531210005 -0.0130000003 0.0163070001
  vertex -0.0438770019 -0.0130000003 0.0467820019
  vertex -0.0561229996 -0.0130000003 0.0172179993
  endloop
 endfacet

 facet normal 0 -1 0
  outer loop
  vertex -0.0438770019 -0.0130000003 0.0467820019
  vertex -0.0531210005 -0.0130000003 0.0163070001
  vertex -0.0500000007 -0.0130000003 0.0160000008
  endloop
 endfacet

 facet normal 0 -1 0
  outer loop
  vertex -0.046879001 -0.0130000003 0.0163070001
  vertex -0.0438770019 -0.0130000003 0.0467820019
  vertex -0.0500000007 -0.0130000003 0.0160000008
  endloop
 endfacet

 facet normal 0 -1 0
  outer loop
  vertex -0.0438770019 -0.0130000003 0.0467820019
  vertex -0.046879001 -0.0130000003 0.0163070001
  vertex -0.0438770019 -0.0130000003 0.0172179993
  endloop
 endfacet

 facet normal 0 -1 0
  outer loop
  vertex -0.0411109999 -0.0130000003 0.0186960008
  vertex -0.0438770019 -0.0130000003 0.0467820019
  vertex -0.0438770019 -0.0130000003 0.0172179993
  endloop
 endfacet

 facet normal 0 -1 0
  outer loop
  vertex -0.0438770019 -0.0130000003 0.0467820019
  vertex -0.0411109999 -0.0130000003 0.0186960008
  vertex -0.0386859998 -0.0130000003 0.0206860006
  endloop
 endfacet

 facet normal 0 -1 0
  outer loop
  vertex -0.0366959982 -0.0130000003 0.0231110007
  vertex -0.0438770019 -0.0130000003 0.0467820019
  vertex -0.0386859998 -0.0130000003 0.0206860006
  endloop
 endfacet

 facet normal 0 -1 0
  outer loop
  vertex -0.0438770019 -0.0130000003 0.0467820019
  vertex -0.0366959982 -0.0130000003 0.0231110007
  vertex -0.0352180004 -0.0130000003 0.0258770008
  endloop
 endfacet

 facet normal 0 -1 0
  outer loop
  vertex -0.0343069993 -0.0130000003 0.0288789999
  vertex -0.0438770019 -0.0130000003 0.0467820019
  vertex -0.0352180004 -0.0130000003 0.0258770008
  endloop
 endfacet

 facet normal 0 -1 0
  outer loop
  vertex -0.0438770019 -0.0130000003 0.0467820019
  vertex -0.0343069993 -0.0130000003 0.0288789999
  vertex -0.0340000018 -0.0130000003 0.0320000015
  endloop
 endfacet

 facet normal 0 -1 0
  outer loop
  vertex -0.0343069993 -0.0130000003 0.0351210013
  vertex -0.0438770019 -0.0130000003 0.0467820019
  vertex -0.0340000018 -0.0130000003 0.0320000015
  endloop
 endfacet

 facet normal 0 -1 0
  outer loop
  vertex -0.0438770019 -0.0130000003 0.0467820019
  vertex -0.0343069993 -0.0130000003 0.0351210013
  vertex -0.0352180004 -0.0130000003 0.0381230004
  endloop
 endfacet

 facet normal 0 -1 0
  outer loop
  vertex -0.0366959982 -0.0130000003 0.0408889987
  vertex -0.0438770019 -0.0130000003 0.0467820019
  vertex -0.0352180004 -0.0130000003 0.0381230004
  endloop
 endfacet

 facet normal 0 -1 0
  outer loop
  vertex -0.0438770019 -0.0130000003 0.0467820019
  vertex -0.0366959982 -0.0130000003 0.0408889987
  vertex -0.0386859998 -0.0130000003 0.0433139987
  endloop
 endfacet

 facet normal 0 -1 0
  outer loop
  vertex -0.0386859998 -0.0130000003 0.0433139987
  vertex -0.0411109999 -0.0130000003 0.0453040004
  vertex -0.0438770019 -0.0130000003 0.0467820019
  endloop
 endfacet

 facet normal -0.290309936 0 0.956932664
  outer loop
  vertex -0.0561229996 0.0130000003 0.0467820019
  vertex -0.0561229996 -0.0130000003 0.0467820019
  vertex -0.0531210005 -0.0130000003 0.0476929992
  endloop
 endfacet

 facet normal -0.290309936 0 0.956932664
  outer loop
  vertex -0.0561229996 0.0130000003 0.0467820019
  vertex -0.0531210005 -0.0130000003 0.0476929992
  vertex -0.0531210005 0.0130000003 0.0476929992
  endloop
 endfacet

 facet normal -0.0979986787 0 0.995186567
  outer loop
  vertex -0.0531210005 0.0130000003 0.0476929992
  vertex -0.0531210005 -0.0130000003 0.0476929992
  vertex -0.0500000007 -0.0130000003 0.0480000004
  endloop
 endfacet

 facet normal -0.0979986787 0 0.995186567
  outer loop
  vertex -0.0531210005 0.0130000003 0.0476929992
  vertex -0.0500000007 -0.0130000003 0.0480000004
  vertex -0.0500000007 0.0130000003 0.0480000004
  endloop
 endfacet

 facet normal 0 1 0
  outer loop
  vertex -0.0531210005 0.0130000003 0.0476929992
  vertex -0.0500000007 0.0130000003 0.0480000004
  vertex -0.046879001 0.0130000003 0.0476929992
  endloop
 endfacet

 facet normal 0 1 0
  outer loop
  vertex -0.0438770019 0.0130000003 0.0467820019
  vertex -0.0531210005 0.0130000003 0.0476929992
  vertex -0.046879001 0.0130000003 0.0476929992
  endloop
 endfacet

 facet normal 0 1 0
  outer loop
  vertex -0.0531210005 0.0130000003 0.0476929992
  vertex -0.0438770019 0.0130000003 0.0467820019
  vertex -0.0411109999 0.0130000003 0.0453040004
  endloop
 endfacet

 facet normal 0 1 0
  outer loop
  vertex -0.0386859998 0.0130000003 0.0433139987
  vertex -0.0531210005 0.0130000003 0.0476929992
  vertex -0.0411109999 0.0130000003 0.0453040004
  endloop
 endfacet

 facet normal 0 1 0
  outer loop
  vertex -0.0531210005 0.0130000003 0.0476929992
  vertex -0.0386859998 0.0130000003 0.0433139987
  vertex -0.0366959982 0.0130000003 0.0408889987
  endloop
 endfacet

 facet normal 0 1 0
  outer loop
  vertex -0.0352180004 0.0130000003 0.0381230004
  vertex -0.0531210005 0.0130000003 0.0476929992
  vertex -0.0366959982 0.0130000003 0.0408889987
  endloop
 endfacet

 facet normal 0 1 0
  outer loop
  vertex -0.0531210005 0.0130000003 0.0476929992
  vertex -0.0352180004 0.0130000003 0.0381230004
  vertex -0.0343069993 0.0130000003 0.0351210013
  endloop
 endfacet

 facet normal 0 1 0
  outer loop
  vertex -0.0340000018 0.0130000003 0.0320000015
  vertex -0.0531210005 0.0130000003 0.0476929992
  vertex -0.0343069993 0.0130000003 0.0351210013
  endloop
 endfacet

 facet normal 0 1 0
  outer loop
  vertex -0.0531210005 0.0130000003 0.0476929992
  vertex -0.0340000018 0.0130000003 0.0320000015
  vertex -0.0343069993 0.0130000003 0.0288789999
  endloop
 endfacet

 facet normal 0 1 0
  outer loop
  vertex -0.0352180004 0.0130000003 0.0258770008
  vertex -0.0531210005 0.0130000003 0.0476929992
  vertex -0.0343069993 0.0130000003 0.0288789999
  endloop
 endfacet

 facet normal 0 1 0
  outer loop
  vertex -0.0531210005 0.0130000003 0.0476929992
  vertex -0.0352180004 0.0130000003 0.0258770008
  vertex -0.0366959982 0.0130000003 0.0231110007
  endloop
 endfacet

 facet normal 0 1 0
  outer loop
  vertex -0.0386859998 0.0130000003 0.0206860006
  vertex -0.0531210005 0.0130000003 0.0476929992
  vertex -0.0366959982 0.0130000003 0.0231110007
  endloop
 endfacet

 facet normal 0 1 0
  outer loop
  vertex -0.0531210005 0.0130000003 0.0476929992
  vertex -0.0386859998 0.0130000003 0.0206860006
  vertex -0.0411109999 0.0130000003 0.0186960008
  endloop
 endfacet

 facet normal 0 1 0
  outer loop
  vertex -0.0438770019 0.0130000003 0.0172179993
  vertex -0.0531210005 0.0130000003 0.0476929992
  vertex -0.0411109999 0.0130000003 0.0186960008
  endloop
 endfacet

 facet normal 0 1 0
  outer loop
  vertex -0.0531210005 0.0130000003 0.0476929992
  vertex -0.0438770019 0.0130000003 0.0172179993
  vertex -0.046879001 0.0130000003 0.0163070001
  endloop
 endfacet

 facet normal 0 1 0
  outer loop
  vertex -0.0500000007 0.0130000003 0.0160000008
  vertex -0.0531210005 0.0130000003 0.0476929992
  vertex -0.046879001 0.0130000003 0.0163070001
  endloop
 endfacet

 facet normal 0 1 0
  outer loop
  vertex -0.0531210005 0.0130000003 0.0476929992
  vertex -0.0500000007 0.0130000003 0.0160000008
  vertex -0.0531210005 0.0130000003 0.0163070001
  endloop
 endfacet

 facet normal 0 1 0
  outer loop
  vertex -0.0561229996 0.0130000003 0.0172179993
  vertex -0.0531210005 0.0130000003 0.0476929992
  vertex -0.0531210005 0.0130000003 0.0163070001
  endloop
 endfacet

 facet normal 0 1 0
  outer loop
  vertex -0.0531210005 0.0130000003 0.0476929992
  vertex -0.0561229996 0.0130000003 0.0172179993
  vertex -0.0588890016 0.0130000003 0.0186960008
  endloop
 endfacet

 facet normal 0 1 0
  outer loop
  vertex -0.0613140017 0.0130000003 0.0206860006
  vertex -0.0531210005 0.0130000003 0.0476929992
  vertex -0.0588890016 0.0130000003 0.0186960008
  endloop
 endfacet

 facet normal 0 1 0
  outer loop
  vertex -0.0531210005 0.0130000003 0.0476929992
  vertex -0.0613140017 0.0130000003 0.0206860006
  vertex -0.0633039996 0.0130000003 0.0231110007
  endloop
 endfacet

 facet normal 0 1 0
  outer loop
  vertex -0.0647820011 0.0130000003 0.0258770008
  vertex -0.0531210005 0.0130000003 0.0476929992
  vertex -0.0633039996 0.0130000003 0.0231110007
  endloop
 endfacet

 facet normal 0 1 0
  outer loop
  vertex -0.0531210005 0.0130000003 0.0476929992
  vertex -0.0647820011 0.0130000003 0.0258770008
  vertex -0.0656929985 0.0130000003 0.0288789999
  endloop
 endfacet

 facet normal 0 1 0
  outer loop
  vertex -0.0659999996 0.0130000003 0.0320000015
  vertex -0.0531210005 0.0130000003 0.0476929992
  vertex -0.0656929985 0.0130000003 0.0288789999
  endloop
 endfacet

 facet normal 0 1 0
  outer loop
  vertex -0.0531210005 0.0130000003 0.0476929992
  vertex -0.0659999996 0.0130000003 0.0320000015
  vertex -0.0656929985 0.0130000003 0.0351210013
  endloop
 endfacet

 facet normal 0 1 0
  outer loop
  vertex -0.0647820011 0.0130000003 0.0381230004
  vertex -0.0531210005 0.0130000003 0.0476929992
  vertex -0.0656929985 0.0130000003 0.0351210013
  endloop
 endfacet

 facet normal 0 1 0
  outer loop
  vertex -0.0531210005 0.0130000003 0.0476929992
  vertex -0.0647820011 0.0130000003 0.0381230004
  vertex -0.0633039996 0.0130000003 0.0408889987
  endloop
 endfacet

 facet normal 0 1 0
  outer loop
  vertex -0.0613140017 0.0130000003 0.0433139987
  vertex -0.0531210005 0.0130000003 0.0476929992
  vertex -0.0633039996 0.0130000003 0.0408889987
  endloop
 endfacet

 facet normal 0 1 0
  outer loop
  vertex -0.0531210005 0.0130000003 0.0476929992
  vertex -0.0613140017 0.0130000003 0.0433139987
  vertex -0.0588890016 0.0130000003 0.0453040004
  endloop
 endfacet

 facet normal 0 1 0
  outer loop
  vertex -0.0588890016 0.0130000003 0.0453040004
  vertex -0.0561229996 0.0130000003 0.0467820019
  vertex -0.0531210005 0.0130000003 0.0476929992
  endloop
 endfacet

endsolid AssimpScene
